{
.appVersion = "1300";
copyright = "Copyright © 2020 by Khaled Hosny. All rights reserved.";
customParameters = (
{
name = glyphOrder;
value = (
.notdef,
NULL,
CR,
space,
"hamza-ar",
"alef-ar",
"alef-ar.1",
"alef-ar.2",
"alef-ar.3",
"alef-ar.fina",
"behDotless-ar",
"behDotless-ar.fina",
"behDotless-ar.init",
"behDotless-ar.init.hah",
"behDotless-ar.medi",
"behDotless-ar.high",
"behDotless-ar.high.1",
"hah-ar",
"hah-ar.1",
"hah-ar.2",
"hah-ar.3",
"hah-ar.fina",
"hah-ar.init",
"hah-ar.init.1",
"hah-ar.init.2",
"hah-ar.medi",
"dal-ar",
"dal-ar.fina",
"reh-ar",
"reh-ar.1",
"reh-ar.fina",
"reh-ar.fina.1",
"seen-ar",
"seen-ar.1",
"seen-ar.2",
"seen-ar.3",
"seen-ar.4",
"seen-ar.5",
"seen-ar.6",
"seen-ar.fina",
"seen-ar.fina.1",
"seen-ar.fina.2",
"seen-ar.fina.3",
"seen-ar.fina.4",
"seen-ar.fina.5",
"seen-ar.init",
"seen-ar.init.1",
"seen-ar.init.2",
"seen-ar.init.3",
"seen-ar.init.4",
"seen-ar.init.5",
"seen-ar.init.6",
"seen-ar.medi",
"seen-ar.medi.1",
"seen-ar.medi.2",
"seen-ar.medi.3",
"seen-ar.medi.4",
"seen-ar.medi.5",
"seen-ar.medi.6",
"sad-ar",
"sad-ar.1",
"sad-ar.fina",
"sad-ar.fina.1",
"sad-ar.init",
"sad-ar.medi",
"tah-ar",
"tah-ar.fina",
"tah-ar.init",
"tah-ar.medi",
"ain-ar",
"ain-ar.fina",
"ain-ar.init",
"ain-ar.medi",
"fehDotless-ar",
"fehDotless-ar.1",
"fehDotless-ar.2",
"fehDotless-ar.3",
"fehDotless-ar.fina",
"fehDotless-ar.fina.1",
"fehDotless-ar.fina.2",
"fehDotless-ar.fina.3",
"fehDotless-ar.init",
"fehDotless-ar.init.1",
"fehDotless-ar.medi",
"qafDotless-ar",
"qafDotless-ar.fina",
"kaf-ar",
"kaf-ar.1",
"kaf-ar.2",
"kaf-ar.fina",
"kaf-ar.fina.1",
"kaf-ar.fina.2",
"kaf-ar.init",
"kaf-ar.init.1",
"kaf-ar.init.2",
"kaf-ar.medi",
"kaf-ar.medi.1",
"kaf-ar.medi.2",
"lam-ar",
"lam-ar.fina",
"lam-ar.init",
"lam-ar.init.hah",
"lam-ar.medi",
"meem-ar",
"meem-ar.1",
"meem-ar.2",
"meem-ar.fina",
"meem-ar.fina.1",
"meem-ar.fina.2",
"meem-ar.init",
"meem-ar.medi",
"meem-ar.medi.1",
"noonghunna-ar",
"noonghunna-ar.fina",
"heh-ar",
"heh-ar.1",
"heh-ar.2",

glyphs = (
{
glyphname = .notdef;
layers = (
{
hints = (
{
place = "{40, 40}";
type = Stem;
},
{
place = "{250, 40}";
type = Stem;
},
{
horizontal = 1;
place = "{0, 40}";
type = Stem;
},
{
horizontal = 1;
place = "{410, 40}";
type = Stem;
}
);
layerId = "56eb07b5-49f2-447c-9e4d-0a9cf23655fc";
paths = (
{
closed = 1;
nodes = (
"40 450 LINE",
"290 450 LINE",
"290 0 LINE",
"40 0 LINE"
);
},
{
closed = 1;
nodes = (
"80 410 LINE",
"80 40 LINE",
"250 40 LINE",
"250 410 LINE"
);
},
{
closed = 1;
nodes = (
"232 430 LINE",
"266 407.973 LINE",
"98 21 LINE",
"61.014 37.027 LINE"
);
},
{
closed = 1;
nodes = (
"95.014 430 LINE",
"266 37.027 LINE",
"229.014 21 LINE",
"61.014 407.973 LINE"
);
}
);
width = 330;
},
{
associatedMasterId = "56eb07b5-49f2-447c-9e4d-0a9cf23655fc";
layerId = "03a3df06-bc9c-4df5-8d4c-53a5dfe084e0";
name = Body;
width = 0;
}
);
},
{
glyphname = "alef-ar";
lastChange = "2020-03-08 19:48:42 +0000";
layers = (
{
hints = (
{
place = "{0, 80}";
type = Stem;
},
{
horizontal = 1;
place = "{0, 43}";
type = Stem;
}
);
layerId = "56eb07b5-49f2-447c-9e4d-0a9cf23655fc";
widthMetricsKey = "=80+80+40";
paths = (
{
closed = 1;
nodes = (
"80 560 LINE",
"0 540 LINE",
"0 80 LINE",
"0 29.996 OFFCURVE",
"36.512 0.277 OFFCURVE",
"77.298 0.277 CURVE SMOOTH",
"106.659 0.277 OFFCURVE",
"138.235 15.678 OFFCURVE",
"160 50 CURVE",
"150.544 45.761 OFFCURVE",
"138.749 43.33 OFFCURVE",
"127.146 43.33 CURVE SMOOTH",
"103.164 43.33 OFFCURVE",
"80 53.717 OFFCURVE",
"80 80 CURVE"
);
}
);
width = 80;
},
{
associatedMasterId = "56eb07b5-49f2-447c-9e4d-0a9cf23655fc";
layerId = "03a3df06-bc9c-4df5-8d4c-53a5dfe084e0";
name = Body;
width = 0;
}
);
unicode = 0627;
},
{
glyphname = "alef-ar.1";
layers = (
{
hints = (
{
place = "{0, 80}";
type = Stem;
},
{
horizontal = 1;
place = "{0, 37}";
type = Stem;
}
);
layerId = "56eb07b5-49f2-447c-9e4d-0a9cf23655fc";
widthMetricsKey = "=80+160+40";
paths = (
{
closed = 1;
nodes = (
"80 560 LINE",
"0 540 LINE",
"0 100 LINE",
"0 34.354 OFFCURVE",
"51.765 0.186 OFFCURVE",
"113.096 0.186 CURVE SMOOTH",
"155.47 0.186 OFFCURVE",
"202.409 16.495 OFFCURVE",
"240 50 CURVE",
"216.041 42.014 OFFCURVE",
"189.428 37.162 OFFCURVE",
"164.895 37.162 CURVE SMOOTH",
"118.775 37.162 OFFCURVE",
"80 54.307 OFFCURVE",
"80 100 CURVE"
);
}
);
width = 280;
},
{
associatedMasterId = "56eb07b5-49f2-447c-9e4d-0a9cf23655fc";
layerId = "03a3df06-bc9c-4df5-8d4c-53a5dfe084e0";
name = Body;
width = 0;
}
);
},
{
glyphname = "alef-ar.2";
layers = (
{
hints = (
{
place = "{0, 80}";
type = Stem;
},
{
horizontal = 1;
place = "{0, 48}";
type = Stem;
}
);
layerId = "56eb07b5-49f2-447c-9e4d-0a9cf23655fc";
widthMetricsKey = "=80+240+40";
paths = (
{
closed = 1;
nodes = (
"80 560 LINE",
"0 540 LINE",
"0 140 LINE",
"0 44.849 OFFCURVE",
"75.822 0.245 OFFCURVE",
"157.661 0.245 CURVE SMOOTH",
"217.736 0.245 OFFCURVE",
"281.054 24.281 OFFCURVE",
"320 70 CURVE",
"292.196 58.314 OFFCURVE",
"247.829 48.414 OFFCURVE",
"204.762 48.414 CURVE SMOOTH",
"140.954 48.414 OFFCURVE",
"80 70.146 OFFCURVE",
"80 140 CURVE"
);
}
);
width = 360;
},
{
associatedMasterId = "56eb07b5-49f2-447c-9e4d-0a9cf23655fc";
layerId = "03a3df06-bc9c-4df5-8d4c-53a5dfe084e0";
name = Body;
width = 0;
}
);
},
{
glyphname = "alef-ar.3";
layers = (
{
hints = (
{
place = "{0, 80}";
type = Stem;
},
{
horizontal = 1;
place = "{0, 21}";
target = up;
type = BottomGhost;
}
);
layerId = "56eb07b5-49f2-447c-9e4d-0a9cf23655fc";
widthMetricsKey = "=80+40";
paths = (
{
closed = 1;
nodes = (
"-30 10 OFFCURVE",
"-10 0 OFFCURVE",
"11.962 0 CURVE SMOOTH",
"50 0 OFFCURVE",
"80 30 OFFCURVE",
"80 80 CURVE SMOOTH",
"80 560 LINE",
"0 540 LINE",
"0 70 LINE SMOOTH",
"0 40 OFFCURVE",
"-13 20 OFFCURVE",
"-40 20 CURVE"
);
}
);
width = 120;
},
{
associatedMasterId = "56eb07b5-49f2-447c-9e4d-0a9cf23655fc";
layerId = "03a3df06-bc9c-4df5-8d4c-53a5dfe084e0";
name = Body;
width = 0;
}
);
},
{
glyphname = "alef-ar.fina";
layers = (
{
hints = (
{
place = "{0, 80}";
type = Stem;
},
{
horizontal = 1;
place = "{0, 70}";
type = Stem;
}
);
layerId = "56eb07b5-49f2-447c-9e4d-0a9cf23655fc";
widthMetricsKey = "=80+40";
paths = (
{
closed = 1;
nodes = (
"80 560 LINE",
"0 540 LINE",
"0 40 LINE",
"0 15 OFFCURVE",
"15 0 OFFCURVE",
"38 0 CURVE",
"120 0 LINE",
"120 70 LINE",
"90 70 LINE",
"83 70 OFFCURVE",
"80 73 OFFCURVE",
"80 80 CURVE"
);
}
);
width = 120;
},
{
associatedMasterId = "56eb07b5-49f2-447c-9e4d-0a9cf23655fc";
layerId = "03a3df06-bc9c-4df5-8d4c-53a5dfe084e0";
name = Body;
width = 0;
}
);
},
{
glyphname = "behDotless-ar";
layers = (
{
anchors = (
{
name = bottom;
position = "{280, -75}";
},
{
name = top;
position = "{280, 300}";
}
);
hints = (
{
place = "{480, 80}";
type = Stem;
},
{
horizontal = 1;
place = "{0, 70}";
type = Stem;
}
);
layerId = "56eb07b5-49f2-447c-9e4d-0a9cf23655fc";
paths = (
{
closed = 1;
nodes = (
"480 210 LINE",
"480 70 LINE",
"100 70 LINE SMOOTH",
"79.844 70 OFFCURVE",
"63.184 75.474 OFFCURVE",
"52 90 CURVE",
"0 0 LINE",
"539 0 LINE",
"545 0 OFFCURVE",
"560 0 OFFCURVE",
"560 11 CURVE",
"560 230 LINE"
);
}
);
width = 600;
}
);
widthMetricsKey = "=560+40";
unicode = 066E;
},
{
glyphname = "behDotless-ar.init";
layers = (
{
anchors = (
{
name = bottom;
position = "{30, -75}";
},
{
name = top;
position = "{30, 300}";
}
);
hints = (
{
place = "{0, 80}";
type = Stem;
},
{
horizontal = 1;
place = "{0, 70}";
type = Stem;
}
);
layerId = "56eb07b5-49f2-447c-9e4d-0a9cf23655fc";
paths = (
{
closed = 1;
nodes = (
"0 210 LINE",
"0 70 LINE",
"-20 70 LINE",
"-20 0 LINE",
"59 0 LINE",
"65 0 OFFCURVE",
"80 0 OFFCURVE",
"80 11 CURVE",
"80 230 LINE"
);
}
);
width = 120;
}
);
widthMetricsKey = "=80+40";
},
{
glyphname = "behDotless-ar.init.hah";
layers = (
{
anchors = (
{
name = bottom;
position = "{30, -75}";
},
{
name = top;
position = "{30, 235}";
}
);
hints = (
{
place = "{0, 80}";
type = Stem;
},
{
horizontal = 1;
place = "{0, 25}";
type = Stem;
}
);
layerId = "56eb07b5-49f2-447c-9e4d-0a9cf23655fc";
paths = (
{
closed = 1;
nodes = (
"0 140 LINE",
"0 70 LINE SMOOTH",
"0 51.331 OFFCURVE",
"-0.2 25.365 OFFCURVE",
"-20 24.696 CURVE",
"-20 0 LINE",
"36.774 0 OFFCURVE",
"80 30.109 OFFCURVE",
"80 70 CURVE SMOOTH",
"80 160 LINE"
);
}
);
width = 80;
}
);
},
{
glyphname = "behDotless-ar.medi";
layers = (
{
components = (
{
alignment = -1;
name = "behDotless-ar.init";
}
);
hints = (
{
place = "{0, 80}";
type = Stem;
},
{
horizontal = 1;
place = "{0, 70}";
type = Stem;
}
);
layerId = "56eb07b5-49f2-447c-9e4d-0a9cf23655fc";
paths = (
{
closed = 1;
nodes = (
"80 110 LINE SMOOTH",
"80 88 OFFCURVE",
"98 70 OFFCURVE",
"120 70 CURVE",
"120 0 LINE",
"40 0 LINE",
"40 110 LINE"
);
}
);
width = 120;
}
);
widthMetricsKey = "=80+40";
},
{
glyphname = "behDotless-ar.high";
layers = (
{
components = (
{
alignment = -1;
name = "behDotless-ar.medi";
}
);
hints = (
{
place = "{0, 80}";
type = Stem;
},
{
horizontal = 1;
place = "{0, 70}";
type = Stem;
}
);
layerId = "56eb07b5-49f2-447c-9e4d-0a9cf23655fc";
paths = (
{
closed = 1;
nodes = (
"0 250 LINE",
"80 270 LINE",
"80 220 LINE",
"0 200 LINE"
);
}
);
width = 120;
}
);
widthMetricsKey = "=80+40";
},
{
glyphname = "behDotless-ar.high.1";
layers = (
{
anchors = (
{
name = bottom;
position = "{30, -75}";
},
{
name = top;
position = "{30, 300}";
}
);
hints = (
{
place = "{0, 80}";
type = Stem;
},
{
horizontal = 1;
place = "{0, 70}";
type = Stem;
}
);
layerId = "56eb07b5-49f2-447c-9e4d-0a9cf23655fc";
paths = (
{
closed = 1;
nodes = (
"0 240 LINE",
"80 260 LINE",
"80 210 LINE",
"0 190 LINE"
);
},
{
closed = 1;
nodes = (
"80 110 LINE SMOOTH",
"80 88 OFFCURVE",
"98 70 OFFCURVE",
"120 70 CURVE",
"120 0 LINE",
"40 0 LINE",
"40 110 LINE"
);
},
{
closed = 1;
nodes = (
"80 230 LINE",
"80 11 LINE",
"80 0 OFFCURVE",
"65 0 OFFCURVE",
"59 0 CURVE",
"-20 0 LINE",
"-20 70 LINE",
"0 70 LINE",
"0 210 LINE"
);
}
);
width = 120;
}
);
widthMetricsKey = "=80+40";
},
{
glyphname = "hah-ar";
layers = (
{
anchors = (
{
name = bottom;
position = "{410, -70}";
},
{
name = top;
position = "{410, 285}";
}
);
hints = (
{
horizontal = 1;
place = "{-110, 70}";
type = Stem;
},
{
horizontal = 1;
place = "{0, 70}";
type = Stem;
},
{
place = "{0, 80}";
type = Stem;
},
{
horizontal = 1;
place = "{0, 70}";
type = Stem;
}
);
layerId = "56eb07b5-49f2-447c-9e4d-0a9cf23655fc";
paths = (
{
closed = 1;
nodes = (
"90 70 LINE SMOOTH",
"40 70 OFFCURVE",
"0 30 OFFCURVE",
"0 -20 CURVE SMOOTH",
"0 -70 OFFCURVE",
"40 -110 OFFCURVE",
"90 -110 CURVE SMOOTH",
"495 -110 LINE",
"536 -40 LINE",
"100 -40 LINE SMOOTH",
"89 -40 OFFCURVE",
"80 -31 OFFCURVE",
"80 -20 CURVE SMOOTH",
"80 -9 OFFCURVE",
"89 0 OFFCURVE",
"100 0 CURVE SMOOTH",
"239.5 0 LINE",
"239.5 70 LINE"
);
},
{
closed = 1;
nodes = (
"600 70 LINE",
"220 70 LINE",
"220 0 LINE",
"559 0 LINE"
);
},
{
closed = 1;
nodes = (
"302.066 50 LINE",
"463 50 LINE",
"463 70 LINE",
"405.248 70 OFFCURVE",
"343.552 135.117 OFFCURVE",
"282.749 209.841 CURVE",
"240 140 LINE",
"258.911 111.75 OFFCURVE",
"286.601 83.162 OFFCURVE",
"302.066 70 CURVE"
);
}
);
width = 640;
}
);
widthMetricsKey = "=7.5*80+40";
unicode = 062D;
},
{
glyphname = "hah-ar.1";
layers = (
{
anchors = (
{
name = bottom;
position = "{410, -70}";
},
{
name = top;
position = "{410, 285}";
}
);
hints = (
{
horizontal = 1;
place = "{-110, 70}";
type = Stem;
},
{
horizontal = 1;
place = "{0, 70}";
type = Stem;
},
{
place = "{0, 80}";
type = Stem;
}
);
layerId = "56eb07b5-49f2-447c-9e4d-0a9cf23655fc";
paths = (
{
closed = 1;
nodes = (
"620 70 LINE",
"550 70 LINE",
"550 0 LINE",
"579 0 LINE"
);
},
{
closed = 1;
nodes = (
"600 70 LINE",
"220 70 LINE",
"220 0 LINE",
"559 0 LINE"
);
},
{
closed = 1;
nodes = (
"302.066 50 LINE",
"463 50 LINE",
"463 70 LINE",
"405.248 70 OFFCURVE",
"343.552 135.117 OFFCURVE",
"282.749 209.841 CURVE",
"240 140 LINE",
"258.911 111.75 OFFCURVE",
"286.601 83.162 OFFCURVE",
"302.066 70 CURVE"
);
},
{
closed = 1;
nodes = (
"90 70 LINE SMOOTH",
"40 70 OFFCURVE",
"0 30 OFFCURVE",
"0 -20 CURVE SMOOTH",
"0 -70 OFFCURVE",
"40 -110 OFFCURVE",
"90 -110 CURVE SMOOTH",
"495 -110 LINE",
"536 -40 LINE",
"100 -40 LINE SMOOTH",
"89 -40 OFFCURVE",
"80 -31 OFFCURVE",
"80 -20 CURVE SMOOTH",
"80 -9 OFFCURVE",
"89 0 OFFCURVE",
"100 0 CURVE SMOOTH",
"239.5 0 LINE",
"239.5 70 LINE"
);
},
{
closed = 1;
nodes = (
"556 -40 LINE",
"486 -40 LINE",
"486 -110 LINE",
"515 -110 LINE"
);
}
);
width = 660;
}
);
widthMetricsKey = "=7.75*80+40";
},
{
glyphname = "hah-ar.2";
layers = (
{
anchors = (
{
name = bottom;
position = "{410, -70}";
},
{
name = top;
position = "{410, 285}";
}
);
hints = (
{
horizontal = 1;
place = "{-110, 70}";
type = Stem;
},
{
horizontal = 1;
place = "{0, 70}";
type = Stem;
},
{
place = "{0, 80}";
type = Stem;
}
);
layerId = "56eb07b5-49f2-447c-9e4d-0a9cf23655fc";
paths = (
{
closed = 1;
nodes = (
"640 70 LINE",
"540 70 LINE",
"540 0 LINE",
"599 0 LINE"
);
},
{
closed = 1;
nodes = (
"600 70 LINE",
"220 70 LINE",
"220 0 LINE",
"559 0 LINE"
);
},
{
closed = 1;
nodes = (
"302.066 50 LINE",
"463 50 LINE",
"463 70 LINE",
"405.248 70 OFFCURVE",
"343.552 135.117 OFFCURVE",
"282.749 209.841 CURVE",
"240 140 LINE",
"258.911 111.75 OFFCURVE",
"286.601 83.162 OFFCURVE",
"302.066 70 CURVE"
);
},
{
closed = 1;
nodes = (
"90 70 LINE SMOOTH",
"40 70 OFFCURVE",
"0 30 OFFCURVE",
"0 -20 CURVE SMOOTH",
"0 -70 OFFCURVE",
"40 -110 OFFCURVE",
"90 -110 CURVE SMOOTH",
"495 -110 LINE",
"536 -40 LINE",
"100 -40 LINE SMOOTH",
"89 -40 OFFCURVE",
"80 -31 OFFCURVE",
"80 -20 CURVE SMOOTH",
"80 -9 OFFCURVE",
"89 0 OFFCURVE",
"100 0 CURVE SMOOTH",
"239.5 0 LINE",
"239.5 70 LINE"
);
},
{
closed = 1;
nodes = (
"576 -40 LINE",
"476 -40 LINE",
"476 -110 LINE",
"535 -110 LINE"
);
}
);
width = 680;
}
);
widthMetricsKey = "=8*80+40";
},
{
glyphname = "hah-ar.3";
layers = (
{
hints = (
{
place = "{0, 80}";
type = Stem;
},
{
horizontal = 1;
place = "{-250, 31}";
type = Stem;
},
{
horizontal = 1;
place = "{0, 70}";
type = Stem;
}
);
layerId = "56eb07b5-49f2-447c-9e4d-0a9cf23655fc";
paths = (
{
closed = 1;
nodes = (
"314.66 -215.466 OFFCURVE",
"280.392 -219.119 OFFCURVE",
"253.995 -219.119 CURVE SMOOTH",
"171.187 -219.119 OFFCURVE",
"79.812 -183.171 OFFCURVE",
"79.812 -92.829 CURVE SMOOTH",
"79.812 -26 OFFCURVE",
"129.812 0 OFFCURVE",
"169.971 0 CURVE",
"154.592 70 LINE",
"149.891 70 LINE",
"53.8 70 OFFCURVE",
"0.013 -7.997 OFFCURVE",
"0.013 -90.194 CURVE SMOOTH",
"0.013 -194.003 OFFCURVE",
"85.802 -250.094 OFFCURVE",
"198.61 -250.094 CURVE SMOOTH",
"241.812 -250.094 OFFCURVE",
"288.362 -241.609 OFFCURVE",
"363.812 -207 CURVE"
);
},
{
closed = 1;
nodes = (
"450 70 LINE",
"152 70 LINE",
"152 0 LINE",
"409 0 LINE"
);
},
{
closed = 1;
nodes = (
"152.066 50 LINE",
"313 50 LINE",
"313 70 LINE",
"255.248 70 OFFCURVE",
"193.552 135.117 OFFCURVE",
"132.749 209.841 CURVE",
"90 140 LINE",
"108.911 111.75 OFFCURVE",
"136.601 83.162 OFFCURVE",
"152.066 70 CURVE"
);
}
);
width = 490;
},
{
associatedMasterId = "56eb07b5-49f2-447c-9e4d-0a9cf23655fc";
layerId = "03a3df06-bc9c-4df5-8d4c-53a5dfe084e0";
name = Body;
width = 0;
}
);
},
{
glyphname = "hah-ar.fina";
layers = (
{
hints = (
{
place = "{0, 80}";
type = Stem;
},
{
horizontal = 1;
place = "{-250, 31}";
type = Stem;
},
{
horizontal = 1;
place = "{0, 70}";
type = Stem;
}
);
layerId = "56eb07b5-49f2-447c-9e4d-0a9cf23655fc";
widthMetricsKey = "=291+80";
paths = (
{
closed = 1;
nodes = (
"314.66 -215.466 OFFCURVE",
"280.392 -219.119 OFFCURVE",
"253.995 -219.119 CURVE SMOOTH",
"171.187 -219.119 OFFCURVE",
"79.812 -183.171 OFFCURVE",
"79.812 -92.829 CURVE SMOOTH",
"79.812 -26 OFFCURVE",
"129.812 0 OFFCURVE",
"169.971 0 CURVE",
"154.592 70 LINE",
"149.891 70 LINE",
"53.8 70 OFFCURVE",
"0.013 -7.997 OFFCURVE",
"0.013 -90.194 CURVE SMOOTH",
"0.013 -194.003 OFFCURVE",
"85.802 -250.094 OFFCURVE",
"198.61 -250.094 CURVE SMOOTH",
"241.812 -250.094 OFFCURVE",
"288.362 -241.609 OFFCURVE",
"363.812 -207 CURVE"
);
},
{
closed = 1;
nodes = (
"371.049 70 LINE",
"150.049 70 LINE",
"150.049 0 LINE",
"371.049 0 LINE"
);
},
{
closed = 1;
nodes = (
"179.094 230 LINE",
"119.812 172.679 LINE",
"311.408 -159.846 LINE",
"370.69 -102.526 LINE"
);
}
);
width = 371;
},
{
associatedMasterId = "56eb07b5-49f2-447c-9e4d-0a9cf23655fc";
layerId = "03a3df06-bc9c-4df5-8d4c-53a5dfe084e0";
name = Body;
width = 0;
}
);
},
{
glyphname = "hah-ar.init";
layers = (
{
associatedMasterId = "56eb07b5-49f2-447c-9e4d-0a9cf23655fc";
layerId = "c6d1e3fe-698d-4cee-8712-cd7619070a02";
name = Background;
paths = (
{
closed = 1;
nodes = (
"70 70 LINE",
"0 140 LINE",
"42.749 209.841 LINE",
"182.958 70 LINE"
);
}
);
width = 400;
},
{
anchors = (
{
name = bottom;
position = "{170, -70}";
},
{
name = top;
position = "{170, 285}";
}
);
hints = (
{
horizontal = 1;
place = "{0, 70}";
type = Stem;
}
);
layerId = "56eb07b5-49f2-447c-9e4d-0a9cf23655fc";
paths = (
{
closed = 1;
nodes = (
"360 70 LINE",
"-20 70 LINE",
"-20 0 LINE",
"319 0 LINE"
);
},
{
closed = 1;
nodes = (
"62.066 50 LINE",
"223 50 LINE",
"223 70 LINE",
"165.248 70 OFFCURVE",
"103.552 135.117 OFFCURVE",
"42.749 209.841 CURVE",
"0 140 LINE",
"18.911 111.75 OFFCURVE",
"46.601 83.162 OFFCURVE",
"62.066 70 CURVE"
);
}
);
width = 400;
}
);
leftKerningGroup = "hah-ar.init";
widthMetricsKey = "=4.5*80+40";
rightKerningGroup = "meem-ar.medi";
},
{
glyphname = "hah-ar.init.1";
layers = (
{
associatedMasterId = "56eb07b5-49f2-447c-9e4d-0a9cf23655fc";
layerId = "c6d1e3fe-698d-4cee-8712-cd7619070a02";
name = Background;
paths = (
{
closed = 1;
nodes = (
"70 70 LINE",
"0 140 LINE",
"42.749 209.841 LINE",
"182.958 70 LINE"
);
}
);
width = 400;
},
{
anchors = (
{
name = bottom;
position = "{170, -70}";
},
{
name = top;
position = "{170, 285}";
}
);
hints = (
{
horizontal = 1;
place = "{0, 70}";
type = Stem;
},
{
horizontal = 1;
place = "{0, 70}";
type = Stem;
}
);
layerId = "56eb07b5-49f2-447c-9e4d-0a9cf23655fc";
paths = (
{
closed = 1;
nodes = (
"380 70 LINE",
"310 70 LINE",
"310 0 LINE",
"339 0 LINE"
);
},
{
closed = 1;
nodes = (
"360 70 LINE",
"-20 70 LINE",
"-20 0 LINE",
"319 0 LINE"
);
},
{
closed = 1;
nodes = (
"62.066 50 LINE",
"223 50 LINE",
"223 70 LINE",
"165.248 70 OFFCURVE",
"103.552 135.117 OFFCURVE",
"42.749 209.841 CURVE",
"0 140 LINE",
"18.911 111.75 OFFCURVE",
"46.601 83.162 OFFCURVE",
"62.066 70 CURVE"
);
}
);
width = 420;
}
);
widthMetricsKey = "=4.75*80+40";
},
{
glyphname = "hah-ar.init.2";
layers = (
{
anchors = (
{
name = bottom;
position = "{170, -70}";
},
{
name = top;
position = "{170, 285}";
}
);
hints = (
{
horizontal = 1;
place = "{0, 70}";
type = Stem;
},
{
horizontal = 1;
place = "{0, 70}";
type = Stem;
}
);
layerId = "56eb07b5-49f2-447c-9e4d-0a9cf23655fc";
paths = (
{
closed = 1;
nodes = (
"400 70 LINE",
"300 70 LINE",
"300 0 LINE",
"359 0 LINE"
);
},
{
closed = 1;
nodes = (
"360 70 LINE",
"-20 70 LINE",
"-20 0 LINE",
"319 0 LINE"
);
},
{
closed = 1;
nodes = (
"62.066 50 LINE",
"223 50 LINE",
"223 70 LINE",
"165.248 70 OFFCURVE",
"103.552 135.117 OFFCURVE",
"42.749 209.841 CURVE",
"0 140 LINE",
"18.911 111.75 OFFCURVE",
"46.601 83.162 OFFCURVE",
"62.066 70 CURVE"
);
}
);
width = 440;
}
);
widthMetricsKey = "=5*80+40";
},
{
glyphname = "hah-ar.medi";
layers = (
{
anchors = (
{
name = bottom;
position = "{116, -235}";
},
{
name = top;
position = "{116, 305}";
}
);
hints = (
{
horizontal = 1;
place = "{0, 70}";
type = Stem;
}
);
layerId = "56eb07b5-49f2-447c-9e4d-0a9cf23655fc";
paths = (
{
closed = 1;
nodes = (
"81.237 70 LINE",
"-19.763 70 LINE",
"-19.763 0 LINE",
"81.237 0 LINE"
);
},
{
closed = 1;
nodes = (
"251.237 70 LINE",
"30.237 70 LINE",
"30.237 0 LINE",
"251.237 0 LINE"
);
},
{
closed = 1;
nodes = (
"59.282 230 LINE",
"0 172.679 LINE",
"191.596 -159.846 LINE",
"250.878 -102.526 LINE"
);
}
);
width = 191;
},
{
associatedMasterId = "56eb07b5-49f2-447c-9e4d-0a9cf23655fc";
layerId = "03a3df06-bc9c-4df5-8d4c-53a5dfe084e0";
name = Body;
width = 0;
}
);
},
{
glyphname = "dal-ar";
layers = (
{
anchors = (
{
name = top;
position = "{280, 325}";
}
);
hints = (
{
horizontal = 1;
place = "{0, 70}";
type = Stem;
},
{
horizontal = 1;
place = "{110, 70}";
type = Stem;
},
{
place = "{476, 84}";
type = Stem;
}
);
layerId = "56eb07b5-49f2-447c-9e4d-0a9cf23655fc";
widthMetricsKey = "=7*80+40";
paths = (
{
closed = 1;
nodes = (
"120 180 LINE",
"147 250 LINE",
"144.4 250 LINE",
"63.5 110 LINE",
"436 110 LINE SMOOTH",
"458 110 OFFCURVE",
"476 92 OFFCURVE",
"476 70 CURVE",
"40.4 70 LINE",
"0 0 LINE",
"539 0 LINE SMOOTH",
"545 0 OFFCURVE",
"560 0 OFFCURVE",
"560 21 CURVE",
"560 160 OFFCURVE",
"490 180 OFFCURVE",
"446 180 CURVE SMOOTH"
);
}
);
width = 600;
},
{
associatedMasterId = "56eb07b5-49f2-447c-9e4d-0a9cf23655fc";
layerId = "03a3df06-bc9c-4df5-8d4c-53a5dfe084e0";
name = Body;
width = 0;
}
);
unicode = 062F;
},
{
glyphname = "dal-ar.fina";
layers = (
{
anchors = (
{
name = top;
position = "{280, 325}";
}
);
hints = (
{
horizontal = 1;
place = "{0, 70}";
type = Stem;
},
{
horizontal = 1;
place = "{110, 70}";
type = Stem;
},
{
place = "{476, 84}";
type = Stem;
}
);
layerId = "56eb07b5-49f2-447c-9e4d-0a9cf23655fc";
paths = (
{
closed = 1;
nodes = (
"120 180 LINE",
"147 250 LINE",
"144.4 250 LINE",
"63.5 110 LINE",
"436 110 LINE SMOOTH",
"458 110 OFFCURVE",
"476 92 OFFCURVE",
"476 70 CURVE",
"40.4 70 LINE",
"0 0 LINE",
"539 0 LINE SMOOTH",
"545 0 OFFCURVE",
"560 0 OFFCURVE",
"560 21 CURVE",
"560 160 OFFCURVE",
"490 180 OFFCURVE",
"446 180 CURVE SMOOTH"
);
},
{
closed = 1;
nodes = (
"600.237 70 LINE",
"499.237 70 LINE",
"499.237 0 LINE",
"600.237 0 LINE"
);
}
);
width = 600;
}
);
widthMetricsKey = "=7*80+40";
},
{
glyphname = "reh-ar";
layers = (
{
anchors = (
{
name = top;
position = "{117, 215}";
}
);
hints = (
{
horizontal = 1;
place = "{-110, 70}";
type = Stem;
},
{
horizontal = 1;
place = "{0, 140}";
type = Stem;
}
);
layerId = "56eb07b5-49f2-447c-9e4d-0a9cf23655fc";
paths = (
{
closed = 1;
nodes = (
"0.5 0 LINE",
"173 0 LINE SMOOTH",
"195 0 OFFCURVE",
"213 -18 OFFCURVE",
"213 -40 CURVE",
"-22.6 -40 LINE",
"-63 -110 LINE",
"276 -110 LINE SMOOTH",
"282 -110 OFFCURVE",
"297 -110 OFFCURVE",
"297 -89 CURVE",
"297 50 OFFCURVE",
"228.195 92.87 OFFCURVE",
"81.4 140 CURVE"
);
}
);
width = 312;
},
{
associatedMasterId = "56eb07b5-49f2-447c-9e4d-0a9cf23655fc";
layerId = "03a3df06-bc9c-4df5-8d4c-53a5dfe084e0";
name = Body;
width = 0;
}
);
unicode = 0631;
},
{
glyphname = "reh-ar.1";
layers = (
{
anchors = (
{
name = top;
position = "{117, 180}";
}
);
hints = (
{
horizontal = 1;
place = "{-110, 70}";
type = Stem;
},
{
horizontal = 1;
place = "{0, 105}";
type = Stem;
}
);
layerId = "56eb07b5-49f2-447c-9e4d-0a9cf23655fc";
paths = (
{
closed = 1;
nodes = (
"0.5 0 LINE",
"173 0 LINE SMOOTH",
"195 0 OFFCURVE",
"213 -18 OFFCURVE",
"213 -40 CURVE",
"-22.6 -40 LINE",
"-63 -110 LINE",
"276 -110 LINE SMOOTH",
"282 -110 OFFCURVE",
"297 -110 OFFCURVE",
"297 -89 CURVE",
"297 50 OFFCURVE",
"228.998 96.339 OFFCURVE",
"61 105 CURVE"
);
}
);
width = 312;
},
{
associatedMasterId = "56eb07b5-49f2-447c-9e4d-0a9cf23655fc";
layerId = "03a3df06-bc9c-4df5-8d4c-53a5dfe084e0";
name = Body;
width = 0;
}
);
},
{
glyphname = "reh-ar.fina";
layers = (
{
anchors = (
{
name = top;
position = "{117, 215}";
}
);
hints = (
{
horizontal = 1;
place = "{-110, 70}";
type = Stem;
},
{
horizontal = 1;
place = "{0, 140}";
type = Stem;
},
{
horizontal = 1;
place = "{0, 70}";
type = Stem;
}
);
layerId = "56eb07b5-49f2-447c-9e4d-0a9cf23655fc";
paths = (
{
closed = 1;
nodes = (
"0.5 0 LINE",
"173 0 LINE SMOOTH",
"195 0 OFFCURVE",
"213 -18 OFFCURVE",
"213 -40 CURVE",
"-22.6 -40 LINE",
"-63 -110 LINE",
"276 -110 LINE SMOOTH",
"282 -110 OFFCURVE",
"297 -110 OFFCURVE",
"297 -89 CURVE",
"297 50 OFFCURVE",
"228.195 92.87 OFFCURVE",
"81.4 140 CURVE"
);
},
{
closed = 1;
nodes = (
"283 70 LINE",
"193 70 LINE",
"193 0 LINE",
"283 0 LINE"
);
}
);
width = 283;
}
);
widthMetricsKey = "=4.5*80-77";
},
{
glyphname = "reh-ar.fina.1";
layers = (
{
anchors = (
{
name = top;
position = "{117, 180}";
}
);
hints = (
{
horizontal = 1;
place = "{-110, 70}";
type = Stem;
},
{
horizontal = 1;
place = "{0, 105}";
type = Stem;
},
{
horizontal = 1;
place = "{0, 70}";
type = Stem;
}
);
layerId = "56eb07b5-49f2-447c-9e4d-0a9cf23655fc";
paths = (
{
closed = 1;
nodes = (
"0.5 0 LINE",
"173 0 LINE SMOOTH",
"195 0 OFFCURVE",
"213 -18 OFFCURVE",
"213 -40 CURVE",
"-22.6 -40 LINE",
"-63 -110 LINE",
"276 -110 LINE SMOOTH",
"282 -110 OFFCURVE",
"297 -110 OFFCURVE",
"297 -89 CURVE",
"297 50 OFFCURVE",
"228.998 96.339 OFFCURVE",
"61 105 CURVE"
);
},
{
closed = 1;
nodes = (
"283 70 LINE",
"193 70 LINE",
"193 0 LINE",
"283 0 LINE"
);
}
);
width = 283;
}
);
widthMetricsKey = "=4.5*80-77";
},
{
glyphname = "seen-ar";
layers = (
{
anchors = (
{
name = bottom;
position = "{300, -75}";
},
{
name = top;
position = "{300, 300}";
}
);
hints = (
{
place = "{150, 80}";
type = Stem;
},
{
place = "{270, 80}";
type = Stem;
},
{
place = "{390, 80}";
type = Stem;
},
{
horizontal = 1;
place = "{-250, 70}";
type = Stem;
},
{
horizontal = 1;
place = "{0, 70}";
type = Stem;
}
);
layerId = "56eb07b5-49f2-447c-9e4d-0a9cf23655fc";
paths = (
{
closed = 1;
nodes = (
"390 210 LINE",
"390 70 LINE",
"370 70 LINE",
"370 0 LINE",
"449 0 LINE",
"455 0 OFFCURVE",
"470 0 OFFCURVE",
"470 11 CURVE",
"470 230 LINE"
);
},
{
closed = 1;
nodes = (
"310 110 LINE",
"310 0 LINE",
"390 0 LINE",
"390 70 LINE",
"368 70 OFFCURVE",
"350 88 OFFCURVE",
"350 110 CURVE SMOOTH"
);
},
{
closed = 1;
nodes = (
"270 210 LINE",
"270 70 LINE",
"250 70 LINE",
"250 0 LINE",
"329 0 LINE",
"335 0 OFFCURVE",
"350 0 OFFCURVE",
"350 11 CURVE",
"350 230 LINE"
);
},
{
closed = 1;
nodes = (
"190 110 LINE",
"190 0 LINE",
"270 0 LINE",
"270 70 LINE",
"248 70 OFFCURVE",
"230 88 OFFCURVE",
"230 110 CURVE"
);
},
{
closed = 1;
nodes = (
"192 -250 LINE",
"215 -250 OFFCURVE",
"230 -235 OFFCURVE",
"230 -210 CURVE SMOOTH",
"230 230 LINE",
"150 210 LINE",
"150 -180 LINE",
"50 -180 LINE",
"29.847 -180 OFFCURVE",
"13.184 -174.526 OFFCURVE",
"2 -160 CURVE",
"-50 -250 LINE"
);
}
);
width = 510;
}
);
unicode = 0633;
},
{
glyphname = "seen-ar.1";
layers = (
{
anchors = (
{
name = bottom;
position = "{300, -75}";
},
{
name = top;
position = "{300, 300}";
}
);
hints = (
{
place = "{150, 80}";
type = Stem;
},
{
place = "{270, 80}";
type = Stem;
},
{
place = "{390, 80}";
type = Stem;
},
{
horizontal = 1;
place = "{-250, 70}";
type = Stem;
},
{
horizontal = 1;
place = "{0, 70}";
type = Stem;
}
);
layerId = "56eb07b5-49f2-447c-9e4d-0a9cf23655fc";
paths = (
{
closed = 1;
nodes = (
"390 230 LINE",
"470 250 LINE",
"470 200 LINE",
"390 180 LINE"
);
},
{
closed = 1;
nodes = (
"270 230 LINE",
"350 250 LINE",
"350 200 LINE",
"270 180 LINE"
);
},
{
closed = 1;
nodes = (
"150 230 LINE",
"230 250 LINE",
"230 200 LINE",
"150 180 LINE"
);
},
{
closed = 1;
nodes = (
"470 230 LINE",
"470 11 LINE",
"470 0 OFFCURVE",
"455 0 OFFCURVE",
"449 0 CURVE",
"370 0 LINE",
"370 70 LINE",
"390 70 LINE",
"390 210 LINE"
);
},
{
closed = 1;
nodes = (
"350 110 LINE SMOOTH",
"350 88 OFFCURVE",
"368 70 OFFCURVE",
"390 70 CURVE",
"390 0 LINE",
"310 0 LINE",
"310 110 LINE"
);
},
{
closed = 1;
nodes = (
"350 230 LINE",
"350 11 LINE",
"350 0 OFFCURVE",
"335 0 OFFCURVE",
"329 0 CURVE",
"250 0 LINE",
"250 70 LINE",
"270 70 LINE",
"270 210 LINE"
);
},
{
closed = 1;
nodes = (
"230 110 LINE",
"230 88 OFFCURVE",
"248 70 OFFCURVE",
"270 70 CURVE",
"270 0 LINE",
"190 0 LINE",
"190 110 LINE"
);
},
{
closed = 1;
nodes = (
"-50 -250 LINE",
"2 -160 LINE",
"13.184 -174.526 OFFCURVE",
"29.847 -180 OFFCURVE",
"50 -180 CURVE",
"150 -180 LINE",
"150 210 LINE",
"230 230 LINE",
"230 -210 LINE SMOOTH",
"230 -235 OFFCURVE",
"215 -250 OFFCURVE",
"192 -250 CURVE"
);
}
);
width = 510;
}
);
widthMetricsKey = "=280+(80*3)+(40*2)-50-40";
},
{
glyphname = "seen-ar.2";
layers = (
{
anchors = (
{
name = bottom;
position = "{300, -75}";
},
{
name = top;
position = "{300, 300}";
}
);
hints = (
{
place = "{150, 80}";
type = Stem;
},
{
place = "{270, 80}";
type = Stem;
},
{
place = "{390, 80}";
type = Stem;
},
{
horizontal = 1;
place = "{-250, 70}";
type = Stem;
},
{
horizontal = 1;
place = "{0, 70}";
type = Stem;
}
);
layerId = "56eb07b5-49f2-447c-9e4d-0a9cf23655fc";
paths = (
{
closed = 1;
nodes = (
"390 210 LINE",
"390 70 LINE",
"370 70 LINE",
"370 0 LINE",
"449 0 LINE",
"455 0 OFFCURVE",
"470 0 OFFCURVE",
"470 11 CURVE",
"470 230 LINE"
);
},
{
closed = 1;
nodes = (
"310 110 LINE",
"310 0 LINE",
"390 0 LINE",
"390 70 LINE",
"368 70 OFFCURVE",
"350 88 OFFCURVE",
"350 110 CURVE SMOOTH"
);
},
{
closed = 1;
nodes = (
"270 210 LINE",
"270 70 LINE",
"250 70 LINE",
"250 0 LINE",
"329 0 LINE",
"335 0 OFFCURVE",
"350 0 OFFCURVE",
"350 11 CURVE",
"350 230 LINE"
);
},
{
closed = 1;
nodes = (
"190 110 LINE",
"190 0 LINE",
"270 0 LINE",
"270 70 LINE",
"248 70 OFFCURVE",
"230 88 OFFCURVE",
"230 110 CURVE"
);
},
{
closed = 1;
nodes = (
"192 -250 LINE",
"215 -250 OFFCURVE",
"230 -235 OFFCURVE",
"230 -210 CURVE SMOOTH",
"230 230 LINE",
"150 210 LINE",
"150 -180 LINE",
"50 -180 LINE",
"29.847 -180 OFFCURVE",
"13.184 -174.526 OFFCURVE",
"2 -160 CURVE",
"-50 -250 LINE"
);
},
{
closed = 1;
nodes = (
"390 200 LINE",
"470 220 LINE",
"470 270 LINE",
"390 250 LINE"
);
},
{
closed = 1;
nodes = (
"270 200 LINE",
"350 220 LINE",
"350 270 LINE",
"270 250 LINE"
);
},
{
closed = 1;
nodes = (
"150 200 LINE",
"230 220 LINE",
"230 270 LINE",
"150 250 LINE"
);
}
);
width = 510;
}
);
widthMetricsKey = "=280+(80*3)+(40*2)-90";
},
{
glyphname = "seen-ar.3";
layers = (
{
anchors = (
{
name = bottom;
position = "{420, -75}";
},
{
name = top;
position = "{420, 300}";
}
);
hints = (
{
place = "{150, 80}";
type = Stem;
},
{
place = "{270, 80}";
type = Stem;
},
{
place = "{390, 80}";
type = Stem;
},
{
horizontal = 1;
place = "{-250, 70}";
type = Stem;
},
{
horizontal = 1;
place = "{0, 70}";
type = Stem;
},
{
place = "{390, 80}";
type = Stem;
}
);
layerId = "56eb07b5-49f2-447c-9e4d-0a9cf23655fc";
paths = (
{
closed = 1;
nodes = (
"390 250 LINE",
"470 270 LINE",
"470 220 LINE",
"390 200 LINE"
);
},
{
closed = 1;
nodes = (
"270 220 LINE",
"350 240 LINE",
"350 190 LINE",
"270 170 LINE"
);
},
{
closed = 1;
nodes = (
"230 110 LINE",
"230 88 OFFCURVE",
"248 70 OFFCURVE",
"270 70 CURVE",
"270 0 LINE",
"190 0 LINE",
"190 110 LINE"
);
},
{
closed = 1;
nodes = (
"-50 -250 LINE",
"2 -160 LINE",
"13.184 -174.526 OFFCURVE",
"29.847 -180 OFFCURVE",
"50 -180 CURVE",
"150 -180 LINE",
"150 190 LINE",
"230 210 LINE",
"230 -210 LINE SMOOTH",
"230 -235 OFFCURVE",
"215 -250 OFFCURVE",
"192 -250 CURVE SMOOTH"
);
},
{
closed = 1;
nodes = (
"350 110 LINE SMOOTH",
"350 88 OFFCURVE",
"368 70 OFFCURVE",
"390 70 CURVE",
"390 0 LINE",
"310 0 LINE",
"310 110 LINE"
);
},
{
closed = 1;
nodes = (
"350 230 LINE",
"350 11 LINE",
"350 0 OFFCURVE",
"335 0 OFFCURVE",
"329 0 CURVE",
"250 0 LINE",
"250 70 LINE",
"270 70 LINE",
"270 210 LINE"
);
},
{
closed = 1;
nodes = (
"470 230 LINE",
"470 11 LINE",
"470 0 OFFCURVE",
"455 0 OFFCURVE",
"449 0 CURVE",
"370 0 LINE",
"370 70 LINE",
"390 70 LINE",
"390 210 LINE"
);
}
);
width = 510;
}
);
widthMetricsKey = "=280+(80*3)+(40*2)-50-40";
},
{
glyphname = "seen-ar.4";
layers = (
{
anchors = (
{
name = bottom;
position = "{420, -75}";
},
{
name = top;
position = "{420, 300}";
}
);
hints = (
{
place = "{150, 80}";
type = Stem;
},
{
place = "{270, 80}";
type = Stem;
},
{
place = "{390, 80}";
type = Stem;
},
{
horizontal = 1;
place = "{-250, 70}";
type = Stem;
},
{
horizontal = 1;
place = "{0, 70}";
type = Stem;
}
);
layerId = "56eb07b5-49f2-447c-9e4d-0a9cf23655fc";
paths = (
{
closed = 1;
nodes = (
"390 250 LINE",
"470 270 LINE",
"470 220 LINE",
"390 200 LINE"
);
},
{
closed = 1;
nodes = (
"270 220 LINE",
"350 240 LINE",
"350 190 LINE",
"270 170 LINE"
);
},
{
closed = 1;
nodes = (
"230 110 LINE",
"230 88 OFFCURVE",
"248 70 OFFCURVE",
"270 70 CURVE",
"270 0 LINE",
"190 0 LINE",
"190 110 LINE"
);
},
{
closed = 1;
nodes = (
"-50 -250 LINE",
"2 -160 LINE",
"13.184 -174.526 OFFCURVE",
"29.847 -180 OFFCURVE",
"50 -180 CURVE",
"150 -180 LINE",
"150 190 LINE",
"230 210 LINE",
"230 -210 LINE SMOOTH",
"230 -235 OFFCURVE",
"215 -250 OFFCURVE",
"192 -250 CURVE SMOOTH"
);
},
{
closed = 1;
nodes = (
"350 110 LINE SMOOTH",
"350 88 OFFCURVE",
"368 70 OFFCURVE",
"390 70 CURVE",
"390 0 LINE",
"310 0 LINE",
"310 110 LINE"
);
},
{
closed = 1;
nodes = (
"350 230 LINE",
"350 11 LINE",
"350 0 OFFCURVE",
"335 0 OFFCURVE",
"329 0 CURVE",
"250 0 LINE",
"250 70 LINE",
"270 70 LINE",
"270 210 LINE"
);
},
{
closed = 1;
nodes = (
"470 230 LINE",
"470 11 LINE",
"470 0 OFFCURVE",
"455 0 OFFCURVE",
"449 0 CURVE",
"370 0 LINE",
"370 70 LINE",
"390 70 LINE",
"390 210 LINE"
);
},
{
closed = 1;
nodes = (
"390 270 LINE",
"470 290 LINE",
"470 240 LINE",
"390 220 LINE"
);
},
{
closed = 1;
nodes = (
"270 240 LINE",
"350 260 LINE",
"350 210 LINE",
"270 190 LINE"
);
},
{
closed = 1;
nodes = (
"150 210 LINE",
"230 230 LINE",
"230 180 LINE",
"150 160 LINE"
);
}
);
width = 510;
}
);
widthMetricsKey = "=280+(80*3)+(40*2)-90";
},
{
glyphname = "seen-ar.5";
layers = (
{
anchors = (
{
name = bottom;
position = "{420, -75}";
},
{
name = top;
position = "{420, 300}";
}
);
hints = (
{
place = "{150, 80}";
type = Stem;
},
{
place = "{270, 80}";
type = Stem;
},
{
place = "{390, 80}";
type = Stem;
},
{
horizontal = 1;
place = "{-250, 70}";
type = Stem;
},
{
horizontal = 1;
place = "{0, 70}";
type = Stem;
}
);
layerId = "56eb07b5-49f2-447c-9e4d-0a9cf23655fc";
paths = (
{
closed = 1;
nodes = (
"390 250 LINE",
"470 270 LINE",
"470 220 LINE",
"390 200 LINE"
);
},
{
closed = 1;
nodes = (
"270 220 LINE",
"350 240 LINE",
"350 190 LINE",
"270 170 LINE"
);
},
{
closed = 1;
nodes = (
"230 110 LINE",
"230 88 OFFCURVE",
"248 70 OFFCURVE",
"270 70 CURVE",
"270 0 LINE",
"190 0 LINE",
"190 110 LINE"
);
},
{
closed = 1;
nodes = (
"-50 -250 LINE",
"2 -160 LINE",
"13.184 -174.526 OFFCURVE",
"29.847 -180 OFFCURVE",
"50 -180 CURVE",
"150 -180 LINE",
"150 190 LINE",
"230 210 LINE",
"230 -210 LINE SMOOTH",
"230 -235 OFFCURVE",
"215 -250 OFFCURVE",
"192 -250 CURVE SMOOTH"
);
},
{
closed = 1;
nodes = (
"350 110 LINE SMOOTH",
"350 88 OFFCURVE",
"368 70 OFFCURVE",
"390 70 CURVE",
"390 0 LINE",
"310 0 LINE",
"310 110 LINE"
);
},
{
closed = 1;
nodes = (
"350 230 LINE",
"350 11 LINE",
"350 0 OFFCURVE",
"335 0 OFFCURVE",
"329 0 CURVE",
"250 0 LINE",
"250 70 LINE",
"270 70 LINE",
"270 210 LINE"
);
},
{
closed = 1;
nodes = (
"470 230 LINE",
"470 11 LINE",
"470 0 OFFCURVE",
"455 0 OFFCURVE",
"449 0 CURVE",
"370 0 LINE",
"370 70 LINE",
"390 70 LINE",
"390 210 LINE"
);
},
{
closed = 1;
nodes = (
"390 290 LINE",
"470 310 LINE",
"470 260 LINE",
"390 240 LINE"
);
},
{
closed = 1;
nodes = (
"270 260 LINE",
"350 280 LINE",
"350 230 LINE",
"270 210 LINE"
);
},
{
closed = 1;
nodes = (
"150 230 LINE",
"230 250 LINE",
"230 200 LINE",
"150 180 LINE"
);
}
);
width = 510;
}
);
widthMetricsKey = "=280+(80*3)+(40*2)-90";
},
{
glyphname = "seen-ar.6";
layers = (
{
anchors = (
{
name = top;
position = "{251, 252}";
}
);
hints = (
{
place = "{150, 80}";
type = Stem;
},
{
place = "{331, 80}";
type = Stem;
},
{
horizontal = 1;
place = "{-250, 70}";
type = Stem;
},
{
horizontal = 1;
place = "{0, 70}";
type = Stem;
}
);
layerId = "56eb07b5-49f2-447c-9e4d-0a9cf23655fc";
widthMetricsKey = "=(80*3)+(40*2)+131";
paths = (
{
closed = 1;
nodes = (
"381.113 70 LINE",
"160.113 70 LINE",
"160.113 0 LINE",
"381.113 0 LINE"
);
},
{
closed = 1;
nodes = (
"261.027 140.038 LINE",
"203.313 40 LINE",
"361.013 40 LINE"
);
},
{
closed = 1;
nodes = (
"331.113 157.417 LINE",
"331.113 70 LINE",
"311.113 70 LINE",
"311.113 0 LINE",
"390.113 0 LINE SMOOTH",
"396.113 0 OFFCURVE",
"411.113 0 OFFCURVE",
"411.113 11 CURVE SMOOTH",
"411.113 177.417 LINE"
);
},
{
closed = 1;
nodes = (
"-50 -250 LINE",
"192 -250 LINE SMOOTH",
"215 -250 OFFCURVE",
"230 -235 OFFCURVE",
"230 -210 CURVE SMOOTH",
"230 60 LINE",
"150 60 LINE",
"150 -180 LINE",
"50 -180 LINE",
"29.847 -180 OFFCURVE",
"13.184 -174.526 OFFCURVE",
"2 -160 CURVE"
);
},
{
closed = 1;
nodes = (
"110.1 70 LINE",
"182.142 -2.028 LINE",
"250.513 40 LINE",
"150.527 140.038 LINE"
);
}
);
width = 451;
},
{
associatedMasterId = "56eb07b5-49f2-447c-9e4d-0a9cf23655fc";
layerId = "03a3df06-bc9c-4df5-8d4c-53a5dfe084e0";
name = Body;
width = 0;
}
);
},
{
glyphname = "seen-ar.fina";
layers = (
{
anchors = (
{
name = bottom;
position = "{300, -75}";
},
{
name = top;
position = "{300, 300}";
}
);
hints = (
{
place = "{150, 80}";
type = Stem;
},
{
place = "{270, 80}";
type = Stem;
},
{
place = "{390, 80}";
type = Stem;
},
{
horizontal = 1;
place = "{-250, 70}";
type = Stem;
},
{
horizontal = 1;
place = "{0, 70}";
type = Stem;
}
);
layerId = "56eb07b5-49f2-447c-9e4d-0a9cf23655fc";
paths = (
{
closed = 1;
nodes = (
"390 210 LINE",
"390 70 LINE",
"370 70 LINE",
"370 0 LINE",
"449 0 LINE",
"455 0 OFFCURVE",
"470 0 OFFCURVE",
"470 11 CURVE",
"470 230 LINE"
);
},
{
closed = 1;
nodes = (
"310 110 LINE",
"310 0 LINE",
"390 0 LINE",
"390 70 LINE",
"368 70 OFFCURVE",
"350 88 OFFCURVE",
"350 110 CURVE SMOOTH"
);
},
{
closed = 1;
nodes = (
"270 210 LINE",
"270 70 LINE",
"250 70 LINE",
"250 0 LINE",
"329 0 LINE",
"335 0 OFFCURVE",
"350 0 OFFCURVE",
"350 11 CURVE",
"350 230 LINE"
);
},
{
closed = 1;
nodes = (
"190 110 LINE",
"190 0 LINE",
"270 0 LINE",
"270 70 LINE",
"248 70 OFFCURVE",
"230 88 OFFCURVE",
"230 110 CURVE"
);
},
{
closed = 1;
nodes = (
"192 -250 LINE",
"215 -250 OFFCURVE",
"230 -235 OFFCURVE",
"230 -210 CURVE SMOOTH",
"230 230 LINE",
"150 210 LINE",
"150 -180 LINE",
"50 -180 LINE",
"29.847 -180 OFFCURVE",
"13.184 -174.526 OFFCURVE",
"2 -160 CURVE",
"-50 -250 LINE"
);
},
{
closed = 1;
nodes = (
"430 110 LINE",
"430 0 LINE",
"510 0 LINE",
"510 70 LINE",
"488 70 OFFCURVE",
"470 88 OFFCURVE",
"470 110 CURVE"
);
}
);
width = 510;
}
);
widthMetricsKey = "=280+(80*3)+(40*2)-50-40";
},
{
glyphname = "seen-ar.fina.1";
layers = (
{
anchors = (
{
name = bottom;
position = "{300, -75}";
},
{
name = top;
position = "{300, 300}";
}
);
hints = (
{
place = "{150, 80}";
type = Stem;
},
{
place = "{270, 80}";
type = Stem;
},
{
place = "{390, 80}";
type = Stem;
},
{
horizontal = 1;
place = "{-250, 70}";
type = Stem;
},
{
horizontal = 1;
place = "{0, 70}";
type = Stem;
}
);
layerId = "56eb07b5-49f2-447c-9e4d-0a9cf23655fc";
paths = (
{
closed = 1;
nodes = (
"390 230 LINE",
"470 250 LINE",
"470 200 LINE",
"390 180 LINE"
);
},
{
closed = 1;
nodes = (
"270 230 LINE",
"350 250 LINE",
"350 200 LINE",
"270 180 LINE"
);
},
{
closed = 1;
nodes = (
"150 230 LINE",
"230 250 LINE",
"230 200 LINE",
"150 180 LINE"
);
},
{
closed = 1;
nodes = (
"470 230 LINE",
"470 11 LINE",
"470 0 OFFCURVE",
"455 0 OFFCURVE",
"449 0 CURVE",
"370 0 LINE",
"370 70 LINE",
"390 70 LINE",
"390 210 LINE"
);
},
{
closed = 1;
nodes = (
"350 110 LINE SMOOTH",
"350 88 OFFCURVE",
"368 70 OFFCURVE",
"390 70 CURVE",
"390 0 LINE",
"310 0 LINE",
"310 110 LINE"
);
},
{
closed = 1;
nodes = (
"350 230 LINE",
"350 11 LINE",
"350 0 OFFCURVE",
"335 0 OFFCURVE",
"329 0 CURVE",
"250 0 LINE",
"250 70 LINE",
"270 70 LINE",
"270 210 LINE"
);
},
{
closed = 1;
nodes = (
"230 110 LINE",
"230 88 OFFCURVE",
"248 70 OFFCURVE",
"270 70 CURVE",
"270 0 LINE",
"190 0 LINE",
"190 110 LINE"
);
},
{
closed = 1;
nodes = (
"-50 -250 LINE",
"2 -160 LINE",
"13.184 -174.526 OFFCURVE",
"29.847 -180 OFFCURVE",
"50 -180 CURVE",
"150 -180 LINE",
"150 210 LINE",
"230 230 LINE",
"230 -210 LINE SMOOTH",
"230 -235 OFFCURVE",
"215 -250 OFFCURVE",
"192 -250 CURVE"
);
},
{
closed = 1;
nodes = (
"470 110 LINE",
"470 88 OFFCURVE",
"488 70 OFFCURVE",
"510 70 CURVE",
"510 0 LINE",
"430 0 LINE",
"430 110 LINE"
);
}
);
width = 510;
}
);
widthMetricsKey = "=280+(80*3)+(40*2)-50-40";
},
{
glyphname = "seen-ar.fina.2";
layers = (
{
anchors = (
{
name = bottom;
position = "{300, -75}";
},
{
name = top;
position = "{300, 300}";
}
);
hints = (
{
place = "{150, 80}";
type = Stem;
},
{
place = "{270, 80}";
type = Stem;
},
{
place = "{390, 80}";
type = Stem;
},
{
horizontal = 1;
place = "{-250, 70}";
type = Stem;
},
{
horizontal = 1;
place = "{0, 70}";
type = Stem;
}
);
layerId = "56eb07b5-49f2-447c-9e4d-0a9cf23655fc";
paths = (
{
closed = 1;
nodes = (
"390 210 LINE",
"390 70 LINE",
"370 70 LINE",
"370 0 LINE",
"449 0 LINE",
"455 0 OFFCURVE",
"470 0 OFFCURVE",
"470 11 CURVE",
"470 230 LINE"
);
},
{
closed = 1;
nodes = (
"310 110 LINE",
"310 0 LINE",
"390 0 LINE",
"390 70 LINE",
"368 70 OFFCURVE",
"350 88 OFFCURVE",
"350 110 CURVE SMOOTH"
);
},
{
closed = 1;
nodes = (
"270 210 LINE",
"270 70 LINE",
"250 70 LINE",
"250 0 LINE",
"329 0 LINE",
"335 0 OFFCURVE",
"350 0 OFFCURVE",
"350 11 CURVE",
"350 230 LINE"
);
},
{
closed = 1;
nodes = (
"190 110 LINE",
"190 0 LINE",
"270 0 LINE",
"270 70 LINE",
"248 70 OFFCURVE",
"230 88 OFFCURVE",
"230 110 CURVE"
);
},
{
closed = 1;
nodes = (
"192 -250 LINE",
"215 -250 OFFCURVE",
"230 -235 OFFCURVE",
"230 -210 CURVE SMOOTH",
"230 230 LINE",
"150 210 LINE",
"150 -180 LINE",
"50 -180 LINE",
"29.847 -180 OFFCURVE",
"13.184 -174.526 OFFCURVE",
"2 -160 CURVE",
"-50 -250 LINE"
);
},
{
closed = 1;
nodes = (
"390 200 LINE",
"470 220 LINE",
"470 270 LINE",
"390 250 LINE"
);
},
{
closed = 1;
nodes = (
"270 200 LINE",
"350 220 LINE",
"350 270 LINE",
"270 250 LINE"
);
},
{
closed = 1;
nodes = (
"150 200 LINE",
"230 220 LINE",
"230 270 LINE",
"150 250 LINE"
);
},
{
closed = 1;
nodes = (
"430 110 LINE",
"430 0 LINE",
"510 0 LINE",
"510 70 LINE",
"488 70 OFFCURVE",
"470 88 OFFCURVE",
"470 110 CURVE"
);
}
);
width = 510;
}
);
widthMetricsKey = "=280+(80*3)+(40*2)-50-40";
},
{
glyphname = "seen-ar.fina.3";
layers = (
{
anchors = (
{
name = bottom;
position = "{420, -75}";
},
{
name = top;
position = "{420, 300}";
}
);
hints = (
{
place = "{150, 80}";
type = Stem;
},
{
place = "{270, 80}";
type = Stem;
},
{
place = "{390, 80}";
type = Stem;
},
{
horizontal = 1;
place = "{-250, 70}";
type = Stem;
},
{
horizontal = 1;
place = "{0, 70}";
type = Stem;
}
);
layerId = "56eb07b5-49f2-447c-9e4d-0a9cf23655fc";
paths = (
{
closed = 1;
nodes = (
"390 250 LINE",
"470 270 LINE",
"470 220 LINE",
"390 200 LINE"
);
},
{
closed = 1;
nodes = (
"270 220 LINE",
"350 240 LINE",
"350 190 LINE",
"270 170 LINE"
);
},
{
closed = 1;
nodes = (
"230 110 LINE",
"230 88 OFFCURVE",
"248 70 OFFCURVE",
"270 70 CURVE",
"270 0 LINE",
"190 0 LINE",
"190 110 LINE"
);
},
{
closed = 1;
nodes = (
"-50 -250 LINE",
"2 -160 LINE",
"13.184 -174.526 OFFCURVE",
"29.847 -180 OFFCURVE",
"50 -180 CURVE",
"150 -180 LINE",
"150 190 LINE",
"230 210 LINE",
"230 -210 LINE SMOOTH",
"230 -235 OFFCURVE",
"215 -250 OFFCURVE",
"192 -250 CURVE SMOOTH"
);
},
{
closed = 1;
nodes = (
"350 110 LINE SMOOTH",
"350 88 OFFCURVE",
"368 70 OFFCURVE",
"390 70 CURVE",
"390 0 LINE",
"310 0 LINE",
"310 110 LINE"
);
},
{
closed = 1;
nodes = (
"350 230 LINE",
"350 11 LINE",
"350 0 OFFCURVE",
"335 0 OFFCURVE",
"329 0 CURVE",
"250 0 LINE",
"250 70 LINE",
"270 70 LINE",
"270 210 LINE"
);
},
{
closed = 1;
nodes = (
"470 230 LINE",
"470 11 LINE",
"470 0 OFFCURVE",
"455 0 OFFCURVE",
"449 0 CURVE",
"370 0 LINE",
"370 70 LINE",
"390 70 LINE",
"390 210 LINE"
);
},
{
closed = 1;
nodes = (
"470 110 LINE",
"470 88 OFFCURVE",
"488 70 OFFCURVE",
"510 70 CURVE",
"510 0 LINE",
"430 0 LINE",
"430 110 LINE"
);
}
);
width = 510;
}
);
widthMetricsKey = "=280+(80*3)+(40*3)-130";
},
{
glyphname = "seen-ar.fina.4";
layers = (
{
anchors = (
{
name = bottom;
position = "{420, -75}";
},
{
name = top;
position = "{420, 300}";
}
);
hints = (
{
place = "{150, 80}";
type = Stem;
},
{
place = "{270, 80}";
type = Stem;
},
{
place = "{390, 80}";
type = Stem;
},
{
horizontal = 1;
place = "{-250, 70}";
type = Stem;
},
{
horizontal = 1;
place = "{0, 70}";
type = Stem;
}
);
layerId = "56eb07b5-49f2-447c-9e4d-0a9cf23655fc";
paths = (
{
closed = 1;
nodes = (
"390 250 LINE",
"470 270 LINE",
"470 220 LINE",
"390 200 LINE"
);
},
{
closed = 1;
nodes = (
"270 220 LINE",
"350 240 LINE",
"350 190 LINE",
"270 170 LINE"
);
},
{
closed = 1;
nodes = (
"230 110 LINE",
"230 88 OFFCURVE",
"248 70 OFFCURVE",
"270 70 CURVE",
"270 0 LINE",
"190 0 LINE",
"190 110 LINE"
);
},
{
closed = 1;
nodes = (
"-50 -250 LINE",
"2 -160 LINE",
"13.184 -174.526 OFFCURVE",
"29.847 -180 OFFCURVE",
"50 -180 CURVE",
"150 -180 LINE",
"150 190 LINE",
"230 210 LINE",
"230 -210 LINE SMOOTH",
"230 -235 OFFCURVE",
"215 -250 OFFCURVE",
"192 -250 CURVE SMOOTH"
);
},
{
closed = 1;
nodes = (
"350 110 LINE SMOOTH",
"350 88 OFFCURVE",
"368 70 OFFCURVE",
"390 70 CURVE",
"390 0 LINE",
"310 0 LINE",
"310 110 LINE"
);
},
{
closed = 1;
nodes = (
"350 230 LINE",
"350 11 LINE",
"350 0 OFFCURVE",
"335 0 OFFCURVE",
"329 0 CURVE",
"250 0 LINE",
"250 70 LINE",
"270 70 LINE",
"270 210 LINE"
);
},
{
closed = 1;
nodes = (
"470 230 LINE",
"470 11 LINE",
"470 0 OFFCURVE",
"455 0 OFFCURVE",
"449 0 CURVE",
"370 0 LINE",
"370 70 LINE",
"390 70 LINE",
"390 210 LINE"
);
},
{
closed = 1;
nodes = (
"390 270 LINE",
"470 290 LINE",
"470 240 LINE",
"390 220 LINE"
);
},
{
closed = 1;
nodes = (
"270 240 LINE",
"350 260 LINE",
"350 210 LINE",
"270 190 LINE"
);
},
{
closed = 1;
nodes = (
"150 210 LINE",
"230 230 LINE",
"230 180 LINE",
"150 160 LINE"
);
},
{
closed = 1;
nodes = (
"470 110 LINE",
"470 88 OFFCURVE",
"488 70 OFFCURVE",
"510 70 CURVE",
"510 0 LINE",
"430 0 LINE",
"430 110 LINE"
);
}
);
width = 510;
}
);
widthMetricsKey = "=280+(80*3)+(40*3)-130";
},
{
glyphname = "seen-ar.fina.5";
lastChange = "2020-03-08 19:49:52 +0000";
layers = (
{
anchors = (
{
name = bottom;
position = "{420, -75}";
},
{
name = top;
position = "{420, 300}";
}
);
hints = (
{
place = "{150, 80}";
type = Stem;
},
{
place = "{270, 80}";
type = Stem;
},
{
place = "{390, 80}";
type = Stem;
},
{
horizontal = 1;
place = "{-250, 70}";
type = Stem;
},
{
horizontal = 1;
place = "{0, 70}";
type = Stem;
}
);
layerId = "56eb07b5-49f2-447c-9e4d-0a9cf23655fc";
paths = (
{
closed = 1;
nodes = (
"390 250 LINE",
"470 270 LINE",
"470 220 LINE",
"390 200 LINE"
);
},
{
closed = 1;
nodes = (
"270 220 LINE",
"350 240 LINE",
"350 190 LINE",
"270 170 LINE"
);
},
{
closed = 1;
nodes = (
"230 110 LINE",
"230 88 OFFCURVE",
"248 70 OFFCURVE",
"270 70 CURVE",
"270 0 LINE",
"190 0 LINE",
"190 110 LINE"
);
},
{
closed = 1;
nodes = (
"-50 -250 LINE",
"2 -160 LINE",
"13.184 -174.526 OFFCURVE",
"29.847 -180 OFFCURVE",
"50 -180 CURVE",
"150 -180 LINE",
"150 190 LINE",
"230 210 LINE",
"230 -210 LINE SMOOTH",
"230 -235 OFFCURVE",
"215 -250 OFFCURVE",
"192 -250 CURVE SMOOTH"
);
},
{
closed = 1;
nodes = (
"350 110 LINE SMOOTH",
"350 88 OFFCURVE",
"368 70 OFFCURVE",
"390 70 CURVE",
"390 0 LINE",
"310 0 LINE",
"310 110 LINE"
);
},
{
closed = 1;
nodes = (
"350 230 LINE",
"350 11 LINE",
"350 0 OFFCURVE",
"335 0 OFFCURVE",
"329 0 CURVE",
"250 0 LINE",
"250 70 LINE",
"270 70 LINE",
"270 210 LINE"
);
},
{
closed = 1;
nodes = (
"470 230 LINE",
"470 11 LINE",
"470 0 OFFCURVE",
"455 0 OFFCURVE",
"449 0 CURVE",
"370 0 LINE",
"370 70 LINE",
"390 70 LINE",
"390 210 LINE"
);
},
{
closed = 1;
nodes = (
"390 290 LINE",
"470 310 LINE",
"470 260 LINE",
"390 240 LINE"
);
},
{
closed = 1;
nodes = (
"270 260 LINE",
"350 280 LINE",
"350 230 LINE",
"270 210 LINE"
);
},
{
closed = 1;
nodes = (
"150 230 LINE",
"230 250 LINE",
"230 200 LINE",
"150 180 LINE"
);
},
{
closed = 1;
nodes = (
"470 110 LINE",
"470 88 OFFCURVE",
"488 70 OFFCURVE",
"510 70 CURVE",
"510 0 LINE",
"430 0 LINE",
"430 110 LINE"
);
}
);
width = 510;
}
);
},
{
glyphname = "seen-ar.init";
layers = (
{
anchors = (
{
name = bottom;
position = "{30, -75}";
},
{
name = top;
position = "{30, 300}";
}
);
hints = (
{
place = "{240, 80}";
type = Stem;
},
{
horizontal = 1;
place = "{0, 70}";
type = Stem;
},
{
place = "{120, 80}";
type = Stem;
},
{
place = "{0, 80}";
type = Stem;
}
);
layerId = "56eb07b5-49f2-447c-9e4d-0a9cf23655fc";
paths = (
{
closed = 1;
nodes = (
"240 210 LINE",
"240 70 LINE",
"220 70 LINE",
"220 0 LINE",
"299 0 LINE",
"305 0 OFFCURVE",
"320 0 OFFCURVE",
"320 11 CURVE",
"320 230 LINE"
);
},
{
closed = 1;
nodes = (
"160 110 LINE",
"160 0 LINE",
"240 0 LINE",
"240 70 LINE",
"218 70 OFFCURVE",
"200 88 OFFCURVE",
"200 110 CURVE SMOOTH"
);
},
{
closed = 1;
nodes = (
"120 210 LINE",
"120 70 LINE",
"100 70 LINE",
"100 0 LINE",
"179 0 LINE",
"185 0 OFFCURVE",
"200 0 OFFCURVE",
"200 11 CURVE",
"200 230 LINE"
);
},
{
closed = 1;
nodes = (
"40 110 LINE",
"40 0 LINE",
"120 0 LINE",
"120 70 LINE",
"98 70 OFFCURVE",
"80 88 OFFCURVE",
"80 110 CURVE SMOOTH"
);
},
{
closed = 1;
nodes = (
"0 210 LINE",
"0 70 LINE",
"-20 70 LINE",
"-20 0 LINE",
"59 0 LINE",
"65 0 OFFCURVE",
"80 0 OFFCURVE",
"80 11 CURVE",
"80 230 LINE"
);
}
);
width = 360;
}
);
widthMetricsKey = "=(80*3)+(40*2)+40";
},
{
glyphname = "seen-ar.init.1";
layers = (
{
anchors = (
{
name = bottom;
position = "{30, -75}";
},
{
name = top;
position = "{30, 300}";
}
);
hints = (
{
place = "{0, 80}";
type = Stem;
},
{
place = "{120, 80}";
type = Stem;
},
{
place = "{240, 80}";
type = Stem;
},
{
horizontal = 1;
place = "{0, 70}";
type = Stem;
}
);
layerId = "56eb07b5-49f2-447c-9e4d-0a9cf23655fc";
paths = (
{
closed = 1;
nodes = (
"240 210 LINE",
"240 70 LINE",
"220 70 LINE",
"220 0 LINE",
"299 0 LINE",
"305 0 OFFCURVE",
"320 0 OFFCURVE",
"320 11 CURVE",
"320 230 LINE"
);
},
{
closed = 1;
nodes = (
"160 110 LINE",
"160 0 LINE",
"240 0 LINE",
"240 70 LINE",
"218 70 OFFCURVE",
"200 88 OFFCURVE",
"200 110 CURVE SMOOTH"
);
},
{
closed = 1;
nodes = (
"120 210 LINE",
"120 70 LINE",
"100 70 LINE",
"100 0 LINE",
"179 0 LINE",
"185 0 OFFCURVE",
"200 0 OFFCURVE",
"200 11 CURVE",
"200 230 LINE"
);
},
{
closed = 1;
nodes = (
"40 110 LINE",
"40 0 LINE",
"120 0 LINE",
"120 70 LINE",
"98 70 OFFCURVE",
"80 88 OFFCURVE",
"80 110 CURVE SMOOTH"
);
},
{
closed = 1;
nodes = (
"0 210 LINE",
"0 70 LINE",
"-20 70 LINE",
"-20 0 LINE",
"59 0 LINE",
"65 0 OFFCURVE",
"80 0 OFFCURVE",
"80 11 CURVE",
"80 230 LINE"
);
},
{
closed = 1;
nodes = (
"240 180 LINE",
"320 200 LINE",
"320 250 LINE",
"240 230 LINE"
);
},
{
closed = 1;
nodes = (
"120 180 LINE",
"200 200 LINE",
"200 250 LINE",
"120 230 LINE"
);
},
{
closed = 1;
nodes = (
"0 180 LINE",
"80 200 LINE",
"80 250 LINE",
"0 230 LINE"
);
}
);
width = 360;
}
);
widthMetricsKey = "=(80*3)+(40*2)+40";
},
{
glyphname = "seen-ar.init.2";
layers = (
{
anchors = (
{
name = bottom;
position = "{30, -75}";
},
{
name = top;
position = "{30, 300}";
}
);
hints = (
{
place = "{0, 80}";
type = Stem;
},
{
place = "{120, 80}";
type = Stem;
},
{
place = "{240, 80}";
type = Stem;
},
{
horizontal = 1;
place = "{0, 70}";
type = Stem;
}
);
layerId = "56eb07b5-49f2-447c-9e4d-0a9cf23655fc";
paths = (
{
closed = 1;
nodes = (
"240 210 LINE",
"240 70 LINE",
"220 70 LINE",
"220 0 LINE",
"299 0 LINE",
"305 0 OFFCURVE",
"320 0 OFFCURVE",
"320 11 CURVE",
"320 230 LINE"
);
},
{
closed = 1;
nodes = (
"160 110 LINE",
"160 0 LINE",
"240 0 LINE",
"240 70 LINE",
"218 70 OFFCURVE",
"200 88 OFFCURVE",
"200 110 CURVE SMOOTH"
);
},
{
closed = 1;
nodes = (
"120 210 LINE",
"120 70 LINE",
"100 70 LINE",
"100 0 LINE",
"179 0 LINE",
"185 0 OFFCURVE",
"200 0 OFFCURVE",
"200 11 CURVE",
"200 230 LINE"
);
},
{
closed = 1;
nodes = (
"40 110 LINE",
"40 0 LINE",
"120 0 LINE",
"120 70 LINE",
"98 70 OFFCURVE",
"80 88 OFFCURVE",
"80 110 CURVE SMOOTH"
);
},
{
closed = 1;
nodes = (
"0 210 LINE",
"0 70 LINE",
"-20 70 LINE",
"-20 0 LINE",
"59 0 LINE",
"65 0 OFFCURVE",
"80 0 OFFCURVE",
"80 11 CURVE",
"80 230 LINE"
);
},
{
closed = 1;
nodes = (
"240 200 LINE",
"320 220 LINE",
"320 270 LINE",
"240 250 LINE"
);
},
{
closed = 1;
nodes = (
"120 200 LINE",
"200 220 LINE",
"200 270 LINE",
"120 250 LINE"
);
},
{
closed = 1;
nodes = (
"0 200 LINE",
"80 220 LINE",
"80 270 LINE",
"0 250 LINE"
);
}
);
width = 360;
}
);
widthMetricsKey = "=(80*3)+(40*2)+40";
},
{
glyphname = "seen-ar.init.3";
layers = (
{
anchors = (
{
name = bottom;
position = "{150, -75}";
},
{
name = top;
position = "{150, 300}";
}
);
hints = (
{
place = "{0, 80}";
type = Stem;
},
{
place = "{120, 80}";
type = Stem;
},
{
place = "{240, 80}";
type = Stem;
},
{
horizontal = 1;
place = "{0, 70}";
type = Stem;
},
{
place = "{240, 80}";
type = Stem;
}
);
layerId = "56eb07b5-49f2-447c-9e4d-0a9cf23655fc";
paths = (
{
closed = 1;
nodes = (
"240 250 LINE",
"320 270 LINE",
"320 220 LINE",
"240 200 LINE"
);
},
{
closed = 1;
nodes = (
"120 220 LINE",
"200 240 LINE",
"200 190 LINE",
"120 170 LINE"
);
},
{
closed = 1;
nodes = (
"80 110 LINE",
"80 88 OFFCURVE",
"98 70 OFFCURVE",
"120 70 CURVE",
"120 0 LINE",
"40 0 LINE",
"40 110 LINE"
);
},
{
closed = 1;
nodes = (
"0 190 LINE",
"80 210 LINE",
"80 11 LINE SMOOTH",
"80 0 OFFCURVE",
"65 0 OFFCURVE",
"59 0 CURVE SMOOTH",
"-20 0 LINE",
"-20 70 LINE",
"0 70 LINE"
);
},
{
closed = 1;
nodes = (
"320 230 LINE",
"320 11 LINE",
"320 0 OFFCURVE",
"305 0 OFFCURVE",
"299 0 CURVE",
"220 0 LINE",
"220 70 LINE",
"240 70 LINE",
"240 210 LINE"
);
},
{
closed = 1;
nodes = (
"200 110 LINE SMOOTH",
"200 88 OFFCURVE",
"218 70 OFFCURVE",
"240 70 CURVE",
"240 0 LINE",
"160 0 LINE",
"160 110 LINE"
);
},
{
closed = 1;
nodes = (
"200 230 LINE",
"200 11 LINE",
"200 0 OFFCURVE",
"185 0 OFFCURVE",
"179 0 CURVE",
"100 0 LINE",
"100 70 LINE",
"120 70 LINE",
"120 210 LINE"
);
}
);
width = 360;
}
);
widthMetricsKey = "=(80*3)+(40*2)+40";
},
{
glyphname = "seen-ar.init.4";
layers = (
{
anchors = (
{
name = bottom;
position = "{150, -75}";
},
{
name = top;
position = "{150, 300}";
}
);
hints = (
{
place = "{0, 80}";
type = Stem;
},
{
place = "{120, 80}";
type = Stem;
},
{
place = "{240, 80}";
type = Stem;
},
{
horizontal = 1;
place = "{0, 70}";
type = Stem;
}
);
layerId = "56eb07b5-49f2-447c-9e4d-0a9cf23655fc";
paths = (
{
closed = 1;
nodes = (
"240 250 LINE",
"320 270 LINE",
"320 220 LINE",
"240 200 LINE"
);
},
{
closed = 1;
nodes = (
"120 220 LINE",
"200 240 LINE",
"200 190 LINE",
"120 170 LINE"
);
},
{
closed = 1;
nodes = (
"80 110 LINE",
"80 88 OFFCURVE",
"98 70 OFFCURVE",
"120 70 CURVE",
"120 0 LINE",
"40 0 LINE",
"40 110 LINE"
);
},
{
closed = 1;
nodes = (
"0 190 LINE",
"80 210 LINE",
"80 11 LINE SMOOTH",
"80 0 OFFCURVE",
"65 0 OFFCURVE",
"59 0 CURVE SMOOTH",
"-20 0 LINE",
"-20 70 LINE",
"0 70 LINE"
);
},
{
closed = 1;
nodes = (
"320 230 LINE",
"320 11 LINE",
"320 0 OFFCURVE",
"305 0 OFFCURVE",
"299 0 CURVE",
"220 0 LINE",
"220 70 LINE",
"240 70 LINE",
"240 210 LINE"
);
},
{
closed = 1;
nodes = (
"200 110 LINE SMOOTH",
"200 88 OFFCURVE",
"218 70 OFFCURVE",
"240 70 CURVE",
"240 0 LINE",
"160 0 LINE",
"160 110 LINE"
);
},
{
closed = 1;
nodes = (
"200 230 LINE",
"200 11 LINE",
"200 0 OFFCURVE",
"185 0 OFFCURVE",
"179 0 CURVE",
"100 0 LINE",
"100 70 LINE",
"120 70 LINE",
"120 210 LINE"
);
},
{
closed = 1;
nodes = (
"240 270 LINE",
"320 290 LINE",
"320 240 LINE",
"240 220 LINE"
);
},
{
closed = 1;
nodes = (
"120 240 LINE",
"200 260 LINE",
"200 210 LINE",
"120 190 LINE"
);
},
{
closed = 1;
nodes = (
"0 210 LINE",
"80 230 LINE",
"80 180 LINE",
"0 160 LINE"
);
}
);
width = 360;
}
);
widthMetricsKey = "=(80*3)+(40*2)+40";
},
{
glyphname = "seen-ar.init.5";
layers = (
{
anchors = (
{
name = bottom;
position = "{150, -75}";
},
{
name = top;
position = "{150, 300}";
}
);
hints = (
{
place = "{0, 80}";
type = Stem;
},
{
place = "{120, 80}";
type = Stem;
},
{
place = "{240, 80}";
type = Stem;
},
{
horizontal = 1;
place = "{0, 70}";
type = Stem;
}
);
layerId = "56eb07b5-49f2-447c-9e4d-0a9cf23655fc";
paths = (
{
closed = 1;
nodes = (
"240 250 LINE",
"320 270 LINE",
"320 220 LINE",
"240 200 LINE"
);
},
{
closed = 1;
nodes = (
"120 220 LINE",
"200 240 LINE",
"200 190 LINE",
"120 170 LINE"
);
},
{
closed = 1;
nodes = (
"80 110 LINE",
"80 88 OFFCURVE",
"98 70 OFFCURVE",
"120 70 CURVE",
"120 0 LINE",
"40 0 LINE",
"40 110 LINE"
);
},
{
closed = 1;
nodes = (
"0 190 LINE",
"80 210 LINE",
"80 11 LINE SMOOTH",
"80 0 OFFCURVE",
"65 0 OFFCURVE",
"59 0 CURVE SMOOTH",
"-20 0 LINE",
"-20 70 LINE",
"0 70 LINE"
);
},
{
closed = 1;
nodes = (
"320 230 LINE",
"320 11 LINE",
"320 0 OFFCURVE",
"305 0 OFFCURVE",
"299 0 CURVE",
"220 0 LINE",
"220 70 LINE",
"240 70 LINE",
"240 210 LINE"
);
},
{
closed = 1;
nodes = (
"200 110 LINE SMOOTH",
"200 88 OFFCURVE",
"218 70 OFFCURVE",
"240 70 CURVE",
"240 0 LINE",
"160 0 LINE",
"160 110 LINE"
);
},
{
closed = 1;
nodes = (
"200 230 LINE",
"200 11 LINE",
"200 0 OFFCURVE",
"185 0 OFFCURVE",
"179 0 CURVE",
"100 0 LINE",
"100 70 LINE",
"120 70 LINE",
"120 210 LINE"
);
},
{
closed = 1;
nodes = (
"240 290 LINE",
"320 310 LINE",
"320 260 LINE",
"240 240 LINE"
);
},
{
closed = 1;
nodes = (
"120 260 LINE",
"200 280 LINE",
"200 230 LINE",
"120 210 LINE"
);
},
{
closed = 1;
nodes = (
"0 230 LINE",
"80 250 LINE",
"80 200 LINE",
"0 180 LINE"
);
}
);
width = 360;
}
);
widthMetricsKey = "=(80*3)+(40*2)+40";
},
{
glyphname = "seen-ar.init.6";
layers = (
{
hints = (
{
place = "{221, 80}";
type = Stem;
},
{
horizontal = 1;
place = "{0, 70}";
type = Stem;
}
);
layerId = "56eb07b5-49f2-447c-9e4d-0a9cf23655fc";
widthMetricsKey = "=(80*3)+(40*2)+21";
paths = (
{
closed = 1;
nodes = (
"271 70 LINE",
"-20 70 LINE",
"-20 0 LINE",
"271 0 LINE"
);
},
{
closed = 1;
nodes = (
"40.414 140.038 LINE",
"-17.3 40 LINE",
"140.4 40 LINE"
);
},
{
closed = 1;
nodes = (
"150.914 140.038 LINE",
"93.2 40 LINE",
"250.9 40 LINE"
);
},
{
closed = 1;
nodes = (
"221 157.417 LINE",
"221 70 LINE",
"201 70 LINE",
"201 0 LINE",
"280 0 LINE SMOOTH",
"286 0 OFFCURVE",
"301 0 OFFCURVE",
"301 11 CURVE SMOOTH",
"301 177.417 LINE"
);
}
);
width = 341;
},
{
associatedMasterId = "56eb07b5-49f2-447c-9e4d-0a9cf23655fc";
layerId = "03a3df06-bc9c-4df5-8d4c-53a5dfe084e0";
name = Body;
width = 0;
}
);
},
{
glyphname = "seen-ar.medi";
layers = (
{
components = (
{
alignment = -1;
name = "seen-ar.init";
}
);
hints = (
{
place = "{0, 80}";
type = Stem;
},
{
place = "{120, 80}";
type = Stem;
},
{
place = "{240, 80}";
type = Stem;
},
{
horizontal = 1;
place = "{0, 70}";
type = Stem;
}
);
layerId = "56eb07b5-49f2-447c-9e4d-0a9cf23655fc";
paths = (
{
closed = 1;
nodes = (
"320 110 LINE",
"320 88 OFFCURVE",
"338 70 OFFCURVE",
"360 70 CURVE",
"360 0 LINE",
"280 0 LINE",
"280 110 LINE"
);
}
);
width = 360;
}
);
widthMetricsKey = "=(80*3)+(40*2)+40";
},
{
glyphname = "seen-ar.medi.1";
layers = (
{
anchors = (
{
name = bottom;
position = "{30, -75}";
},
{
name = top;
position = "{30, 300}";
}
);
hints = (
{
place = "{0, 80}";
type = Stem;
},
{
place = "{120, 80}";
type = Stem;
},
{
place = "{240, 80}";
type = Stem;
},
{
horizontal = 1;
place = "{0, 70}";
type = Stem;
}
);
layerId = "56eb07b5-49f2-447c-9e4d-0a9cf23655fc";
paths = (
{
closed = 1;
nodes = (
"320 110 LINE",
"320 88 OFFCURVE",
"338 70 OFFCURVE",
"360 70 CURVE",
"360 0 LINE",
"280 0 LINE",
"280 110 LINE"
);
},
{
closed = 1;
nodes = (
"320 230 LINE",
"320 11 LINE",
"320 0 OFFCURVE",
"305 0 OFFCURVE",
"299 0 CURVE",
"220 0 LINE",
"220 70 LINE",
"240 70 LINE",
"240 210 LINE"
);
},
{
closed = 1;
nodes = (
"200 110 LINE SMOOTH",
"200 88 OFFCURVE",
"218 70 OFFCURVE",
"240 70 CURVE",
"240 0 LINE",
"160 0 LINE",
"160 110 LINE"
);
},
{
closed = 1;
nodes = (
"200 230 LINE",
"200 11 LINE",
"200 0 OFFCURVE",
"185 0 OFFCURVE",
"179 0 CURVE",
"100 0 LINE",
"100 70 LINE",
"120 70 LINE",
"120 210 LINE"
);
},
{
closed = 1;
nodes = (
"80 110 LINE SMOOTH",
"80 88 OFFCURVE",
"98 70 OFFCURVE",
"120 70 CURVE",
"120 0 LINE",
"40 0 LINE",
"40 110 LINE"
);
},
{
closed = 1;
nodes = (
"80 230 LINE",
"80 11 LINE",
"80 0 OFFCURVE",
"65 0 OFFCURVE",
"59 0 CURVE",
"-20 0 LINE",
"-20 70 LINE",
"0 70 LINE",
"0 210 LINE"
);
},
{
closed = 1;
nodes = (
"240 230 LINE",
"320 250 LINE",
"320 200 LINE",
"240 180 LINE"
);
},
{
closed = 1;
nodes = (
"120 230 LINE",
"200 250 LINE",
"200 200 LINE",
"120 180 LINE"
);
},
{
closed = 1;
nodes = (
"0 230 LINE",
"80 250 LINE",
"80 200 LINE",
"0 180 LINE"
);
}
);
width = 360;
}
);
widthMetricsKey = "=(80*3)+(40*2)+40";
},
{
glyphname = "seen-ar.medi.2";
layers = (
{
anchors = (
{
name = bottom;
position = "{30, -75}";
},
{
name = top;
position = "{30, 300}";
}
);
hints = (
{
place = "{0, 80}";
type = Stem;
},
{
place = "{120, 80}";
type = Stem;
},
{
place = "{240, 80}";
type = Stem;
},
{
horizontal = 1;
place = "{0, 70}";
type = Stem;
}
);
layerId = "56eb07b5-49f2-447c-9e4d-0a9cf23655fc";
paths = (
{
closed = 1;
nodes = (
"320 110 LINE",
"320 88 OFFCURVE",
"338 70 OFFCURVE",
"360 70 CURVE",
"360 0 LINE",
"280 0 LINE",
"280 110 LINE"
);
},
{
closed = 1;
nodes = (
"320 230 LINE",
"320 11 LINE",
"320 0 OFFCURVE",
"305 0 OFFCURVE",
"299 0 CURVE",
"220 0 LINE",
"220 70 LINE",
"240 70 LINE",
"240 210 LINE"
);
},
{
closed = 1;
nodes = (
"200 110 LINE SMOOTH",
"200 88 OFFCURVE",
"218 70 OFFCURVE",
"240 70 CURVE",
"240 0 LINE",
"160 0 LINE",
"160 110 LINE"
);
},
{
closed = 1;
nodes = (
"200 230 LINE",
"200 11 LINE",
"200 0 OFFCURVE",
"185 0 OFFCURVE",
"179 0 CURVE",
"100 0 LINE",
"100 70 LINE",
"120 70 LINE",
"120 210 LINE"
);
},
{
closed = 1;
nodes = (
"80 110 LINE SMOOTH",
"80 88 OFFCURVE",
"98 70 OFFCURVE",
"120 70 CURVE",
"120 0 LINE",
"40 0 LINE",
"40 110 LINE"
);
},
{
closed = 1;
nodes = (
"80 230 LINE",
"80 11 LINE",
"80 0 OFFCURVE",
"65 0 OFFCURVE",
"59 0 CURVE",
"-20 0 LINE",
"-20 70 LINE",
"0 70 LINE",
"0 210 LINE"
);
},
{
closed = 1;
nodes = (
"240 250 LINE",
"320 270 LINE",
"320 220 LINE",
"240 200 LINE"
);
},
{
closed = 1;
nodes = (
"120 250 LINE",
"200 270 LINE",
"200 220 LINE",
"120 200 LINE"
);
},
{
closed = 1;
nodes = (
"0 250 LINE",
"80 270 LINE",
"80 220 LINE",
"0 200 LINE"
);
}
);
width = 360;
}
);
widthMetricsKey = "=(80*3)+(40*2)+40";
},
{
glyphname = "seen-ar.medi.3";
layers = (
{
components = (
{
alignment = -1;
name = "seen-ar.init.3";
}
);
hints = (
{
place = "{0, 80}";
type = Stem;
},
{
place = "{120, 80}";
type = Stem;
},
{
place = "{240, 80}";
type = Stem;
},
{
horizontal = 1;
place = "{0, 70}";
type = Stem;
}
);
layerId = "56eb07b5-49f2-447c-9e4d-0a9cf23655fc";
paths = (
{
closed = 1;
nodes = (
"320 110 LINE",
"320 88 OFFCURVE",
"338 70 OFFCURVE",
"360 70 CURVE",
"360 0 LINE",
"280 0 LINE",
"280 110 LINE"
);
}
);
width = 360;
}
);
widthMetricsKey = "=(80*3)+(40*2)+40";
},
{
glyphname = "seen-ar.medi.4";
layers = (
{
anchors = (
{
name = bottom;
position = "{150, -75}";
},
{
name = top;
position = "{150, 300}";
}
);
hints = (
{
place = "{0, 80}";
type = Stem;
},
{
place = "{120, 80}";
type = Stem;
},
{
place = "{240, 80}";
type = Stem;
},
{
horizontal = 1;
place = "{0, 70}";
type = Stem;
}
);
layerId = "56eb07b5-49f2-447c-9e4d-0a9cf23655fc";
paths = (
{
closed = 1;
nodes = (
"240 250 LINE",
"320 270 LINE",
"320 220 LINE",
"240 200 LINE"
);
},
{
closed = 1;
nodes = (
"120 220 LINE",
"200 240 LINE",
"200 190 LINE",
"120 170 LINE"
);
},
{
closed = 1;
nodes = (
"80 110 LINE",
"80 88 OFFCURVE",
"98 70 OFFCURVE",
"120 70 CURVE",
"120 0 LINE",
"40 0 LINE",
"40 110 LINE"
);
},
{
closed = 1;
nodes = (
"0 190 LINE",
"80 210 LINE",
"80 11 LINE SMOOTH",
"80 0 OFFCURVE",
"65 0 OFFCURVE",
"59 0 CURVE SMOOTH",
"-20 0 LINE",
"-20 70 LINE",
"0 70 LINE"
);
},
{
closed = 1;
nodes = (
"320 230 LINE",
"320 11 LINE",
"320 0 OFFCURVE",
"305 0 OFFCURVE",
"299 0 CURVE",
"220 0 LINE",
"220 70 LINE",
"240 70 LINE",
"240 210 LINE"
);
},
{
closed = 1;
nodes = (
"200 110 LINE SMOOTH",
"200 88 OFFCURVE",
"218 70 OFFCURVE",
"240 70 CURVE",
"240 0 LINE",
"160 0 LINE",
"160 110 LINE"
);
},
{
closed = 1;
nodes = (
"200 230 LINE",
"200 11 LINE",
"200 0 OFFCURVE",
"185 0 OFFCURVE",
"179 0 CURVE",
"100 0 LINE",
"100 70 LINE",
"120 70 LINE",
"120 210 LINE"
);
},
{
closed = 1;
nodes = (
"240 270 LINE",
"320 290 LINE",
"320 240 LINE",
"240 220 LINE"
);
},
{
closed = 1;
nodes = (
"120 240 LINE",
"200 260 LINE",
"200 210 LINE",
"120 190 LINE"
);
},
{
closed = 1;
nodes = (
"0 210 LINE",
"80 230 LINE",
"80 180 LINE",
"0 160 LINE"
);
},
{
closed = 1;
nodes = (
"320 110 LINE",
"320 88 OFFCURVE",
"338 70 OFFCURVE",
"360 70 CURVE",
"360 0 LINE",
"280 0 LINE",
"280 110 LINE"
);
}
);
width = 360;
}
);
widthMetricsKey = "=(80*3)+(40*2)+40";
},
{
glyphname = "seen-ar.medi.5";
layers = (
{
anchors = (
{
name = bottom;
position = "{150, -75}";
},
{
name = top;
position = "{150, 300}";
}
);
hints = (
{
place = "{0, 80}";
type = Stem;
},
{
place = "{120, 80}";
type = Stem;
},
{
place = "{240, 80}";
type = Stem;
},
{
horizontal = 1;
place = "{0, 70}";
type = Stem;
}
);
layerId = "56eb07b5-49f2-447c-9e4d-0a9cf23655fc";
paths = (
{
closed = 1;
nodes = (
"320 110 LINE",
"320 88 OFFCURVE",
"338 70 OFFCURVE",
"360 70 CURVE",
"360 0 LINE",
"280 0 LINE",
"280 110 LINE"
);
},
{
closed = 1;
nodes = (
"240 250 LINE",
"320 270 LINE",
"320 220 LINE",
"240 200 LINE"
);
},
{
closed = 1;
nodes = (
"120 220 LINE",
"200 240 LINE",
"200 190 LINE",
"120 170 LINE"
);
},
{
closed = 1;
nodes = (
"80 110 LINE",
"80 88 OFFCURVE",
"98 70 OFFCURVE",
"120 70 CURVE",
"120 0 LINE",
"40 0 LINE",
"40 110 LINE"
);
},
{
closed = 1;
nodes = (
"0 190 LINE",
"80 210 LINE",
"80 11 LINE SMOOTH",
"80 0 OFFCURVE",
"65 0 OFFCURVE",
"59 0 CURVE SMOOTH",
"-20 0 LINE",
"-20 70 LINE",
"0 70 LINE"
);
},
{
closed = 1;
nodes = (
"320 230 LINE",
"320 11 LINE",
"320 0 OFFCURVE",
"305 0 OFFCURVE",
"299 0 CURVE",
"220 0 LINE",
"220 70 LINE",
"240 70 LINE",
"240 210 LINE"
);
},
{
closed = 1;
nodes = (
"200 110 LINE SMOOTH",
"200 88 OFFCURVE",
"218 70 OFFCURVE",
"240 70 CURVE",
"240 0 LINE",
"160 0 LINE",
"160 110 LINE"
);
},
{
closed = 1;
nodes = (
"200 230 LINE",
"200 11 LINE",
"200 0 OFFCURVE",
"185 0 OFFCURVE",
"179 0 CURVE",
"100 0 LINE",
"100 70 LINE",
"120 70 LINE",
"120 210 LINE"
);
},
{
closed = 1;
nodes = (
"240 290 LINE",
"320 310 LINE",
"320 260 LINE",
"240 240 LINE"
);
},
{
closed = 1;
nodes = (
"120 260 LINE",
"200 280 LINE",
"200 230 LINE",
"120 210 LINE"
);
},
{
closed = 1;
nodes = (
"0 230 LINE",
"80 250 LINE",
"80 200 LINE",
"0 180 LINE"
);
}
);
width = 360;
}
);
widthMetricsKey = "=(80*3)+(40*2)+40";
},
{
glyphname = "seen-ar.medi.6";
layers = (
{
anchors = (
{
name = top;
position = "{176, 215}";
}
);
hints = (
{
horizontal = 1;
place = "{0, 70}";
type = Stem;
}
);
layerId = "56eb07b5-49f2-447c-9e4d-0a9cf23655fc";
widthMetricsKey = "=(80*3)+(40*2)+51";
paths = (
{
closed = 1;
nodes = (
"371 70 LINE",
"-20 70 LINE",
"-20 0 LINE",
"371 0 LINE"
);
},
{
closed = 1;
nodes = (
"40.414 140.038 LINE",
"-17.3 40 LINE",
"140.4 40 LINE"
);
},
{
closed = 1;
nodes = (
"150.914 140.038 LINE",
"93.2 40 LINE",
"250.9 40 LINE"
);
},
{
closed = 1;
nodes = (
"261.214 140.038 LINE",
"203.5 40 LINE",
"361.2 40 LINE"
);
}
);
width = 371;
},
{
associatedMasterId = "56eb07b5-49f2-447c-9e4d-0a9cf23655fc";
layerId = "03a3df06-bc9c-4df5-8d4c-53a5dfe084e0";
name = Body;
width = 0;
}
);
},
{
glyphname = "sad-ar";
layers = (
{
anchors = (
{
name = top;
position = "{425, 335}";
}
);
hints = (
{
place = "{150, 80}";
type = Stem;
},
{
horizontal = 1;
place = "{-250, 70}";
type = Stem;
},
{
horizontal = 1;
place = "{0, 70}";
type = Stem;
},
{
horizontal = 1;
place = "{110, 70}";
type = Stem;
}
);
layerId = "56eb07b5-49f2-447c-9e4d-0a9cf23655fc";
paths = (
{
closed = 1;
nodes = (
"-50 -250 LINE",
"192 -250 LINE SMOOTH",
"215 -250 OFFCURVE",
"230 -235 OFFCURVE",
"230 -210 CURVE SMOOTH",
"230 180 LINE",
"150 180 LINE",
"150 -180 LINE",
"50 -180 LINE",
"29.847 -180 OFFCURVE",
"13.184 -174.526 OFFCURVE",
"2 -160 CURVE"
);
},
{
closed = 1;
nodes = (
"110.1 190 LINE",
"182.142 117.972 LINE",
"229.606 146.906 LINE",
"229.606 180 LINE",
"150 260.038 LINE"
);
},
{
closed = 1;
nodes = (
"213 180 LINE",
"213 110 LINE",
"656 110 LINE SMOOTH",
"678 110 OFFCURVE",
"696 92 OFFCURVE",
"696 70 CURVE",
"220 70 LINE",
"220 0 LINE",
"759 0 LINE SMOOTH",
"765 0 OFFCURVE",
"780 0 OFFCURVE",
"780 21 CURVE",
"780 160 OFFCURVE",
"710 180 OFFCURVE",
"666 180 CURVE SMOOTH"
);
}
);
width = 820;
},
{
associatedMasterId = "56eb07b5-49f2-447c-9e4d-0a9cf23655fc";
layerId = "03a3df06-bc9c-4df5-8d4c-53a5dfe084e0";
name = Body;
width = 0;
}
);
unicode = 0635;
},
{
glyphname = "sad-ar.1";
layers = (
{
anchors = (
{
name = top;
position = "{425, 335}";
}
);
hints = (
{
place = "{150, 80}";
type = Stem;
},
{
horizontal = 1;
place = "{-250, 70}";
type = Stem;
},
{
horizontal = 1;
place = "{0, 70}";
type = Stem;
},
{
horizontal = 1;
place = "{110, 70}";
type = Stem;
}
);
layerId = "56eb07b5-49f2-447c-9e4d-0a9cf23655fc";
paths = (
{
closed = 1;
nodes = (
"213 180 LINE",
"213 110 LINE",
"656 110 LINE SMOOTH",
"678 110 OFFCURVE",
"696 92 OFFCURVE",
"696 70 CURVE",
"220 70 LINE",
"220 0 LINE",
"759 0 LINE SMOOTH",
"765 0 OFFCURVE",
"780 0 OFFCURVE",
"780 21 CURVE",
"780 160 OFFCURVE",
"710 180 OFFCURVE",
"666 180 CURVE SMOOTH"
);
},
{
closed = 1;
nodes = (
"-50 -250 LINE",
"192 -250 LINE",
"215 -250 OFFCURVE",
"230 -235 OFFCURVE",
"230 -210 CURVE SMOOTH",
"230 250 LINE",
"150 230 LINE",
"150 -180 LINE",
"50 -180 LINE",
"29.847 -180 OFFCURVE",
"13.184 -174.526 OFFCURVE",
"2 -160 CURVE"
);
}
);
width = 820;
},
{
associatedMasterId = "56eb07b5-49f2-447c-9e4d-0a9cf23655fc";
layerId = "03a3df06-bc9c-4df5-8d4c-53a5dfe084e0";
name = Body;
width = 0;
}
);
},
{
glyphname = "sad-ar.fina";
layers = (
{
anchors = (
{
name = top;
position = "{425, 335}";
}
);
hints = (
{
place = "{150, 80}";
type = Stem;
},
{
horizontal = 1;
place = "{-250, 70}";
type = Stem;
},
{
horizontal = 1;
place = "{0, 70}";
type = Stem;
},
{
horizontal = 1;
place = "{110, 70}";
type = Stem;
}
);
layerId = "56eb07b5-49f2-447c-9e4d-0a9cf23655fc";
paths = (
{
closed = 1;
nodes = (
"-50 -250 LINE",
"192 -250 LINE SMOOTH",
"215 -250 OFFCURVE",
"230 -235 OFFCURVE",
"230 -210 CURVE SMOOTH",
"230 180 LINE",
"150 180 LINE",
"150 -180 LINE",
"50 -180 LINE",
"29.847 -180 OFFCURVE",
"13.184 -174.526 OFFCURVE",
"2 -160 CURVE"
);
},
{
closed = 1;
nodes = (
"110.1 190 LINE",
"182.142 117.972 LINE",
"229.606 146.906 LINE",
"229.606 180 LINE",
"150 260.038 LINE"
);
},
{
closed = 1;
nodes = (
"213 180 LINE",
"213 110 LINE",
"656 110 LINE SMOOTH",
"678 110 OFFCURVE",
"696 92 OFFCURVE",
"696 70 CURVE",
"220 70 LINE",
"220 0 LINE",
"759 0 LINE SMOOTH",
"765 0 OFFCURVE",
"780 0 OFFCURVE",
"780 21 CURVE",
"780 160 OFFCURVE",
"710 180 OFFCURVE",
"666 180 CURVE SMOOTH"
);
},
{
closed = 1;
nodes = (
"820 70 LINE",
"719 70 LINE",
"719 0 LINE",
"820 0 LINE"
);
}
);
width = 820;
}
);
},
{
glyphname = "sad-ar.fina.1";
layers = (
{
anchors = (
{
name = top;
position = "{425, 335}";
}
);
hints = (
{
place = "{150, 80}";
type = Stem;
},
{
horizontal = 1;
place = "{-250, 70}";
type = Stem;
},
{
horizontal = 1;
place = "{0, 70}";
type = Stem;
},
{
horizontal = 1;
place = "{110, 70}";
type = Stem;
}
);
layerId = "56eb07b5-49f2-447c-9e4d-0a9cf23655fc";
paths = (
{
closed = 1;
nodes = (
"820 70 LINE",
"720 70 LINE",
"720 0 LINE",
"820 0 LINE"
);
},
{
closed = 1;
nodes = (
"213 180 LINE",
"213 110 LINE",
"656 110 LINE SMOOTH",
"678 110 OFFCURVE",
"696 92 OFFCURVE",
"696 70 CURVE",
"220 70 LINE",
"220 0 LINE",
"759 0 LINE SMOOTH",
"765 0 OFFCURVE",
"780 0 OFFCURVE",
"780 21 CURVE",
"780 160 OFFCURVE",
"710 180 OFFCURVE",
"666 180 CURVE SMOOTH"
);
},
{
closed = 1;
nodes = (
"-50 -250 LINE",
"192 -250 LINE",
"215 -250 OFFCURVE",
"230 -235 OFFCURVE",
"230 -210 CURVE SMOOTH",
"230 250 LINE",
"150 230 LINE",
"150 -180 LINE",
"50 -180 LINE",
"29.847 -180 OFFCURVE",
"13.184 -174.526 OFFCURVE",
"2 -160 CURVE"
);
}
);
width = 820;
}
);
},
{
glyphname = "sad-ar.init";
layers = (
{
anchors = (
{
name = top;
position = "{300, 335}";
}
);
hints = (
{
place = "{0, 80}";
type = Stem;
},
{
horizontal = 1;
place = "{0, 70}";
type = Stem;
},
{
horizontal = 1;
place = "{110, 70}";
type = Stem;
}
);
layerId = "56eb07b5-49f2-447c-9e4d-0a9cf23655fc";
paths = (
{
closed = 1;
nodes = (
"63 180 LINE",
"63 110 LINE",
"506 110 LINE SMOOTH",
"528 110 OFFCURVE",
"546 92 OFFCURVE",
"546 70 CURVE",
"-20 70 LINE",
"-20 0 LINE",
"609 0 LINE SMOOTH",
"615 0 OFFCURVE",
"630 0 OFFCURVE",
"630 21 CURVE",
"630 160 OFFCURVE",
"560 180 OFFCURVE",
"516 180 CURVE SMOOTH"
);
},
{
closed = 1;
nodes = (
"80 0 LINE",
"80 250 LINE",
"0 230 LINE",
"0 0 LINE"
);
}
);
width = 670;
},
{
associatedMasterId = "56eb07b5-49f2-447c-9e4d-0a9cf23655fc";
layerId = "03a3df06-bc9c-4df5-8d4c-53a5dfe084e0";
name = Body;
width = 0;
}
);
},
{
glyphname = "sad-ar.medi";
layers = (
{
anchors = (
{
name = top;
position = "{300, 335}";
}
);
hints = (
{
place = "{0, 80}";
type = Stem;
},
{
horizontal = 1;
place = "{0, 70}";
type = Stem;
},
{
horizontal = 1;
place = "{110, 70}";
type = Stem;
}
);
layerId = "56eb07b5-49f2-447c-9e4d-0a9cf23655fc";
paths = (
{
closed = 1;
nodes = (
"63 180 LINE",
"63 110 LINE",
"506 110 LINE SMOOTH",
"528 110 OFFCURVE",
"546 92 OFFCURVE",
"546 70 CURVE",
"-20 70 LINE",
"-20 0 LINE",
"609 0 LINE SMOOTH",
"615 0 OFFCURVE",
"630 0 OFFCURVE",
"630 21 CURVE",
"630 160 OFFCURVE",
"560 180 OFFCURVE",
"516 180 CURVE SMOOTH"
);
},
{
closed = 1;
nodes = (
"80 0 LINE",
"80 250 LINE",
"0 230 LINE",
"0 0 LINE"
);
},
{
closed = 1;
nodes = (
"670 70 LINE",
"570 70 LINE",
"570 0 LINE",
"670 0 LINE"
);
}
);
width = 670;
}
);
},
{
glyphname = "tah-ar";
layers = (
{
anchors = (
{
name = top;
position = "{400, 335}";
}
);
hints = (
{
place = "{80, 80}";
type = Stem;
},
{
horizontal = 1;
place = "{0, 70}";
type = Stem;
},
{
horizontal = 1;
place = "{110, 70}";
type = Stem;
}
);
layerId = "56eb07b5-49f2-447c-9e4d-0a9cf23655fc";
paths = (
{
closed = 1;
nodes = (
"143 180 LINE",
"143 110 LINE",
"586 110 LINE SMOOTH",
"608 110 OFFCURVE",
"626 92 OFFCURVE",
"626 70 CURVE",
"40.4 70 LINE",
"0 0 LINE",
"689 0 LINE SMOOTH",
"695 0 OFFCURVE",
"710 0 OFFCURVE",
"710 21 CURVE",
"710 160 OFFCURVE",
"640 180 OFFCURVE",
"596 180 CURVE SMOOTH"
);
},
{
closed = 1;
nodes = (
"160 0 LINE",
"160 560 LINE",
"80 540 LINE",
"80 0 LINE"
);
}
);
width = 750;
},
{
associatedMasterId = "56eb07b5-49f2-447c-9e4d-0a9cf23655fc";
layerId = "03a3df06-bc9c-4df5-8d4c-53a5dfe084e0";
name = Body;
width = 0;
}
);
unicode = 0637;
},
{
glyphname = "tah-ar.fina";
layers = (
{
anchors = (
{
name = top;
position = "{400, 335}";
}
);
hints = (
{
place = "{80, 80}";
type = Stem;
},
{
horizontal = 1;
place = "{0, 70}";
type = Stem;
},
{
horizontal = 1;
place = "{110, 70}";
type = Stem;
}
);
layerId = "56eb07b5-49f2-447c-9e4d-0a9cf23655fc";
paths = (
{
closed = 1;
nodes = (
"143 180 LINE",
"143 110 LINE",
"586 110 LINE SMOOTH",
"608 110 OFFCURVE",
"626 92 OFFCURVE",
"626 70 CURVE",
"40.4 70 LINE",
"0 0 LINE",
"689 0 LINE SMOOTH",
"695 0 OFFCURVE",
"710 0 OFFCURVE",
"710 21 CURVE",
"710 160 OFFCURVE",
"640 180 OFFCURVE",
"596 180 CURVE SMOOTH"
);
},
{
closed = 1;
nodes = (
"160 0 LINE",
"160 560 LINE",
"80 540 LINE",
"80 0 LINE"
);
},
{
closed = 1;
nodes = (
"750 70 LINE",
"650 70 LINE",
"650 0 LINE",
"750 0 LINE"
);
}
);
width = 750;
}
);
},
{
glyphname = "tah-ar.init";
layers = (
{
anchors = (
{
name = top;
position = "{300, 335}";
}
);
hints = (
{
place = "{0, 80}";
type = Stem;
},
{
horizontal = 1;
place = "{0, 70}";
type = Stem;
},
{
horizontal = 1;
place = "{110, 70}";
type = Stem;
}
);
layerId = "56eb07b5-49f2-447c-9e4d-0a9cf23655fc";
paths = (
{
closed = 1;
nodes = (
"63 180 LINE",
"63 110 LINE",
"506 110 LINE SMOOTH",
"528 110 OFFCURVE",
"546 92 OFFCURVE",
"546 70 CURVE",
"-20 70 LINE",
"-20 0 LINE",
"609 0 LINE SMOOTH",
"615 0 OFFCURVE",
"630 0 OFFCURVE",
"630 21 CURVE",
"630 160 OFFCURVE",
"560 180 OFFCURVE",
"516 180 CURVE SMOOTH"
);
},
{
closed = 1;
nodes = (
"80 0 LINE",
"80 560 LINE",
"0 540 LINE",
"0 0 LINE"
);
}
);
width = 670;
},
{
associatedMasterId = "56eb07b5-49f2-447c-9e4d-0a9cf23655fc";
layerId = "03a3df06-bc9c-4df5-8d4c-53a5dfe084e0";
name = Body;
width = 0;
}
);
},
{
glyphname = "tah-ar.medi";
layers = (
{
anchors = (
{
name = top;
position = "{300, 335}";
}
);
hints = (
{
place = "{0, 80}";
type = Stem;
},
{
horizontal = 1;
place = "{0, 70}";
type = Stem;
},
{
horizontal = 1;
place = "{110, 70}";
type = Stem;
}
);
layerId = "56eb07b5-49f2-447c-9e4d-0a9cf23655fc";
paths = (
{
closed = 1;
nodes = (
"63 180 LINE",
"63 110 LINE",
"506 110 LINE SMOOTH",
"528 110 OFFCURVE",
"546 92 OFFCURVE",
"546 70 CURVE",
"-20 70 LINE",
"-20 0 LINE",
"609 0 LINE SMOOTH",
"615 0 OFFCURVE",
"630 0 OFFCURVE",
"630 21 CURVE",
"630 160 OFFCURVE",
"560 180 OFFCURVE",
"516 180 CURVE SMOOTH"
);
},
{
closed = 1;
nodes = (
"80 0 LINE",
"80 560 LINE",
"0 540 LINE",
"0 0 LINE"
);
},
{
closed = 1;
nodes = (
"670 70 LINE",
"570 70 LINE",
"570 0 LINE",
"670 0 LINE"
);
}
);
width = 670;
}
);
},
{
glyphname = "ain-ar";
layers = (
{
associatedMasterId = "56eb07b5-49f2-447c-9e4d-0a9cf23655fc";
layerId = "92b51f3e-c29c-471e-8002-96c353e45c95";
name = Regular.1;
paths = (
{
closed = 1;
nodes = (
"90 70 LINE SMOOTH",
"40 70 OFFCURVE",
"0 30 OFFCURVE",
"0 -20 CURVE SMOOTH",
"0 -70 OFFCURVE",
"40 -110 OFFCURVE",
"90 -110 CURVE SMOOTH",
"535 -110 LINE",
"576 -40 LINE",
"100 -40 LINE SMOOTH",
"89 -40 OFFCURVE",
"80 -31 OFFCURVE",
"80 -20 CURVE SMOOTH",
"80 -9 OFFCURVE",
"89 0 OFFCURVE",
"100 0 CURVE SMOOTH",
"240 0 LINE",
"240 70 LINE"
);
},
{
closed = 1;
nodes = (
"640 70 LINE",
"220 70 LINE",
"220 0 LINE",
"599 0 LINE"
);
},
{
closed = 1;
nodes = (
"376 70 LINE",
"366 50 LINE",
"480 50 LINE",
"480 70 LINE",
"340 209.841 LINE",
"296 150 LINE"
);
},
{
closed = 1;
nodes = (
"640 150 LINE",
"220 150 LINE"
);
},
{
closed = 1;
nodes = (
"560 0 LINE",
"560 270 LINE"
);
},
{
closed = 1;
nodes = (
"480 0 LINE",
"480 270 LINE"
);
},
{
closed = 1;
nodes = (
"400 0 LINE",
"400 270 LINE"
);
},
{
closed = 1;
nodes = (
"375.732 69.972 LINE",
"319.376 126.328 LINE"
);
},
{
closed = 1;
nodes = (
"319 126 LINE",
"500 230 LINE"
);
}
);
width = 680;
},
{
anchors = (
{
name = top;
position = "{485, 305}";
}
);
hints = (
{
place = "{354, 63}";
type = Stem;
},
{
horizontal = 1;
place = "{-110, 70}";
type = Stem;
},
{
horizontal = 1;
place = "{0, 70}";
type = Stem;
},
{
horizontal = 1;
place = "{0, 70}";
type = Stem;
}
);
layerId = "56eb07b5-49f2-447c-9e4d-0a9cf23655fc";
paths = (
{
closed = 1;
nodes = (
"90 70 LINE SMOOTH",
"40 70 OFFCURVE",
"0 30 OFFCURVE",
"0 -20 CURVE SMOOTH",
"0 -70 OFFCURVE",
"40 -110 OFFCURVE",
"90 -110 CURVE SMOOTH",
"535 -110 LINE",
"576 -40 LINE",
"100 -40 LINE SMOOTH",
"89 -40 OFFCURVE",
"80 -31 OFFCURVE",
"80 -20 CURVE SMOOTH",
"80 -9 OFFCURVE",
"89 0 OFFCURVE",
"100 0 CURVE SMOOTH",
"340 0 LINE",
"340 70 LINE"
);
},
{
closed = 1;
nodes = (
"640 70 LINE",
"330 70 LINE",
"330 0 LINE",
"599 0 LINE"
);
},
{
closed = 1;
nodes = (
"480 70 LINE",
"433.055 102.64 OFFCURVE",
"416.289 128.377 OFFCURVE",
"416.289 148.168 CURVE SMOOTH",
"416.289 187.05 OFFCURVE",
"481 218 OFFCURVE",
"501.427 227.334 CURVE",
"500 230 LINE",
"447.019 203.661 OFFCURVE",
"353.542 157.404 OFFCURVE",
"353.542 108.914 CURVE SMOOTH",
"353.542 95.99 OFFCURVE",
"360.182 82.907 OFFCURVE",
"376 70 CURVE",
"376 50 LINE",
"480 50 LINE"
);
}
);
width = 680;
}
);
widthMetricsKey = "=(8*80)+40";
unicode = 0639;
},
{
glyphname = "ain-ar.fina";
layers = (
{
anchors = (
{
name = top;
position = "{151, 345}";
}
);
hints = (
{
place = "{0, 80}";
type = Stem;
},
{
place = "{184, 80}";
type = Stem;
},
{
horizontal = 1;
place = "{0, 70}";
type = Stem;
}
);
layerId = "56eb07b5-49f2-447c-9e4d-0a9cf23655fc";
paths = (
{
closed = 1;
nodes = (
"297.512 -218.42 OFFCURVE",
"258.261 -221.082 OFFCURVE",
"223.633 -217.835 CURVE SMOOTH",
"117.872 -207.841 OFFCURVE",
"80.013 -144 OFFCURVE",
"80.013 -89.003 CURVE SMOOTH",
"80.013 -26 OFFCURVE",
"129.696 0.154 OFFCURVE",
"169.601 0 CURVE",
"149.648 70.378 LINE",
"53.935 69.691 OFFCURVE",
"-0.961 -7.998 OFFCURVE",
"0.013 -91.48 CURVE SMOOTH",
"1.208 -193.996 OFFCURVE",
"85.965 -250.338 OFFCURVE",
"198.233 -250.094 CURVE SMOOTH",
"241.684 -250 OFFCURVE",
"288.362 -241.609 OFFCURVE",
"363.812 -207 CURVE"
);
},
{
closed = 1;
nodes = (
"303.82 70 LINE",
"150.225 70 LINE",
"150.225 0 LINE",
"303.82 0 LINE"
);
},
{
closed = 1;
nodes = (
"62 158.999 LINE",
"190.993 30.007 LINE",
"270.585 30.007 LINE",
"287.243 46.569 LINE",
"104.488 229.709 LINE"
);
},
{
closed = 1;
nodes = (
"183.965 250 LINE",
"183.965 11 LINE",
"264 11 LINE",
"264 270 LINE"
);
}
);
width = 304;
},
{
associatedMasterId = "56eb07b5-49f2-447c-9e4d-0a9cf23655fc";
layerId = "03a3df06-bc9c-4df5-8d4c-53a5dfe084e0";
name = Body;
width = 0;
}
);
},
{
glyphname = "ain-ar.init";
layers = (
{
anchors = (
{
name = top;
position = "{135, 305}";
}
);
hints = (
{
place = "{4, 63}";
type = Stem;
},
{
horizontal = 1;
place = "{0, 70}";
type = Stem;
}
);
layerId = "56eb07b5-49f2-447c-9e4d-0a9cf23655fc";
paths = (
{
closed = 1;
nodes = (
"290 70 LINE",
"-20 70 LINE",
"-20 0 LINE",
"249 0 LINE"
);
},
{
closed = 1;
nodes = (
"130 70 LINE",
"83.055 102.64 OFFCURVE",
"66.289 128.377 OFFCURVE",
"66.289 148.168 CURVE SMOOTH",
"66.289 187.05 OFFCURVE",
"131 218 OFFCURVE",
"151.427 227.334 CURVE",
"150 230 LINE",
"97.019 203.661 OFFCURVE",
"3.542 157.404 OFFCURVE",
"3.542 108.914 CURVE SMOOTH",
"3.542 95.99 OFFCURVE",
"10.182 82.907 OFFCURVE",
"26 70 CURVE",
"26 50 LINE",
"130 50 LINE"
);
}
);
width = 330;
},
{
associatedMasterId = "56eb07b5-49f2-447c-9e4d-0a9cf23655fc";
layerId = "03a3df06-bc9c-4df5-8d4c-53a5dfe084e0";
name = Body;
width = 0;
}
);
},
{
glyphname = "ain-ar.medi";
layers = (
{
anchors = (
{
name = top;
position = "{111, 345}";
}
);
hints = (
{
place = "{122, 80}";
type = Stem;
},
{
horizontal = 1;
place = "{0, 70}";
type = Stem;
}
);
layerId = "56eb07b5-49f2-447c-9e4d-0a9cf23655fc";
paths = (
{
closed = 1;
nodes = (
"242 70 LINE",
"-20 70 LINE",
"-20 0 LINE",
"242 0 LINE"
);
},
{
closed = 1;
nodes = (
"0 158.999 LINE",
"128.991 30.007 LINE",
"209.005 30.007 LINE",
"225.567 46.569 LINE",
"42.426 229.709 LINE"
);
},
{
closed = 1;
nodes = (
"122 250 LINE",
"122 11 LINE",
"202 11 LINE",
"202 270 LINE"
);
}
);
width = 242;
},
{
associatedMasterId = "56eb07b5-49f2-447c-9e4d-0a9cf23655fc";
layerId = "03a3df06-bc9c-4df5-8d4c-53a5dfe084e0";
name = Body;
width = 0;
}
);
},
{
glyphname = "fehDotless-ar";
layers = (
{
associatedMasterId = "56eb07b5-49f2-447c-9e4d-0a9cf23655fc";
layerId = "92b51f3e-c29c-471e-8002-96c353e45c95";
name = Regular.1;
paths = (
{
closed = 1;
nodes = (
"440.003 211.038 OFFCURVE",
"448.964 220 OFFCURVE",
"460.003 220 CURVE SMOOTH",
"471.041 220 OFFCURVE",
"480.003 211.038 OFFCURVE",
"480.003 200 CURVE SMOOTH",
"480.003 188.962 OFFCURVE",
"471.041 180 OFFCURVE",
"460.003 180 CURVE SMOOTH",
"448.964 180 OFFCURVE",
"440.003 188.962 OFFCURVE",
"440.003 200 CURVE SMOOTH"
);
},
{
closed = 1;
nodes = (
"359.981 150.328 OFFCURVE",
"404.789 110 OFFCURVE",
"459.981 110 CURVE SMOOTH",
"515.172 110 OFFCURVE",
"559.981 150.328 OFFCURVE",
"559.981 200 CURVE SMOOTH",
"559.981 249.672 OFFCURVE",
"515.172 290 OFFCURVE",
"459.981 290 CURVE SMOOTH",
"404.789 290 OFFCURVE",
"359.981 249.672 OFFCURVE",
"359.981 200 CURVE SMOOTH"
);
},
{
closed = 1;
nodes = (
"480 210 LINE",
"480 155.4 OFFCURVE",
"480 124.6 OFFCURVE",
"480 70 CURVE",
"100 70 LINE",
"79.847 70.357 OFFCURVE",
"63.184 75.474 OFFCURVE",
"52 90 CURVE",
"0 0 LINE",
"539 0 LINE SMOOTH",
"545 0 OFFCURVE",
"560 0 OFFCURVE",
"560 11 CURVE SMOOTH",
"560 84.71 OFFCURVE",
"560 126.29 OFFCURVE",
"560 200 CURVE"
);
}
);
width = 600;
},
{
anchors = (
{
name = top;
position = "{457, 365}";
}
);
hints = (
{
horizontal = 1;
place = "{0, 70}";
type = Stem;
},
{
horizontal = 1;
place = "{110, 70}";
type = Stem;
},
{
horizontal = 1;
place = "{220, 70}";
type = Stem;
},
{
place = "{360, 80}";
type = Stem;
},
{
place = "{492, 80}";
type = Stem;
},
{
horizontal = 1;
place = "{0, 70}";
type = Stem;
},
{
place = "{360, 80}";
type = Stem;
},
{
place = "{492, 80}";
type = Stem;
}
);
layerId = "56eb07b5-49f2-447c-9e4d-0a9cf23655fc";
paths = (
{
closed = 1;
nodes = (
"0 0 LINE",
"350 0 LINE",
"350 70 LINE",
"100 70 LINE",
"77.559 70 OFFCURVE",
"62.149 76.818 OFFCURVE",
"52 90 CURVE"
);
},
{
closed = 1;
nodes = (
"340 0 LINE",
"536 0 LINE SMOOTH",
"559.799 0 OFFCURVE",
"573.289 37.131 OFFCURVE",
"573.289 101.673 CURVE SMOOTH",
"573.289 178.852 OFFCURVE",
"554 290 OFFCURVE",
"460.88 290 CURVE SMOOTH",
"404.789 290 OFFCURVE",
"359.98 249.672 OFFCURVE",
"359.98 200 CURVE SMOOTH",
"359.98 150.328 OFFCURVE",
"404.789 110 OFFCURVE",
"459.976 110 CURVE SMOOTH",
"470.259 110 OFFCURVE",
"480.391 111.4 OFFCURVE",
"490.105 114.162 CURVE",
"491.509 106.753 OFFCURVE",
"492.265 99.274 OFFCURVE",
"492.265 91.801 CURVE SMOOTH",
"492.265 84.504 OFFCURVE",
"491.544 77.214 OFFCURVE",
"490 70 CURVE",
"340 70 LINE"
);
},
{
closed = 1;
nodes = (
"440.003 211.038 OFFCURVE",
"448.964 220 OFFCURVE",
"460.003 220 CURVE SMOOTH",
"471.041 220 OFFCURVE",
"480.003 211.038 OFFCURVE",
"480.003 200 CURVE SMOOTH",
"480.003 188.962 OFFCURVE",
"471.041 180 OFFCURVE",
"460.003 180 CURVE SMOOTH",
"448.964 180 OFFCURVE",
"440.003 188.962 OFFCURVE",
"440.003 200 CURVE SMOOTH"
);
}
);
width = 600;
}
);
widthMetricsKey = "=7*80+40";
unicode = 06A1;
},
{
glyphname = "fehDotless-ar.1";
layers = (
{
anchors = (
{
name = top;
position = "{450, 365}";
}
);
hints = (
{
place = "{480, 80}";
type = Stem;
},
{
place = "{360, 80}";
type = Stem;
},
{
horizontal = 1;
place = "{0, 70}";
type = Stem;
},
{
horizontal = 1;
place = "{110, 70}";
type = Stem;
},
{
horizontal = 1;
place = "{220, 70}";
type = Stem;
},
{
horizontal = 1;
place = "{0, 70}";
type = Stem;
},
{
place = "{360, 80}";
type = Stem;
}
);
layerId = "56eb07b5-49f2-447c-9e4d-0a9cf23655fc";
paths = (
{
closed = 1;
nodes = (
"350 70 LINE",
"100 70 LINE",
"79.847 70 OFFCURVE",
"63.184 75.474 OFFCURVE",
"52 90 CURVE",
"0 0 LINE",
"350 0 LINE"
);
},
{
closed = 1;
nodes = (
"440.003 211.038 OFFCURVE",
"448.964 220 OFFCURVE",
"460.003 220 CURVE SMOOTH",
"471.041 220 OFFCURVE",
"480.003 211.038 OFFCURVE",
"480.003 200 CURVE SMOOTH",
"480.003 188.962 OFFCURVE",
"471.041 180 OFFCURVE",
"460.003 180 CURVE SMOOTH",
"448.964 180 OFFCURVE",
"440.003 188.962 OFFCURVE",
"440.003 200 CURVE SMOOTH"
);
},
{
closed = 1;
nodes = (
"359.98 150.328 OFFCURVE",
"404.789 110 OFFCURVE",
"459.981 110 CURVE SMOOTH",
"515.172 110 OFFCURVE",
"559.981 150.328 OFFCURVE",
"559.981 200 CURVE SMOOTH",
"559.981 249.672 OFFCURVE",
"515.172 290 OFFCURVE",
"459.981 290 CURVE SMOOTH",
"404.789 290 OFFCURVE",
"359.98 249.672 OFFCURVE",
"359.98 200 CURVE SMOOTH"
);
},
{
closed = 1;
nodes = (
"480 210 LINE",
"480 70 LINE",
"340 70 LINE",
"340 0 LINE",
"539 0 LINE",
"545 0 OFFCURVE",
"560 0 OFFCURVE",
"560 11 CURVE",
"560 200 LINE"
);
}
);
width = 600;
}
);
widthMetricsKey = "=7*80+40";
},
{
glyphname = "fehDotless-ar.2";
layers = (
{
anchors = (
{
name = top;
position = "{497, 365}";
}
);
hints = (
{
horizontal = 1;
place = "{0, 70}";
type = Stem;
},
{
horizontal = 1;
place = "{110, 70}";
type = Stem;
},
{
horizontal = 1;
place = "{220, 70}";
type = Stem;
},
{
place = "{400, 80}";
type = Stem;
},
{
place = "{532, 80}";
type = Stem;
},
{
horizontal = 1;
place = "{0, 70}";
type = Stem;
},
{
place = "{532, 80}";
type = Stem;
}
);
layerId = "56eb07b5-49f2-447c-9e4d-0a9cf23655fc";
paths = (
{
closed = 1;
nodes = (
"0 0 LINE",
"390 0 LINE",
"390 70 LINE",
"100 70 LINE",
"77.559 70 OFFCURVE",
"62.149 76.818 OFFCURVE",
"52 90 CURVE"
);
},
{
closed = 1;
nodes = (
"380 0 LINE",
"576 0 LINE SMOOTH",
"599.799 0 OFFCURVE",
"613.289 37.131 OFFCURVE",
"613.289 101.673 CURVE SMOOTH",
"613.289 178.852 OFFCURVE",
"594 290 OFFCURVE",
"500.88 290 CURVE SMOOTH",
"444.789 290 OFFCURVE",
"399.98 249.672 OFFCURVE",
"399.98 200 CURVE SMOOTH",
"399.98 150.328 OFFCURVE",
"444.789 110 OFFCURVE",
"499.976 110 CURVE SMOOTH",
"510.259 110 OFFCURVE",
"520.391 111.4 OFFCURVE",
"530.105 114.162 CURVE",
"531.509 106.753 OFFCURVE",
"532.265 99.274 OFFCURVE",
"532.265 91.801 CURVE SMOOTH",
"532.265 84.504 OFFCURVE",
"531.544 77.214 OFFCURVE",
"530 70 CURVE",
"380 70 LINE"
);
},
{
closed = 1;
nodes = (
"480.003 211.038 OFFCURVE",
"488.964 220 OFFCURVE",
"500.003 220 CURVE SMOOTH",
"511.041 220 OFFCURVE",
"520.003 211.038 OFFCURVE",
"520.003 200 CURVE SMOOTH",
"520.003 188.962 OFFCURVE",
"511.041 180 OFFCURVE",
"500.003 180 CURVE SMOOTH",
"488.964 180 OFFCURVE",
"480.003 188.962 OFFCURVE",
"480.003 200 CURVE SMOOTH"
);
}
);
width = 640;
}
);
widthMetricsKey = "=7.5*80+40";
},
{
glyphname = "fehDotless-ar.3";
layers = (
{
anchors = (
{
name = top;
position = "{490, 365}";
}
);
hints = (
{
place = "{400, 80}";
type = Stem;
},
{
place = "{520, 80}";
type = Stem;
},
{
horizontal = 1;
place = "{0, 70}";
type = Stem;
},
{
horizontal = 1;
place = "{110, 70}";
type = Stem;
},
{
horizontal = 1;
place = "{220, 70}";
type = Stem;
},
{
horizontal = 1;
place = "{0, 70}";
type = Stem;
}
);
layerId = "56eb07b5-49f2-447c-9e4d-0a9cf23655fc";
paths = (
{
closed = 1;
nodes = (
"390 70 LINE",
"100 70 LINE",
"79.847 70 OFFCURVE",
"63.184 75.474 OFFCURVE",
"52 90 CURVE",
"0 0 LINE",
"390 0 LINE"
);
},
{
closed = 1;
nodes = (
"480.003 211.038 OFFCURVE",
"488.964 220 OFFCURVE",
"500.003 220 CURVE SMOOTH",
"511.041 220 OFFCURVE",
"520.003 211.038 OFFCURVE",
"520.003 200 CURVE SMOOTH",
"520.003 188.962 OFFCURVE",
"511.041 180 OFFCURVE",
"500.003 180 CURVE SMOOTH",
"488.964 180 OFFCURVE",
"480.003 188.962 OFFCURVE",
"480.003 200 CURVE SMOOTH"
);
},
{
closed = 1;
nodes = (
"399.98 150.328 OFFCURVE",
"444.789 110 OFFCURVE",
"499.981 110 CURVE SMOOTH",
"555.172 110 OFFCURVE",
"599.981 150.328 OFFCURVE",
"599.981 200 CURVE SMOOTH",
"599.981 249.672 OFFCURVE",
"555.172 290 OFFCURVE",
"499.981 290 CURVE SMOOTH",
"444.789 290 OFFCURVE",
"399.98 249.672 OFFCURVE",
"399.98 200 CURVE SMOOTH"
);
},
{
closed = 1;
nodes = (
"520 210 LINE",
"520 70 LINE",
"380 70 LINE",
"380 0 LINE",
"579 0 LINE",
"585 0 OFFCURVE",
"600 0 OFFCURVE",
"600 11 CURVE",
"600 200 LINE"
);
}
);
width = 640;
}
);
widthMetricsKey = "=7.5*80+40";
},
{
glyphname = "fehDotless-ar.fina";
layers = (
{
anchors = (
{
name = top;
position = "{457, 365}";
}
);
hints = (
{
horizontal = 1;
place = "{0, 70}";
type = Stem;
},
{
horizontal = 1;
place = "{110, 70}";
type = Stem;
},
{
horizontal = 1;
place = "{220, 70}";
type = Stem;
},
{
place = "{360, 80}";
type = Stem;
},
{
place = "{492, 80}";
type = Stem;
},
{
horizontal = 1;
place = "{0, 70}";
type = Stem;
},
{
place = "{360, 80}";
type = Stem;
},
{
place = "{492, 80}";
type = Stem;
}
);
layerId = "56eb07b5-49f2-447c-9e4d-0a9cf23655fc";
paths = (
{
closed = 1;
nodes = (
"600 70 LINE",
"500 70 LINE",
"500 0 LINE",
"600 0 LINE"
);
},
{
closed = 1;
nodes = (
"0 0 LINE",
"350 0 LINE",
"350 70 LINE",
"100 70 LINE",
"77.559 70 OFFCURVE",
"62.149 76.818 OFFCURVE",
"52 90 CURVE"
);
},
{
closed = 1;
nodes = (
"340 0 LINE",
"536 0 LINE SMOOTH",
"559.799 0 OFFCURVE",
"573.289 37.131 OFFCURVE",
"573.289 101.673 CURVE SMOOTH",
"573.289 178.852 OFFCURVE",
"554 290 OFFCURVE",
"460.88 290 CURVE SMOOTH",
"404.789 290 OFFCURVE",
"359.98 249.672 OFFCURVE",
"359.98 200 CURVE SMOOTH",
"359.98 150.328 OFFCURVE",
"404.789 110 OFFCURVE",
"459.976 110 CURVE SMOOTH",
"470.259 110 OFFCURVE",
"480.391 111.4 OFFCURVE",
"490.105 114.162 CURVE",
"491.509 106.753 OFFCURVE",
"492.265 99.274 OFFCURVE",
"492.265 91.801 CURVE SMOOTH",
"492.265 84.504 OFFCURVE",
"491.544 77.214 OFFCURVE",
"490 70 CURVE",
"340 70 LINE"
);
},
{
closed = 1;
nodes = (
"440.003 211.038 OFFCURVE",
"448.964 220 OFFCURVE",
"460.003 220 CURVE SMOOTH",
"471.041 220 OFFCURVE",
"480.003 211.038 OFFCURVE",
"480.003 200 CURVE SMOOTH",
"480.003 188.962 OFFCURVE",
"471.041 180 OFFCURVE",
"460.003 180 CURVE SMOOTH",
"448.964 180 OFFCURVE",
"440.003 188.962 OFFCURVE",
"440.003 200 CURVE SMOOTH"
);
}
);
width = 600;
}
);
widthMetricsKey = "=7*80+40";
},
{
glyphname = "fehDotless-ar.fina.1";
layers = (
{
anchors = (
{
name = top;
position = "{450, 365}";
}
);
hints = (
{
place = "{480, 80}";
type = Stem;
},
{
horizontal = 1;
place = "{0, 70}";
type = Stem;
},
{
horizontal = 1;
place = "{110, 70}";
type = Stem;
},
{
horizontal = 1;
place = "{220, 70}";
type = Stem;
},
{
place = "{360, 80}";
type = Stem;
},
{
horizontal = 1;
place = "{0, 70}";
type = Stem;
},
{
place = "{360, 80}";
type = Stem;
}
);
layerId = "56eb07b5-49f2-447c-9e4d-0a9cf23655fc";
paths = (
{
closed = 1;
nodes = (
"600 70 LINE",
"500 70 LINE",
"500 0 LINE",
"600 0 LINE"
);
},
{
closed = 1;
nodes = (
"350 70 LINE",
"100 70 LINE",
"79.847 70 OFFCURVE",
"63.184 75.474 OFFCURVE",
"52 90 CURVE",
"0 0 LINE",
"350 0 LINE"
);
},
{
closed = 1;
nodes = (
"440.003 211.038 OFFCURVE",
"448.964 220 OFFCURVE",
"460.003 220 CURVE SMOOTH",
"471.041 220 OFFCURVE",
"480.003 211.038 OFFCURVE",
"480.003 200 CURVE SMOOTH",
"480.003 188.962 OFFCURVE",
"471.041 180 OFFCURVE",
"460.003 180 CURVE SMOOTH",
"448.964 180 OFFCURVE",
"440.003 188.962 OFFCURVE",
"440.003 200 CURVE SMOOTH"
);
},
{
closed = 1;
nodes = (
"359.98 150.328 OFFCURVE",
"404.789 110 OFFCURVE",
"459.981 110 CURVE SMOOTH",
"515.172 110 OFFCURVE",
"559.981 150.328 OFFCURVE",
"559.981 200 CURVE SMOOTH",
"559.981 249.672 OFFCURVE",
"515.172 290 OFFCURVE",
"459.981 290 CURVE SMOOTH",
"404.789 290 OFFCURVE",
"359.98 249.672 OFFCURVE",
"359.98 200 CURVE SMOOTH"
);
},
{
closed = 1;
nodes = (
"480 210 LINE",
"480 70 LINE",
"340 70 LINE",
"340 0 LINE",
"539 0 LINE",
"545 0 OFFCURVE",
"560 0 OFFCURVE",
"560 11 CURVE",
"560 200 LINE"
);
}
);
width = 600;
}
);
widthMetricsKey = "=7*80+40";
},
{
glyphname = "fehDotless-ar.fina.2";
layers = (
{
anchors = (
{
name = top;
position = "{497, 365}";
}
);
hints = (
{
horizontal = 1;
place = "{0, 70}";
type = Stem;
},
{
horizontal = 1;
place = "{110, 70}";
type = Stem;
},
{
horizontal = 1;
place = "{220, 70}";
type = Stem;
},
{
place = "{400, 80}";
type = Stem;
},
{
place = "{532, 80}";
type = Stem;
},
{
horizontal = 1;
place = "{0, 70}";
type = Stem;
},
{
place = "{532, 80}";
type = Stem;
}
);
layerId = "56eb07b5-49f2-447c-9e4d-0a9cf23655fc";
paths = (
{
closed = 1;
nodes = (
"640 70 LINE",
"540 70 LINE",
"540 0 LINE",
"640 0 LINE"
);
},
{
closed = 1;
nodes = (
"0 0 LINE",
"390 0 LINE",
"390 70 LINE",
"100 70 LINE",
"77.559 70 OFFCURVE",
"62.149 76.818 OFFCURVE",
"52 90 CURVE"
);
},
{
closed = 1;
nodes = (
"380 0 LINE",
"576 0 LINE SMOOTH",
"599.799 0 OFFCURVE",
"613.289 37.131 OFFCURVE",
"613.289 101.673 CURVE SMOOTH",
"613.289 178.852 OFFCURVE",
"594 290 OFFCURVE",
"500.88 290 CURVE SMOOTH",
"444.789 290 OFFCURVE",
"399.98 249.672 OFFCURVE",
"399.98 200 CURVE SMOOTH",
"399.98 150.328 OFFCURVE",
"444.789 110 OFFCURVE",
"499.976 110 CURVE SMOOTH",
"510.259 110 OFFCURVE",
"520.391 111.4 OFFCURVE",
"530.105 114.162 CURVE",
"531.509 106.753 OFFCURVE",
"532.265 99.274 OFFCURVE",
"532.265 91.801 CURVE SMOOTH",
"532.265 84.504 OFFCURVE",
"531.544 77.214 OFFCURVE",
"530 70 CURVE",
"380 70 LINE"
);
},
{
closed = 1;
nodes = (
"480.003 211.038 OFFCURVE",
"488.964 220 OFFCURVE",
"500.003 220 CURVE SMOOTH",
"511.041 220 OFFCURVE",
"520.003 211.038 OFFCURVE",
"520.003 200 CURVE SMOOTH",
"520.003 188.962 OFFCURVE",
"511.041 180 OFFCURVE",
"500.003 180 CURVE SMOOTH",
"488.964 180 OFFCURVE",
"480.003 188.962 OFFCURVE",
"480.003 200 CURVE SMOOTH"
);
}
);
width = 640;
}
);
widthMetricsKey = "=7.5*80+40";
},
{
glyphname = "fehDotless-ar.fina.3";
layers = (
{
anchors = (
{
name = top;
position = "{490, 365}";
}
);
hints = (
{
place = "{520, 80}";
type = Stem;
},
{
horizontal = 1;
place = "{0, 70}";
type = Stem;
},
{
horizontal = 1;
place = "{110, 70}";
type = Stem;
},
{
horizontal = 1;
place = "{220, 70}";
type = Stem;
},
{
place = "{400, 80}";
type = Stem;
},
{
place = "{400, 80}";
type = Stem;
},
{
horizontal = 1;
place = "{0, 70}";
type = Stem;
}
);
layerId = "56eb07b5-49f2-447c-9e4d-0a9cf23655fc";
paths = (
{
closed = 1;
nodes = (
"640 70 LINE",
"540 70 LINE",
"540 0 LINE",
"640 0 LINE"
);
},
{
closed = 1;
nodes = (
"390 70 LINE",
"100 70 LINE",
"79.847 70 OFFCURVE",
"63.184 75.474 OFFCURVE",
"52 90 CURVE",
"0 0 LINE",
"390 0 LINE"
);
},
{
closed = 1;
nodes = (
"480.003 211.038 OFFCURVE",
"488.964 220 OFFCURVE",
"500.003 220 CURVE SMOOTH",
"511.041 220 OFFCURVE",
"520.003 211.038 OFFCURVE",
"520.003 200 CURVE SMOOTH",
"520.003 188.962 OFFCURVE",
"511.041 180 OFFCURVE",
"500.003 180 CURVE SMOOTH",
"488.964 180 OFFCURVE",
"480.003 188.962 OFFCURVE",
"480.003 200 CURVE SMOOTH"
);
},
{
closed = 1;
nodes = (
"399.98 150.328 OFFCURVE",
"444.789 110 OFFCURVE",
"499.981 110 CURVE SMOOTH",
"555.172 110 OFFCURVE",
"599.981 150.328 OFFCURVE",
"599.981 200 CURVE SMOOTH",
"599.981 249.672 OFFCURVE",
"555.172 290 OFFCURVE",
"499.981 290 CURVE SMOOTH",
"444.789 290 OFFCURVE",
"399.98 249.672 OFFCURVE",
"399.98 200 CURVE SMOOTH"
);
},
{
closed = 1;
nodes = (
"520 210 LINE",
"520 70 LINE",
"380 70 LINE",
"380 0 LINE",
"579 0 LINE",
"585 0 OFFCURVE",
"600 0 OFFCURVE",
"600 11 CURVE",
"600 200 LINE"
);
}
);
width = 640;
}
);
widthMetricsKey = "=7.5*80+40";
},
{
glyphname = "fehDotless-ar.init";
layers = (
{
anchors = (
{
name = top;
position = "{97, 365}";
}
);
hints = (
{
horizontal = 1;
place = "{0, 70}";
type = Stem;
},
{
horizontal = 1;
place = "{110, 70}";
type = Stem;
},
{
horizontal = 1;
place = "{220, 70}";
type = Stem;
},
{
place = "{0, 80}";
type = Stem;
},
{
place = "{132, 80}";
type = Stem;
}
);
layerId = "56eb07b5-49f2-447c-9e4d-0a9cf23655fc";
paths = (
{
closed = 1;
nodes = (
"-20 0 LINE",
"176 0 LINE SMOOTH",
"199.799 0 OFFCURVE",
"213.289 37.131 OFFCURVE",
"213.289 101.673 CURVE SMOOTH",
"213.289 178.852 OFFCURVE",
"194 290 OFFCURVE",
"100.88 290 CURVE SMOOTH",
"44.789 290 OFFCURVE",
"-0.02 249.672 OFFCURVE",
"-0.02 200 CURVE SMOOTH",
"-0.02 150.328 OFFCURVE",
"44.789 110 OFFCURVE",
"99.976 110 CURVE SMOOTH",
"110.259 110 OFFCURVE",
"120.391 111.4 OFFCURVE",
"130.105 114.162 CURVE",
"131.509 106.753 OFFCURVE",
"132.265 99.274 OFFCURVE",
"132.265 91.801 CURVE SMOOTH",
"132.265 84.504 OFFCURVE",
"131.544 77.214 OFFCURVE",
"130 70 CURVE",
"-20 70 LINE"
);
},
{
closed = 1;
nodes = (
"80.003 211.038 OFFCURVE",
"88.964 220 OFFCURVE",
"100.003 220 CURVE SMOOTH",
"111.041 220 OFFCURVE",
"120.003 211.038 OFFCURVE",
"120.003 200 CURVE SMOOTH",
"120.003 188.962 OFFCURVE",
"111.041 180 OFFCURVE",
"100.003 180 CURVE SMOOTH",
"88.964 180 OFFCURVE",
"80.003 188.962 OFFCURVE",
"80.003 200 CURVE SMOOTH"
);
}
);
width = 223;
},
{
associatedMasterId = "56eb07b5-49f2-447c-9e4d-0a9cf23655fc";
layerId = "03a3df06-bc9c-4df5-8d4c-53a5dfe084e0";
name = Body;
width = 0;
}
);
},
{
glyphname = "fehDotless-ar.init.1";
layers = (
{
anchors = (
{
name = top;
position = "{90, 365}";
}
);
hints = (
{
place = "{120, 80}";
type = Stem;
},
{
horizontal = 1;
place = "{0, 70}";
type = Stem;
},
{
horizontal = 1;
place = "{110, 70}";
type = Stem;
},
{
horizontal = 1;
place = "{220, 70}";
type = Stem;
},
{
place = "{0, 80}";
type = Stem;
}
);
layerId = "56eb07b5-49f2-447c-9e4d-0a9cf23655fc";
paths = (
{
closed = 1;
nodes = (
"80.003 211.038 OFFCURVE",
"88.964 220 OFFCURVE",
"100.003 220 CURVE SMOOTH",
"111.041 220 OFFCURVE",
"120.003 211.038 OFFCURVE",
"120.003 200 CURVE SMOOTH",
"120.003 188.962 OFFCURVE",
"111.041 180 OFFCURVE",
"100.003 180 CURVE SMOOTH",
"88.964 180 OFFCURVE",
"80.003 188.962 OFFCURVE",
"80.003 200 CURVE SMOOTH"
);
},
{
closed = 1;
nodes = (
"-0.02 150.328 OFFCURVE",
"44.789 110 OFFCURVE",
"99.981 110 CURVE SMOOTH",
"155.172 110 OFFCURVE",
"199.981 150.328 OFFCURVE",
"199.981 200 CURVE SMOOTH",
"199.981 249.672 OFFCURVE",
"155.172 290 OFFCURVE",
"99.981 290 CURVE SMOOTH",
"44.789 290 OFFCURVE",
"-0.02 249.672 OFFCURVE",
"-0.02 200 CURVE SMOOTH"
);
},
{
closed = 1;
nodes = (
"120 210 LINE",
"120 70 LINE",
"-20 70 LINE",
"-20 0 LINE",
"179 0 LINE",
"185 0 OFFCURVE",
"200 0 OFFCURVE",
"200 11 CURVE",
"200 200 LINE"
);
}
);
width = 223;
},
{
associatedMasterId = "56eb07b5-49f2-447c-9e4d-0a9cf23655fc";
layerId = "03a3df06-bc9c-4df5-8d4c-53a5dfe084e0";
name = Body;
width = 0;
}
);
},
{
glyphname = "fehDotless-ar.medi";
layers = (
{
associatedMasterId = "56eb07b5-49f2-447c-9e4d-0a9cf23655fc";
layerId = "92b51f3e-c29c-471e-8002-96c353e45c95";
name = Regular.1;
paths = (
{
closed = 1;
nodes = (
"242 70 LINE",
"-20 70 LINE",
"-20 0 LINE",
"242 0 LINE"
);
},
{
closed = 1;
nodes = (
"0 158.999 LINE",
"128.991 30.007 LINE",
"209.005 30.007 LINE",
"225.567 46.569 LINE",
"42.426 229.709 LINE"
);
},
{
closed = 1;
nodes = (
"122 250 LINE",
"122 11 LINE",
"202 11 LINE",
"202 270 LINE"
);
}
);
width = 242;
},
{
anchors = (
{
name = top;
position = "{101, 385}";
}
);
hints = (
{
place = "{126, 80}";
type = Stem;
},
{
horizontal = 1;
place = "{0, 70}";
type = Stem;
},
{
horizontal = 1;
place = "{240, 70}";
type = Stem;
},
{
place = "{0, 73}";
type = Stem;
}
);
layerId = "56eb07b5-49f2-447c-9e4d-0a9cf23655fc";
paths = (
{
closed = 1;
nodes = (
"242 70 LINE",
"-20 70 LINE",
"-20 0 LINE",
"242 0 LINE"
);
},
{
closed = 1;
nodes = (
"205.95 206.8 LINE SMOOTH",
"205.95 263.813 OFFCURVE",
"159.613 310.1 OFFCURVE",
"102.6 310.1 CURVE SMOOTH",
"45.587 310.1 OFFCURVE",
"-0.7 263.813 OFFCURVE",
"-0.7 206.8 CURVE SMOOTH",
"-0.7 178.574 OFFCURVE",
"10.537 152.869 OFFCURVE",
"29.021 134.323 CURVE SMOOTH",
"132.991 30.007 LINE",
"213.005 30.007 LINE",
"229.567 46.569 LINE",
"81.826 194.422 LINE SMOOTH",
"76.799 199.453 OFFCURVE",
"73.3 206.135 OFFCURVE",
"73.3 213.8 CURVE SMOOTH",
"73.3 228.315 OFFCURVE",
"85.085 240.1 OFFCURVE",
"99.6 240.1 CURVE SMOOTH",
"114.115 240.1 OFFCURVE",
"125.95 228.315 OFFCURVE",
"125.95 213.8 CURVE SMOOTH",
"125.95 11 LINE",
"205.95 11 LINE"
);
}
);
width = 242;
},
{
associatedMasterId = "56eb07b5-49f2-447c-9e4d-0a9cf23655fc";
layerId = "03a3df06-bc9c-4df5-8d4c-53a5dfe084e0";
name = Body;
width = 0;
}
);
},
{
glyphname = "qafDotless-ar";
layers = (
{
anchors = (
{
name = top;
position = "{96, 255}";
}
);
hints = (
{
horizontal = 1;
place = "{-250, 70}";
type = Stem;
},
{
horizontal = 1;
place = "{-140, 70}";
type = Stem;
},
{
horizontal = 1;
place = "{0, 70}";
type = Stem;
},
{
horizontal = 1;
place = "{110, 70}";
type = Stem;
}
);
layerId = "56eb07b5-49f2-447c-9e4d-0a9cf23655fc";
paths = (
{
closed = 1;
nodes = (
"80 101 OFFCURVE",
"89 110 OFFCURVE",
"100 110 CURVE SMOOTH",
"111 110 OFFCURVE",
"120 101 OFFCURVE",
"120 90 CURVE SMOOTH",
"120 79 OFFCURVE",
"111 70 OFFCURVE",
"100 70 CURVE SMOOTH",
"89 70 OFFCURVE",
"80 79 OFFCURVE",
"80 90 CURVE SMOOTH"
);
},
{
closed = 1;
nodes = (
"0 30 OFFCURVE",
"45 0 OFFCURVE",
"100 0 CURVE SMOOTH",
"165 0 OFFCURVE",
"200 30 OFFCURVE",
"200 90 CURVE SMOOTH",
"200 140 OFFCURVE",
"155 180 OFFCURVE",
"100 180 CURVE SMOOTH",
"45 180 OFFCURVE",
"0 140 OFFCURVE",
"0 90 CURVE SMOOTH"
);
},
{
closed = 1;
nodes = (
"76 -70 LINE",
"0 -140 LINE",
"132 -140 LINE SMOOTH",
"154 -140 OFFCURVE",
"172 -158 OFFCURVE",
"172 -180 CURVE",
"-24 -180 LINE",
"-64 -250 LINE",
"235 -250 LINE SMOOTH",
"241 -250 OFFCURVE",
"256 -250 OFFCURVE",
"256 -229 CURVE",
"256 -90 OFFCURVE",
"186 -70 OFFCURVE",
"142 -70 CURVE SMOOTH"
);
},
{
closed = 1;
nodes = (
"0 -140 LINE",
"28 -140 LINE",
"179 27 LINE",
"190 61 LINE",
"183 61 LINE"
);
}
);
width = 296;
},
{
associatedMasterId = "56eb07b5-49f2-447c-9e4d-0a9cf23655fc";
layerId = "03a3df06-bc9c-4df5-8d4c-53a5dfe084e0";
name = Body;
width = 0;
}
);
unicode = 066F;
},
{
glyphname = "qafDotless-ar.fina";
layers = (
{
anchors = (
{
name = top;
position = "{96, 255}";
}
);
hints = (
{
horizontal = 1;
place = "{-250, 70}";
type = Stem;
},
{
horizontal = 1;
place = "{-140, 70}";
type = Stem;
},
{
horizontal = 1;
place = "{0, 70}";
type = Stem;
},
{
horizontal = 1;
place = "{110, 70}";
type = Stem;
}
);
layerId = "56eb07b5-49f2-447c-9e4d-0a9cf23655fc";
paths = (
{
closed = 1;
nodes = (
"80 101 OFFCURVE",
"89 110 OFFCURVE",
"100 110 CURVE SMOOTH",
"111 110 OFFCURVE",
"120 101 OFFCURVE",
"120 90 CURVE SMOOTH",
"120 79 OFFCURVE",
"111 70 OFFCURVE",
"100 70 CURVE SMOOTH",
"89 70 OFFCURVE",
"80 79 OFFCURVE",
"80 90 CURVE SMOOTH"
);
},
{
closed = 1;
nodes = (
"0 30 OFFCURVE",
"45 0 OFFCURVE",
"100 0 CURVE SMOOTH",
"165 0 OFFCURVE",
"200 30 OFFCURVE",
"200 90 CURVE SMOOTH",
"200 140 OFFCURVE",
"155 180 OFFCURVE",
"100 180 CURVE SMOOTH",
"45 180 OFFCURVE",
"0 140 OFFCURVE",
"0 90 CURVE SMOOTH"
);
},
{
closed = 1;
nodes = (
"76 -70 LINE",
"0 -140 LINE",
"132 -140 LINE SMOOTH",
"154 -140 OFFCURVE",
"172 -158 OFFCURVE",
"172 -180 CURVE",
"-24 -180 LINE",
"-64 -250 LINE",
"235 -250 LINE SMOOTH",
"241 -250 OFFCURVE",
"256 -250 OFFCURVE",
"256 -229 CURVE",
"256 -90 OFFCURVE",
"186 -70 OFFCURVE",
"142 -70 CURVE SMOOTH"
);
},
{
closed = 1;
nodes = (
"0 -140 LINE",
"28 -140 LINE",
"179 27 LINE",
"190 61 LINE",
"183 61 LINE"
);
},
{
closed = 1;
nodes = (
"249 70 LINE",
"100 70 LINE",
"100 0 LINE",
"249 0 LINE"
);
}
);
width = 256;
}
);
},
{
glyphname = "kaf-ar";
layers = (
{
hints = (
{
place = "{111, 79}";
type = Stem;
},
{
horizontal = 1;
place = "{0, 70}";
type = Stem;
},
{
horizontal = 1;
place = "{110, 70}";
type = Stem;
}
);
layerId = "56eb07b5-49f2-447c-9e4d-0a9cf23655fc";
paths = (
{
closed = 1;
nodes = (
"113 180 LINE",
"62 110 LINE",
"476 110 LINE SMOOTH",
"498 110 OFFCURVE",
"516 92 OFFCURVE",
"516 70 CURVE",
"40.4 70 LINE",
"0 0 LINE",
"579 0 LINE SMOOTH",
"585 0 OFFCURVE",
"600 0 OFFCURVE",
"600 21 CURVE",
"600 160 OFFCURVE",
"530 180 OFFCURVE",
"486 180 CURVE SMOOTH"
);
},
{
closed = 1;
nodes = (
"91.321 126.053 LINE",
"153.815 209.554 OFFCURVE",
"189.211 315.576 OFFCURVE",
"189.211 443.119 CURVE SMOOTH",
"189.211 480.263 OFFCURVE",
"186.209 519.231 OFFCURVE",
"180 560 CURVE",
"100 480 LINE",
"106.84 439.661 OFFCURVE",
"110.571 397.695 OFFCURVE",
"110.571 355.374 CURVE SMOOTH",
"110.571 271.705 OFFCURVE",
"95.987 186.643 OFFCURVE",
"62 110 CURVE"
);
}
);
width = 640;
},
{
associatedMasterId = "56eb07b5-49f2-447c-9e4d-0a9cf23655fc";
layerId = "03a3df06-bc9c-4df5-8d4c-53a5dfe084e0";
name = Body;
width = 0;
}
);
unicode = 0643;
},
{
glyphname = "kaf-ar.1";
layers = (
{
hints = (
{
place = "{40, 80}";
type = Stem;
},
{
horizontal = 1;
place = "{0, 70}";
type = Stem;
},
{
horizontal = 1;
place = "{110, 70}";
type = Stem;
}
);
layerId = "56eb07b5-49f2-447c-9e4d-0a9cf23655fc";
paths = (
{
closed = 1;
nodes = (
"486 180 LINE",
"530 180 OFFCURVE",
"600 160 OFFCURVE",
"600 21 CURVE SMOOTH",
"600 0 OFFCURVE",
"585 0 OFFCURVE",
"579 0 CURVE SMOOTH",
"0 0 LINE",
"40.4 70 LINE",
"516 70 LINE",
"516 92 OFFCURVE",
"498 110 OFFCURVE",
"476 110 CURVE SMOOTH",
"103 110 LINE",
"103 180 LINE"
);
},
{
closed = 1;
nodes = (
"40 110 LINE",
"40 540 LINE",
"120 560 LINE",
"120 110 LINE"
);
}
);
width = 640;
},
{
associatedMasterId = "56eb07b5-49f2-447c-9e4d-0a9cf23655fc";
layerId = "03a3df06-bc9c-4df5-8d4c-53a5dfe084e0";
name = Body;
width = 0;
}
);
},
{
glyphname = "kaf-ar.2";
layers = (
{
hints = (
{
horizontal = 1;
place = "{0, 70}";
type = Stem;
},
{
horizontal = 1;
place = "{110, 70}";
type = Stem;
}
);
layerId = "56eb07b5-49f2-447c-9e4d-0a9cf23655fc";
paths = (
{
closed = 1;
nodes = (
"486 180 LINE",
"530 180 OFFCURVE",
"600 160 OFFCURVE",
"600 21 CURVE",
"600 0 OFFCURVE",
"585 0 OFFCURVE",
"579 0 CURVE SMOOTH",
"0 0 LINE",
"40.4 70 LINE",
"516 70 LINE",
"516 92 OFFCURVE",
"498 110 OFFCURVE",
"476 110 CURVE SMOOTH",
"63.5 110 LINE",
"144.4 250 LINE",
"147 250 LINE",
"120 180 LINE"
);
}
);
width = 640;
},
{
associatedMasterId = "56eb07b5-49f2-447c-9e4d-0a9cf23655fc";
layerId = "03a3df06-bc9c-4df5-8d4c-53a5dfe084e0";
name = Body;
width = 0;
}
);
},
{
glyphname = "kaf-ar.fina";
layers = (
{
hints = (
{
place = "{111, 79}";
type = Stem;
},
{
horizontal = 1;
place = "{0, 70}";
type = Stem;
},
{
horizontal = 1;
place = "{110, 70}";
type = Stem;
},
{
place = "{111, 79}";
type = Stem;
}
);
layerId = "56eb07b5-49f2-447c-9e4d-0a9cf23655fc";
paths = (
{
closed = 1;
nodes = (
"113 180 LINE",
"62 110 LINE",
"476 110 LINE SMOOTH",
"498 110 OFFCURVE",
"516 92 OFFCURVE",
"516 70 CURVE",
"40.4 70 LINE",
"0 0 LINE",
"579 0 LINE SMOOTH",
"585 0 OFFCURVE",
"600 0 OFFCURVE",
"600 21 CURVE",
"600 160 OFFCURVE",
"530 180 OFFCURVE",
"486 180 CURVE SMOOTH"
);
},
{
closed = 1;
nodes = (
"91.321 126.053 LINE",
"153.815 209.554 OFFCURVE",
"189.211 315.576 OFFCURVE",
"189.211 443.119 CURVE SMOOTH",
"189.211 480.263 OFFCURVE",
"186.209 519.231 OFFCURVE",
"180 560 CURVE",
"100 480 LINE",
"106.84 439.661 OFFCURVE",
"110.571 397.695 OFFCURVE",
"110.571 355.374 CURVE SMOOTH",
"110.571 271.705 OFFCURVE",
"95.987 186.643 OFFCURVE",
"62 110 CURVE"
);
},
{
closed = 1;
nodes = (
"640 70 LINE",
"540 70 LINE",
"540 0 LINE",
"640 0 LINE"
);
}
);
width = 640;
}
);
},
{
glyphname = "kaf-ar.fina.1";
layers = (
{
hints = (
{
place = "{40, 80}";
type = Stem;
},
{
horizontal = 1;
place = "{0, 70}";
type = Stem;
},
{
horizontal = 1;
place = "{110, 70}";
type = Stem;
},
{
horizontal = 1;
place = "{0, 70}";
type = Stem;
}
);
layerId = "56eb07b5-49f2-447c-9e4d-0a9cf23655fc";
paths = (
{
closed = 1;
nodes = (
"640 70 LINE",
"540 70 LINE",
"540 0 LINE",
"640 0 LINE"
);
},
{
closed = 1;
nodes = (
"103 180 LINE",
"103 110 LINE",
"476 110 LINE SMOOTH",
"498 110 OFFCURVE",
"516 92 OFFCURVE",
"516 70 CURVE",
"40.4 70 LINE",
"0 0 LINE",
"579 0 LINE SMOOTH",
"585 0 OFFCURVE",
"600 0 OFFCURVE",
"600 21 CURVE SMOOTH",
"600 160 OFFCURVE",
"530 180 OFFCURVE",
"486 180 CURVE SMOOTH"
);
},
{
closed = 1;
nodes = (
"120 110 LINE",
"120 560 LINE",
"40 540 LINE",
"40 110 LINE"
);
}
);
width = 640;
}
);
},
{
glyphname = "kaf-ar.fina.2";
layers = (
{
hints = (
{
horizontal = 1;
place = "{0, 70}";
type = Stem;
},
{
horizontal = 1;
place = "{110, 70}";
type = Stem;
},
{
horizontal = 1;
place = "{0, 70}";
type = Stem;
}
);
layerId = "56eb07b5-49f2-447c-9e4d-0a9cf23655fc";
paths = (
{
closed = 1;
nodes = (
"640 70 LINE",
"540 70 LINE",
"540 0 LINE",
"640 0 LINE"
);
},
{
closed = 1;
nodes = (
"120 180 LINE",
"147 250 LINE",
"144.4 250 LINE",
"63.5 110 LINE",
"476 110 LINE SMOOTH",
"498 110 OFFCURVE",
"516 92 OFFCURVE",
"516 70 CURVE",
"40.4 70 LINE",
"0 0 LINE",
"579 0 LINE SMOOTH",
"585 0 OFFCURVE",
"600 0 OFFCURVE",
"600 21 CURVE",
"600 160 OFFCURVE",
"530 180 OFFCURVE",
"486 180 CURVE SMOOTH"
);
}
);
width = 640;
}
);
},
{
glyphname = "kaf-ar.init";
layers = (
{
hints = (
{
place = "{49, 79}";
type = Stem;
},
{
horizontal = 1;
place = "{0, 70}";
type = Stem;
},
{
horizontal = 1;
place = "{110, 70}";
type = Stem;
}
);
layerId = "56eb07b5-49f2-447c-9e4d-0a9cf23655fc";
paths = (
{
closed = 1;
nodes = (
"51 180 LINE",
"0 110 LINE",
"414 110 LINE SMOOTH",
"436 110 OFFCURVE",
"454 92 OFFCURVE",
"454 70 CURVE",
"-20 70 LINE",
"-20 0 LINE",
"517 0 LINE SMOOTH",
"523 0 OFFCURVE",
"538 0 OFFCURVE",
"538 21 CURVE",
"538 160 OFFCURVE",
"468 180 OFFCURVE",
"424 180 CURVE SMOOTH"
);
},
{
closed = 1;
nodes = (
"29.321 126.053 LINE",
"91.815 209.554 OFFCURVE",
"127.211 315.576 OFFCURVE",
"127.211 443.119 CURVE SMOOTH",
"127.211 480.263 OFFCURVE",
"124.209 519.231 OFFCURVE",
"118 560 CURVE",
"38 480 LINE",
"44.84 439.661 OFFCURVE",
"48.571 397.695 OFFCURVE",
"48.571 355.374 CURVE SMOOTH",
"48.571 271.705 OFFCURVE",
"33.987 186.643 OFFCURVE",
"0 110 CURVE"
);
}
);
width = 578;
},
{
associatedMasterId = "56eb07b5-49f2-447c-9e4d-0a9cf23655fc";
layerId = "03a3df06-bc9c-4df5-8d4c-53a5dfe084e0";
name = Body;
width = 0;
}
);
},
{
glyphname = "kaf-ar.init.1";
layers = (
{
hints = (
{
place = "{0, 80}";
type = Stem;
},
{
horizontal = 1;
place = "{0, 70}";
type = Stem;
},
{
horizontal = 1;
place = "{110, 70}";
type = Stem;
}
);
layerId = "56eb07b5-49f2-447c-9e4d-0a9cf23655fc";
paths = (
{
closed = 1;
nodes = (
"63 180 LINE",
"63 110 LINE",
"436 110 LINE SMOOTH",
"458 110 OFFCURVE",
"476 92 OFFCURVE",
"476 70 CURVE",
"-20 70 LINE",
"-20 0 LINE",
"539 0 LINE SMOOTH",
"545 0 OFFCURVE",
"560 0 OFFCURVE",
"560 21 CURVE",
"560 160 OFFCURVE",
"490 180 OFFCURVE",
"446 180 CURVE SMOOTH"
);
},
{
closed = 1;
nodes = (
"80 110 LINE",
"80 560 LINE",
"0 540 LINE",
"0 110 LINE"
);
}
);
width = 600;
},
{
associatedMasterId = "56eb07b5-49f2-447c-9e4d-0a9cf23655fc";
layerId = "03a3df06-bc9c-4df5-8d4c-53a5dfe084e0";
name = Body;
width = 0;
}
);
},
{
glyphname = "kaf-ar.init.2";
layers = (
{
hints = (
{
horizontal = 1;
place = "{0, 70}";
type = Stem;
},
{
horizontal = 1;
place = "{110, 70}";
type = Stem;
}
);
layerId = "56eb07b5-49f2-447c-9e4d-0a9cf23655fc";
paths = (
{
closed = 1;
nodes = (
"80 180 LINE",
"107 250 LINE",
"104.4 250 LINE",
"23.5 110 LINE",
"436 110 LINE SMOOTH",
"458 110 OFFCURVE",
"476 92 OFFCURVE",
"476 70 CURVE",
"-20 70 LINE",
"-20 0 LINE",
"539 0 LINE SMOOTH",
"545 0 OFFCURVE",
"560 0 OFFCURVE",
"560 21 CURVE",
"560 160 OFFCURVE",
"490 180 OFFCURVE",
"446 180 CURVE SMOOTH"
);
}
);
width = 600;
},
{
associatedMasterId = "56eb07b5-49f2-447c-9e4d-0a9cf23655fc";
layerId = "03a3df06-bc9c-4df5-8d4c-53a5dfe084e0";
name = Body;
width = 0;
}
);
},
{
glyphname = "kaf-ar.medi";
layers = (
{
hints = (
{
place = "{49, 79}";
type = Stem;
},
{
horizontal = 1;
place = "{0, 70}";
type = Stem;
},
{
horizontal = 1;
place = "{110, 70}";
type = Stem;
},
{
place = "{49, 79}";
type = Stem;
}
);
layerId = "56eb07b5-49f2-447c-9e4d-0a9cf23655fc";
paths = (
{
closed = 1;
nodes = (
"51 180 LINE",
"0 110 LINE",
"414 110 LINE SMOOTH",
"436 110 OFFCURVE",
"454 92 OFFCURVE",
"454 70 CURVE",
"-20 70 LINE",
"-20 0 LINE",
"517 0 LINE SMOOTH",
"523 0 OFFCURVE",
"538 0 OFFCURVE",
"538 21 CURVE",
"538 160 OFFCURVE",
"468 180 OFFCURVE",
"424 180 CURVE SMOOTH"
);
},
{
closed = 1;
nodes = (
"29.321 126.053 LINE",
"91.815 209.554 OFFCURVE",
"127.211 315.576 OFFCURVE",
"127.211 443.119 CURVE SMOOTH",
"127.211 480.263 OFFCURVE",
"124.209 519.231 OFFCURVE",
"118 560 CURVE",
"38 480 LINE",
"44.84 439.661 OFFCURVE",
"48.571 397.695 OFFCURVE",
"48.571 355.374 CURVE SMOOTH",
"48.571 271.705 OFFCURVE",
"33.987 186.643 OFFCURVE",
"0 110 CURVE"
);
},
{
closed = 1;
nodes = (
"578 70 LINE",
"478 70 LINE",
"478 0 LINE",
"578 0 LINE"
);
}
);
width = 578;
}
);
},
{
glyphname = "kaf-ar.medi.1";
layers = (
{
hints = (
{
horizontal = 1;
place = "{0, 70}";
type = Stem;
},
{
horizontal = 1;
place = "{110, 70}";
type = Stem;
},
{
horizontal = 1;
place = "{0, 70}";
type = Stem;
}
);
layerId = "56eb07b5-49f2-447c-9e4d-0a9cf23655fc";
paths = (
{
closed = 1;
nodes = (
"600 70 LINE",
"500 70 LINE",
"500 0 LINE",
"600 0 LINE"
);
},
{
closed = 1;
nodes = (
"80 180 LINE",
"107 250 LINE",
"104.4 250 LINE",
"23.5 110 LINE",
"436 110 LINE SMOOTH",
"458 110 OFFCURVE",
"476 92 OFFCURVE",
"476 70 CURVE",
"-20 70 LINE",
"-20 0 LINE",
"539 0 LINE SMOOTH",
"545 0 OFFCURVE",
"560 0 OFFCURVE",
"560 21 CURVE",
"560 160 OFFCURVE",
"490 180 OFFCURVE",
"446 180 CURVE SMOOTH"
);
}
);
width = 600;
}
);
},
{
glyphname = "kaf-ar.medi.2";
layers = (
{
hints = (
{
place = "{49, 79}";
type = Stem;
},
{
horizontal = 1;
place = "{0, 70}";
type = Stem;
},
{
horizontal = 1;
place = "{110, 70}";
type = Stem;
},
{
place = "{49, 79}";
type = Stem;
}
);
layerId = "56eb07b5-49f2-447c-9e4d-0a9cf23655fc";
paths = (
{
closed = 1;
nodes = (
"51 180 LINE",
"0 110 LINE",
"414 110 LINE SMOOTH",
"436 110 OFFCURVE",
"454 92 OFFCURVE",
"454 70 CURVE",
"-20 70 LINE",
"-20 0 LINE",
"517 0 LINE SMOOTH",
"523 0 OFFCURVE",
"538 0 OFFCURVE",
"538 21 CURVE",
"538 160 OFFCURVE",
"468 180 OFFCURVE",
"424 180 CURVE SMOOTH"
);
},
{
closed = 1;
nodes = (
"29.321 126.053 LINE",
"91.815 209.554 OFFCURVE",
"127.211 315.576 OFFCURVE",
"127.211 443.119 CURVE SMOOTH",
"127.211 480.263 OFFCURVE",
"124.209 519.231 OFFCURVE",
"118 560 CURVE",
"38 480 LINE",
"44.84 439.661 OFFCURVE",
"48.571 397.695 OFFCURVE",
"48.571 355.374 CURVE SMOOTH",
"48.571 271.705 OFFCURVE",
"33.987 186.643 OFFCURVE",
"0 110 CURVE"
);
},
{
closed = 1;
nodes = (
"578 70 LINE",
"478 70 LINE",
"478 0 LINE",
"578 0 LINE"
);
}
);
width = 578;
}
);
},
{
glyphname = "lam-ar";
layers = (
{
hints = (
{
place = "{150, 80}";
type = Stem;
},
{
horizontal = 1;
place = "{-250, 70}";
type = Stem;
}
);
layerId = "56eb07b5-49f2-447c-9e4d-0a9cf23655fc";
paths = (
{
closed = 1;
nodes = (
"-50 -250 LINE",
"192 -250 LINE",
"215 -250 OFFCURVE",
"230 -235 OFFCURVE",
"230 -210 CURVE SMOOTH",
"230 560 LINE",
"150 540 LINE",
"150 -180 LINE",
"50 -180 LINE",
"29.847 -180 OFFCURVE",
"13.184 -174.526 OFFCURVE",
"2 -160 CURVE"
);
}
);
width = 270;
},
{
associatedMasterId = "56eb07b5-49f2-447c-9e4d-0a9cf23655fc";
layerId = "03a3df06-bc9c-4df5-8d4c-53a5dfe084e0";
name = Body;
width = 0;
}
);
unicode = 0644;
},
{
glyphname = "lam-ar.fina";
layers = (
{
components = (
{
alignment = -1;
name = "lam-ar";
}
);
hints = (
{
place = "{150, 80}";
type = Stem;
},
{
horizontal = 1;
place = "{-250, 70}";
type = Stem;
},
{
horizontal = 1;
place = "{0, 70}";
type = Stem;
}
);
layerId = "56eb07b5-49f2-447c-9e4d-0a9cf23655fc";
paths = (
{
closed = 1;
nodes = (
"230 110 LINE",
"230 88 OFFCURVE",
"248 70 OFFCURVE",
"270 70 CURVE",
"270 0 LINE",
"190 0 LINE",
"190 110 LINE"
);
}
);
width = 270;
}
);
},
{
glyphname = "lam-ar.init";
layers = (
{
hints = (
{
place = "{0, 80}";
type = Stem;
},
{
horizontal = 1;
place = "{0, 70}";
type = Stem;
}
);
layerId = "56eb07b5-49f2-447c-9e4d-0a9cf23655fc";
paths = (
{
closed = 1;
nodes = (
"-20 0 LINE",
"42 0 LINE",
"65 0 OFFCURVE",
"80 15 OFFCURVE",
"80 40 CURVE SMOOTH",
"80 560 LINE",
"0 540 LINE",
"0 70 LINE",
"-20 70 LINE"
);
}
);
width = 120;
},
{
associatedMasterId = "56eb07b5-49f2-447c-9e4d-0a9cf23655fc";
layerId = "03a3df06-bc9c-4df5-8d4c-53a5dfe084e0";
name = Body;
width = 0;
}
);
},
{
glyphname = "lam-ar.init.hah";
layers = (
{
hints = (
{
place = "{0, 80}";
type = Stem;
},
{
horizontal = 1;
place = "{0, 25}";
type = Stem;
}
);
layerId = "56eb07b5-49f2-447c-9e4d-0a9cf23655fc";
paths = (
{
closed = 1;
nodes = (
"0 430 LINE",
"0 70 LINE",
"0 51.332 OFFCURVE",
"-0.2 25.365 OFFCURVE",
"-20 24.696 CURVE",
"-20 0 LINE",
"36.774 0 OFFCURVE",
"80 30.11 OFFCURVE",
"80 70 CURVE",
"80 450 LINE"
);
}
);
width = 80;
},
{
associatedMasterId = "56eb07b5-49f2-447c-9e4d-0a9cf23655fc";
layerId = "03a3df06-bc9c-4df5-8d4c-53a5dfe084e0";
name = Body;
width = 0;
}
);
},
{
glyphname = "lam-ar.medi";
layers = (
{
hints = (
{
place = "{0, 80}";
type = Stem;
},
{
horizontal = 1;
place = "{0, 70}";
type = Stem;
}
);
layerId = "56eb07b5-49f2-447c-9e4d-0a9cf23655fc";
paths = (
{
closed = 1;
nodes = (
"80 110 LINE",
"80 88 OFFCURVE",
"98 70 OFFCURVE",
"120 70 CURVE",
"120 0 LINE",
"40 0 LINE",
"40 110 LINE"
);
},
{
closed = 1;
nodes = (
"-20 70 LINE",
"0 70 LINE",
"0 540 LINE",
"80 560 LINE",
"80 40 LINE SMOOTH",
"80 15 OFFCURVE",
"65 0 OFFCURVE",
"42 0 CURVE",
"-20 0 LINE"
);
}
);
width = 120;
}
);
},
{
glyphname = "meem-ar";
layers = (
{
hints = (
{
place = "{200, 80}";
type = Stem;
},
{
horizontal = 1;
place = "{0, 70}";
type = Stem;
},
{
horizontal = 1;
place = "{110, 70}";
type = Stem;
},
{
place = "{320, 80}";
type = Stem;
}
);
layerId = "56eb07b5-49f2-447c-9e4d-0a9cf23655fc";
paths = (
{
closed = 1;
nodes = (
"279.981 101.038 OFFCURVE",
"288.942 110 OFFCURVE",
"299.981 110 CURVE SMOOTH",
"311.019 110 OFFCURVE",
"319.981 101.038 OFFCURVE",
"319.981 90 CURVE SMOOTH",
"319.981 78.962 OFFCURVE",
"311.019 70 OFFCURVE",
"299.981 70 CURVE SMOOTH",
"288.942 70 OFFCURVE",
"279.981 78.962 OFFCURVE",
"279.981 90 CURVE SMOOTH"
);
},
{
closed = 1;
nodes = (
"199.981 30 OFFCURVE",
"244.789 0 OFFCURVE",
"299.981 0 CURVE SMOOTH",
"365 0 OFFCURVE",
"399.981 30 OFFCURVE",
"399.981 90 CURVE SMOOTH",
"399.981 139.672 OFFCURVE",
"355.172 180 OFFCURVE",
"299.981 180 CURVE SMOOTH",
"244.789 180 OFFCURVE",
"199.981 140 OFFCURVE",
"199.981 90 CURVE SMOOTH"
);
},
{
closed = 1;
nodes = (
"300 70 LINE",
"100 70 LINE",
"79.847 70 OFFCURVE",
"63.184 75.474 OFFCURVE",
"52 90 CURVE",
"0 0 LINE",
"300 0 LINE"
);
}
);
width = 440;
},
{
associatedMasterId = "56eb07b5-49f2-447c-9e4d-0a9cf23655fc";
layerId = "03a3df06-bc9c-4df5-8d4c-53a5dfe084e0";
name = Body;
width = 0;
}
);
unicode = 0645;
},
{
glyphname = "meem-ar.1";
layers = (
{
hints = (
{
place = "{40, 80}";
type = Stem;
},
{
horizontal = 1;
place = "{0, 70}";
type = Stem;
},
{
place = "{160, 80}";
type = Stem;
},
{
horizontal = 1;
place = "{110, 70}";
type = Stem;
}
);
layerId = "56eb07b5-49f2-447c-9e4d-0a9cf23655fc";
paths = (
{
closed = 1;
nodes = (
"120.003 101.038 OFFCURVE",
"128.964 110 OFFCURVE",
"140.003 110 CURVE SMOOTH",
"151.041 110 OFFCURVE",
"160.003 101.038 OFFCURVE",
"160.003 90 CURVE SMOOTH",
"160.003 78.962 OFFCURVE",
"151.041 70 OFFCURVE",
"140.003 70 CURVE SMOOTH",
"128.964 70 OFFCURVE",
"120.003 78.962 OFFCURVE",
"120.003 90 CURVE SMOOTH"
);
},
{
closed = 1;
nodes = (
"140.022 0 LINE",
"39.981 90 LINE",
"39.981 50 OFFCURVE",
"35 20 OFFCURVE",
"0 0 CURVE"
);
},
{
closed = 1;
nodes = (
"39.981 30 OFFCURVE",
"84.789 0 OFFCURVE",
"139.981 0 CURVE SMOOTH",
"205 0 OFFCURVE",
"239.981 30 OFFCURVE",
"239.981 90 CURVE SMOOTH",
"239.981 139.672 OFFCURVE",
"195.172 180 OFFCURVE",
"139.981 180 CURVE SMOOTH",
"84.789 180 OFFCURVE",
"39.981 140 OFFCURVE",
"39.981 90 CURVE SMOOTH"
);
}
);
width = 280;
},
{
associatedMasterId = "56eb07b5-49f2-447c-9e4d-0a9cf23655fc";
layerId = "03a3df06-bc9c-4df5-8d4c-53a5dfe084e0";
name = Body;
width = 0;
}
);
},
{
glyphname = "meem-ar.2";
layers = (
{
hints = (
{
horizontal = 1;
place = "{-40, 70}";
type = Stem;
},
{
horizontal = 1;
place = "{70, 70}";
type = Stem;
},
{
place = "{38, 80}";
type = Stem;
},
{
place = "{158, 80}";
type = Stem;
}
);
layerId = "56eb07b5-49f2-447c-9e4d-0a9cf23655fc";
paths = (
{
closed = 1;
nodes = (
"118.003 61.038 OFFCURVE",
"126.964 70 OFFCURVE",
"138.003 70 CURVE SMOOTH",
"149.041 70 OFFCURVE",
"158.003 61.038 OFFCURVE",
"158.003 50 CURVE SMOOTH",
"158.003 38.962 OFFCURVE",
"149.041 30 OFFCURVE",
"138.003 30 CURVE SMOOTH",
"126.964 30 OFFCURVE",
"118.003 38.962 OFFCURVE",
"118.003 50 CURVE SMOOTH"
);
},
{
closed = 1;
nodes = (
"80 0 LINE",
"38.639 60.099 LINE",
"35.381 34.693 OFFCURVE",
"25.855 14.66 OFFCURVE",
"0.2 0 CURVE"
);
},
{
closed = 1;
nodes = (
"37.981 -10 OFFCURVE",
"82.789 -40 OFFCURVE",
"137.981 -40 CURVE SMOOTH",
"203 -40 OFFCURVE",
"237.981 -10 OFFCURVE",
"237.981 50 CURVE SMOOTH",
"237.981 99.672 OFFCURVE",
"193.172 140 OFFCURVE",
"137.981 140 CURVE SMOOTH",
"82.789 140 OFFCURVE",
"37.981 100 OFFCURVE",
"37.981 50 CURVE SMOOTH"
);
}
);
width = 278;
},
{
associatedMasterId = "56eb07b5-49f2-447c-9e4d-0a9cf23655fc";
layerId = "03a3df06-bc9c-4df5-8d4c-53a5dfe084e0";
name = Body;
width = 0;
}
);
},
{
glyphname = "meem-ar.fina";
layers = (
{
hints = (
{
place = "{200, 80}";
type = Stem;
},
{
horizontal = 1;
place = "{110, 70}";
type = Stem;
},
{
place = "{320, 80}";
type = Stem;
},
{
horizontal = 1;
place = "{0, 70}";
type = Stem;
}
);
layerId = "56eb07b5-49f2-447c-9e4d-0a9cf23655fc";
paths = (
{
closed = 1;
nodes = (
"279.981 101.038 OFFCURVE",
"288.942 110 OFFCURVE",
"299.981 110 CURVE SMOOTH",
"311.019 110 OFFCURVE",
"319.981 101.038 OFFCURVE",
"319.981 90 CURVE SMOOTH",
"319.981 78.962 OFFCURVE",
"311.019 70 OFFCURVE",
"299.981 70 CURVE SMOOTH",
"288.942 70 OFFCURVE",
"279.981 78.962 OFFCURVE",
"279.981 90 CURVE SMOOTH"
);
},
{
closed = 1;
nodes = (
"199.981 30 OFFCURVE",
"244.789 0 OFFCURVE",
"299.981 0 CURVE SMOOTH",
"365 0 OFFCURVE",
"399.981 30 OFFCURVE",
"399.981 90 CURVE SMOOTH",
"399.981 139.672 OFFCURVE",
"355.172 180 OFFCURVE",
"299.981 180 CURVE SMOOTH",
"244.789 180 OFFCURVE",
"199.981 140 OFFCURVE",
"199.981 90 CURVE SMOOTH"
);
},
{
closed = 1;
nodes = (
"300 70 LINE",
"100 70 LINE",
"79.847 70 OFFCURVE",
"63.184 75.474 OFFCURVE",
"52 90 CURVE",
"0 0 LINE",
"300 0 LINE"
);
},
{
closed = 1;
nodes = (
"440 70 LINE",
"300 70 LINE",
"300 0 LINE",
"440 0 LINE"
);
}
);
width = 440;
}
);
},
{
glyphname = "meem-ar.fina.1";
layers = (
{
hints = (
{
place = "{40, 80}";
type = Stem;
},
{
horizontal = 1;
place = "{0, 70}";
type = Stem;
},
{
place = "{160, 80}";
type = Stem;
},
{
horizontal = 1;
place = "{110, 70}";
type = Stem;
}
);
layerId = "56eb07b5-49f2-447c-9e4d-0a9cf23655fc";
paths = (
{
closed = 1;
nodes = (
"280 70 LINE",
"140 70 LINE",
"140 0 LINE",
"280 0 LINE"
);
},
{
closed = 1;
nodes = (
"120.003 101.038 OFFCURVE",
"128.964 110 OFFCURVE",
"140.003 110 CURVE SMOOTH",
"151.041 110 OFFCURVE",
"160.003 101.038 OFFCURVE",
"160.003 90 CURVE SMOOTH",
"160.003 78.962 OFFCURVE",
"151.041 70 OFFCURVE",
"140.003 70 CURVE SMOOTH",
"128.964 70 OFFCURVE",
"120.003 78.962 OFFCURVE",
"120.003 90 CURVE SMOOTH"
);
},
{
closed = 1;
nodes = (
"140.022 0 LINE",
"39.981 90 LINE",
"39.981 50 OFFCURVE",
"35 20 OFFCURVE",
"0 0 CURVE"
);
},
{
closed = 1;
nodes = (
"39.981 30 OFFCURVE",
"84.789 0 OFFCURVE",
"139.981 0 CURVE SMOOTH",
"205 0 OFFCURVE",
"239.981 30 OFFCURVE",
"239.981 90 CURVE SMOOTH",
"239.981 139.672 OFFCURVE",
"195.172 180 OFFCURVE",
"139.981 180 CURVE SMOOTH",
"84.789 180 OFFCURVE",
"39.981 140 OFFCURVE",
"39.981 90 CURVE SMOOTH"
);
}
);
width = 280;
}
);
},
{
glyphname = "meem-ar.fina.2";
layers = (
{
hints = (
{
horizontal = 1;
place = "{-40, 70}";
type = Stem;
},
{
horizontal = 1;
place = "{70, 70}";
type = Stem;
},
{
place = "{38, 80}";
type = Stem;
},
{
place = "{158, 80}";
type = Stem;
},
{
place = "{36, 80}";
type = Stem;
},
{
place = "{156, 80}";
type = Stem;
}
);
layerId = "56eb07b5-49f2-447c-9e4d-0a9cf23655fc";
paths = (
{
closed = 1;
nodes = (
"276 70 LINE",
"216 70 LINE",
"216 0 LINE",
"276 0 LINE"
);
},
{
closed = 1;
nodes = (
"116.003 61.038 OFFCURVE",
"124.964 70 OFFCURVE",
"136.003 70 CURVE SMOOTH",
"147.041 70 OFFCURVE",
"156.003 61.038 OFFCURVE",
"156.003 50 CURVE SMOOTH",
"156.003 38.962 OFFCURVE",
"147.041 30 OFFCURVE",
"136.003 30 CURVE SMOOTH",
"124.964 30 OFFCURVE",
"116.003 38.962 OFFCURVE",
"116.003 50 CURVE SMOOTH"
);
},
{
closed = 1;
nodes = (
"78 0 LINE",
"36.639 60.099 LINE",
"33.381 34.693 OFFCURVE",
"23.855 14.66 OFFCURVE",
"-1.8 0 CURVE"
);
},
{
closed = 1;
nodes = (
"35.981 -10 OFFCURVE",
"80.789 -40 OFFCURVE",
"135.981 -40 CURVE SMOOTH",
"201 -40 OFFCURVE",
"235.981 -10 OFFCURVE",
"235.981 50 CURVE SMOOTH",
"235.981 99.672 OFFCURVE",
"191.172 140 OFFCURVE",
"135.981 140 CURVE SMOOTH",
"80.789 140 OFFCURVE",
"35.981 100 OFFCURVE",
"35.981 50 CURVE SMOOTH"
);
}
);
width = 276;
}
);
},
{
glyphname = "meem-ar.init";
layers = (
{
hints = (
{
place = "{0, 80}";
type = Stem;
},
{
horizontal = 1;
place = "{0, 70}";
type = Stem;
},
{
place = "{120, 80}";
type = Stem;
},
{
horizontal = 1;
place = "{110, 70}";
type = Stem;
}
);
layerId = "56eb07b5-49f2-447c-9e4d-0a9cf23655fc";
paths = (
{
closed = 1;
nodes = (
"79.981 101.038 OFFCURVE",
"88.942 110 OFFCURVE",
"99.981 110 CURVE SMOOTH",
"111.019 110 OFFCURVE",
"119.981 101.038 OFFCURVE",
"119.981 90 CURVE SMOOTH",
"119.981 78.962 OFFCURVE",
"111.019 70 OFFCURVE",
"99.981 70 CURVE SMOOTH",
"88.942 70 OFFCURVE",
"79.981 78.962 OFFCURVE",
"79.981 90 CURVE SMOOTH"
);
},
{
closed = 1;
nodes = (
"-0.02 30 OFFCURVE",
"44.789 0 OFFCURVE",
"99.981 0 CURVE SMOOTH",
"165 0 OFFCURVE",
"199.981 30 OFFCURVE",
"199.981 90 CURVE SMOOTH",
"199.981 139.672 OFFCURVE",
"155.172 180 OFFCURVE",
"99.981 180 CURVE SMOOTH",
"44.789 180 OFFCURVE",
"-0.02 140 OFFCURVE",
"-0.02 90 CURVE SMOOTH"
);
},
{
closed = 1;
nodes = (
"100 70 LINE",
"-20 70 LINE",
"-20 0 LINE",
"100 0 LINE"
);
}
);
width = 240;
},
{
associatedMasterId = "56eb07b5-49f2-447c-9e4d-0a9cf23655fc";
layerId = "03a3df06-bc9c-4df5-8d4c-53a5dfe084e0";
name = Body;
width = 0;
}
);
},
{
glyphname = "meem-ar.medi";
layers = (
{
hints = (
{
place = "{0, 80}";
type = Stem;
},
{
horizontal = 1;
place = "{0, 70}";
type = Stem;
},
{
place = "{120, 80}";
type = Stem;
},
{
horizontal = 1;
place = "{110, 70}";
type = Stem;
}
);
layerId = "56eb07b5-49f2-447c-9e4d-0a9cf23655fc";
paths = (
{
closed = 1;
nodes = (
"240 70 LINE",
"100 70 LINE",
"100 0 LINE",
"240 0 LINE"
);
},
{
closed = 1;
nodes = (
"79.981 101.038 OFFCURVE",
"88.942 110 OFFCURVE",
"99.981 110 CURVE SMOOTH",
"111.019 110 OFFCURVE",
"119.981 101.038 OFFCURVE",
"119.981 90 CURVE SMOOTH",
"119.981 78.962 OFFCURVE",
"111.019 70 OFFCURVE",
"99.981 70 CURVE SMOOTH",
"88.942 70 OFFCURVE",
"79.981 78.962 OFFCURVE",
"79.981 90 CURVE SMOOTH"
);
},
{
closed = 1;
nodes = (
"-0.02 30 OFFCURVE",
"44.789 0 OFFCURVE",
"99.981 0 CURVE SMOOTH",
"165 0 OFFCURVE",
"199.981 30 OFFCURVE",
"199.981 90 CURVE SMOOTH",
"199.981 139.672 OFFCURVE",
"155.172 180 OFFCURVE",
"99.981 180 CURVE SMOOTH",
"44.789 180 OFFCURVE",
"-0.02 140 OFFCURVE",
"-0.02 90 CURVE SMOOTH"
);
},
{
closed = 1;
nodes = (
"100 70 LINE",
"-20 70 LINE",
"-20 0 LINE",
"100 0 LINE"
);
}
);
width = 240;
}
);
leftKerningGroup = "hah-ar.init";
rightKerningGroup = "meem-ar.medi";
},
{
glyphname = "meem-ar.medi.1";
layers = (
{
hints = (
{
horizontal = 1;
place = "{-40, 70}";
type = Stem;
},
{
place = "{0, 80}";
type = Stem;
},
{
place = "{120, 80}";
type = Stem;
},
{
horizontal = 1;
place = "{70, 70}";
type = Stem;
}
);
layerId = "56eb07b5-49f2-447c-9e4d-0a9cf23655fc";
paths = (
{
closed = 1;
nodes = (
"240 70 LINE",
"180 70 LINE",
"180 0 LINE",
"240 0 LINE"
);
},
{
closed = 1;
nodes = (
"79.981 61.038 OFFCURVE",
"88.942 70 OFFCURVE",
"99.981 70 CURVE SMOOTH",
"111.019 70 OFFCURVE",
"119.981 61.038 OFFCURVE",
"119.981 50 CURVE SMOOTH",
"119.981 38.962 OFFCURVE",
"111.019 30 OFFCURVE",
"99.981 30 CURVE SMOOTH",
"88.942 30 OFFCURVE",
"79.981 38.962 OFFCURVE",
"79.981 50 CURVE SMOOTH"
);
},
{
closed = 1;
nodes = (
"-0.02 -10 OFFCURVE",
"35 -40 OFFCURVE",
"99.981 -40 CURVE SMOOTH",
"165 -40 OFFCURVE",
"199.981 -10 OFFCURVE",
"199.981 50 CURVE SMOOTH",
"199.981 99.672 OFFCURVE",
"155.172 140 OFFCURVE",
"99.981 140 CURVE SMOOTH",
"44.789 140 OFFCURVE",
"-0.019 99.672 OFFCURVE",
"-0.02 50 CURVE SMOOTH"
);
},
{
closed = 1;
nodes = (
"30 70 LINE",
"-20 70 LINE",
"-20 0 LINE",
"30 0 LINE"
);
}
);
width = 240;
},
{
associatedMasterId = "56eb07b5-49f2-447c-9e4d-0a9cf23655fc";
layerId = "03a3df06-bc9c-4df5-8d4c-53a5dfe084e0";
name = Body;
width = 0;
}
);
},
{
glyphname = "noonghunna-ar";
layers = (
{
anchors = (
{
name = top;
position = "{90, 215}";
}
);
hints = (
{
place = "{150, 80}";
type = Stem;
},
{
horizontal = 1;
place = "{-250, 70}";
type = Stem;
}
);
layerId = "56eb07b5-49f2-447c-9e4d-0a9cf23655fc";
paths = (
{
closed = 1;
nodes = (
"-50 -250 LINE",
"192 -250 LINE SMOOTH",
"215 -250 OFFCURVE",
"230 -235 OFFCURVE",
"230 -210 CURVE SMOOTH",
"230 60 LINE",
"150 60 LINE",
"150 -180 LINE",
"50 -180 LINE",
"29.847 -180 OFFCURVE",
"13.184 -174.526 OFFCURVE",
"2 -160 CURVE"
);
},
{
closed = 1;
nodes = (
"110.1 70 LINE",
"182.142 -2.028 LINE",
"229.606 26.906 LINE",
"229.606 60 LINE",
"150 140.038 LINE"
);
}
);
width = 270;
},
{
associatedMasterId = "56eb07b5-49f2-447c-9e4d-0a9cf23655fc";
layerId = "03a3df06-bc9c-4df5-8d4c-53a5dfe084e0";
name = Body;
width = 0;
}
);
unicode = 06BA;
},
{
glyphname = "noonghunna-ar.fina";
layers = (
{
anchors = (
{
name = top;
position = "{90, 215}";
}
);
hints = (
{
place = "{150, 80}";
type = Stem;
},
{
horizontal = 1;
place = "{-250, 70}";
type = Stem;
},
{
horizontal = 1;
place = "{0, 70}";
type = Stem;
}
);
layerId = "56eb07b5-49f2-447c-9e4d-0a9cf23655fc";
paths = (
{
closed = 1;
nodes = (
"260.113 70 LINE",
"160.113 70 LINE",
"160.113 0 LINE",
"260.113 0 LINE"
);
},
{
closed = 1;
nodes = (
"-50 -250 LINE",
"192 -250 LINE SMOOTH",
"215 -250 OFFCURVE",
"230 -235 OFFCURVE",
"230 -210 CURVE SMOOTH",
"230 60 LINE",
"150 60 LINE",
"150 -180 LINE",
"50 -180 LINE",
"29.847 -180 OFFCURVE",
"13.184 -174.526 OFFCURVE",
"2 -160 CURVE"
);
},
{
closed = 1;
nodes = (
"110.1 70 LINE",
"182.142 -2.028 LINE",
"229.606 26.906 LINE",
"229.606 60 LINE",
"150 140.038 LINE"
);
}
);
width = 260;
}
);
},
{
glyphname = "heh-ar";
layers = (
{
anchors = (
{
name = top;
position = "{100, 295}";
}
);
hints = (
{
place = "{0, 80}";
type = Stem;
},
{
horizontal = 1;
place = "{0, 70}";
type = Stem;
},
{
horizontal = 1;
place = "{110, 70}";
type = Stem;
},
{
place = "{120, 80}";
type = Stem;
}
);
layerId = "56eb07b5-49f2-447c-9e4d-0a9cf23655fc";
paths = (
{
closed = 1;
nodes = (
"80.003 101.038 OFFCURVE",
"88.964 110 OFFCURVE",
"100.003 110 CURVE SMOOTH",
"111.041 110 OFFCURVE",
"120.003 101.038 OFFCURVE",
"120.003 90 CURVE SMOOTH",
"120.003 78.962 OFFCURVE",
"111.041 70 OFFCURVE",
"100.003 70 CURVE SMOOTH",
"88.964 70 OFFCURVE",
"80.003 78.962 OFFCURVE",
"80.003 90 CURVE SMOOTH"
);
},
{
closed = 1;
nodes = (
"-0.02 30 OFFCURVE",
"44.789 0 OFFCURVE",
"99.981 0 CURVE SMOOTH",
"165 0 OFFCURVE",
"199.981 30 OFFCURVE",
"199.981 90 CURVE SMOOTH",
"199.981 139.672 OFFCURVE",
"155.172 180 OFFCURVE",
"99.981 180 CURVE SMOOTH",
"44.789 180 OFFCURVE",
"-0.02 140 OFFCURVE",
"-0.02 90 CURVE SMOOTH"
);
},
{
closed = 1;
nodes = (
"200.011 220.011 LINE",
"180.011 185.011 OFFCURVE",
"140 180.031 OFFCURVE",
"100 180.031 CURVE",
"200.011 90 LINE"
);
}
);
width = 240;
},
{
associatedMasterId = "56eb07b5-49f2-447c-9e4d-0a9cf23655fc";
layerId = "03a3df06-bc9c-4df5-8d4c-53a5dfe084e0";
name = Body;
width = 0;
}
);
unicode = 0647;
},
{
glyphname = "heh-ar.1";
layers = (
{
anchors = (
{
name = top;
position = "{100, 405}";
}
);
hints = (
{
place = "{0, 80}";
type = Stem;
},
{
place = "{120, 80}";
type = Stem;
},
{
horizontal = 1;
place = "{0, 70}";
type = Stem;
},
{
horizontal = 1;
place = "{110, 70}";
type = Stem;
}
);
layerId = "56eb07b5-49f2-447c-9e4d-0a9cf23655fc";
paths = (
{
closed = 1;
nodes = (
"80.003 101.038 OFFCURVE",
"88.964 110 OFFCURVE",
"100.003 110 CURVE SMOOTH",
"111.041 110 OFFCURVE",
"120.003 101.038 OFFCURVE",
"120.003 90 CURVE SMOOTH",
"120.003 78.962 OFFCURVE",
"111.041 70 OFFCURVE",
"100.003 70 CURVE SMOOTH",
"88.964 70 OFFCURVE",
"80.003 78.962 OFFCURVE",
"80.003 90 CURVE SMOOTH"
);
},
{
closed = 1;
nodes = (
"-0.02 30 OFFCURVE",
"44.789 0 OFFCURVE",
"99.981 0 CURVE SMOOTH",
"165 0 OFFCURVE",
"199.981 30 OFFCURVE",
"199.981 90 CURVE SMOOTH",
"199.981 139.672 OFFCURVE",
"155.172 180 OFFCURVE",
"99.981 180 CURVE SMOOTH",
"44.789 180 OFFCURVE",
"-0.02 140 OFFCURVE",
"-0.02 90 CURVE SMOOTH"
);
},
{
closed = 1;
nodes = (
"200.011 220.011 LINE",
"180.011 185.011 OFFCURVE",
"140 180.031 OFFCURVE",
"100 180.031 CURVE",
"200.011 90 LINE"
);
},
{
closed = 1;
nodes = (
"200 110 LINE",
"200 330 LINE",
"120 310 LINE",
"120 110 LINE"
);
}
);
width = 240;
},
{
associatedMasterId = "56eb07b5-49f2-447c-9e4d-0a9cf23655fc";
layerId = "03a3df06-bc9c-4df5-8d4c-53a5dfe084e0";
name = Body;
width = 0;
}
);
},
{
glyphname = "heh-ar.2";
layers = (
{
anchors = (
{
name = top;
position = "{50, 318}";
}
);
hints = (
{
place = "{0, 80}";
type = Stem;
},
{
place = "{120, 80}";
type = Stem;
},
{
horizontal = 1;
place = "{0, 70}";
type = Stem;
},
{
horizontal = 1;
place = "{110, 70}";
type = Stem;
}
);
layerId = "56eb07b5-49f2-447c-9e4d-0a9cf23655fc";
paths = (
{
closed = 1;
nodes = (
"80.003 101.038 OFFCURVE",
"88.964 110 OFFCURVE",
"100.003 110 CURVE SMOOTH",
"111.041 110 OFFCURVE",
"120.003 101.038 OFFCURVE",
"120.003 90 CURVE SMOOTH",
"120.003 78.962 OFFCURVE",
"111.041 70 OFFCURVE",
"100.003 70 CURVE SMOOTH",
"88.964 70 OFFCURVE",
"80.003 78.962 OFFCURVE",
"80.003 90 CURVE SMOOTH"
);
},
{
closed = 1;
nodes = (
"-0.02 30 OFFCURVE",
"44.789 0 OFFCURVE",
"99.981 0 CURVE SMOOTH",
"165 0 OFFCURVE",
"199.981 30 OFFCURVE",
"199.981 90 CURVE SMOOTH",
"199.981 139.672 OFFCURVE",
"155.172 180 OFFCURVE",
"99.981 180 CURVE SMOOTH",
"44.789 180 OFFCURVE",
"-0.02 140 OFFCURVE",
"-0.02 90 CURVE SMOOTH"
);
},
{
closed = 1;
nodes = (
"200.011 220.011 LINE",
"180.011 185.011 OFFCURVE",
"140 180.031 OFFCURVE",
"100 180.031 CURVE",
"200.011 90 LINE"
);
},
{
closed = 1;
nodes = (
"200 110 LINE",
"200 560 LINE",
"120 540 LINE",
"120 110 LINE"
);
}
);
width = 240;
},
{
associatedMasterId = "56eb07b5-49f2-447c-9e4d-0a9cf23655fc";
layerId = "03a3df06-bc9c-4df5-8d4c-53a5dfe084e0";
name = Body;
width = 0;
}
);
},
{
glyphname = "heh-ar.fina";
layers = (
{
anchors = (
{
name = top;
position = "{100, 295}";
}
);
hints = (
{
place = "{0, 80}";
type = Stem;
},
{
horizontal = 1;
place = "{0, 70}";
type = Stem;
},
{
place = "{120, 80}";
type = Stem;
},
{
horizontal = 1;
place = "{110, 70}";
type = Stem;
},
{
horizontal = 1;
place = "{0, 70}";
type = Stem;
}
);
layerId = "56eb07b5-49f2-447c-9e4d-0a9cf23655fc";
paths = (
{
closed = 1;
nodes = (
"240 70 LINE",
"100 70 LINE",
"100 0 LINE",
"240 0 LINE"
);
},
{
closed = 1;
nodes = (
"200 10 LINE",
"200 150 LINE",
"120 150 LINE",
"120 10 LINE"
);
},
{
closed = 1;
nodes = (
"80.003 101.038 OFFCURVE",
"88.964 110 OFFCURVE",
"100.003 110 CURVE SMOOTH",
"111.041 110 OFFCURVE",
"120.003 101.038 OFFCURVE",
"120.003 90 CURVE SMOOTH",
"120.003 78.962 OFFCURVE",
"111.041 70 OFFCURVE",
"100.003 70 CURVE SMOOTH",
"88.964 70 OFFCURVE",
"80.003 78.962 OFFCURVE",
"80.003 90 CURVE SMOOTH"
);
},
{
closed = 1;
nodes = (
"-0.02 30 OFFCURVE",
"44.789 0 OFFCURVE",
"99.981 0 CURVE SMOOTH",
"165 0 OFFCURVE",
"199.981 30 OFFCURVE",
"199.981 90 CURVE SMOOTH",
"199.981 139.672 OFFCURVE",
"155.172 180 OFFCURVE",
"99.981 180 CURVE SMOOTH",
"44.789 180 OFFCURVE",
"-0.02 140 OFFCURVE",
"-0.02 90 CURVE SMOOTH"
);
},
{
closed = 1;
nodes = (
"200.011 220.011 LINE",
"180.011 185.011 OFFCURVE",
"140 180.031 OFFCURVE",
"100 180.031 CURVE",
"200.011 90 LINE"
);
}
);
width = 240;
}
);
},
{
glyphname = "heh-ar.fina.1";
layers = (
{
anchors = (
{
name = top;
position = "{100, 405}";
}
);
hints = (
{
place = "{0, 80}";
type = Stem;
},
{
horizontal = 1;
place = "{0, 70}";
type = Stem;
},
{
horizontal = 1;
place = "{110, 70}";
type = Stem;
},
{
place = "{120, 80}";
type = Stem;
},
{
place = "{120, 80}";
type = Stem;
},
{
horizontal = 1;
place = "{0, 70}";
type = Stem;
}
);
layerId = "56eb07b5-49f2-447c-9e4d-0a9cf23655fc";
paths = (
{
closed = 1;
nodes = (
"240 70 LINE",
"100 70 LINE",
"100 0 LINE",
"240 0 LINE"
);
},
{
closed = 1;
nodes = (
"80.003 101.038 OFFCURVE",
"88.964 110 OFFCURVE",
"100.003 110 CURVE SMOOTH",
"111.041 110 OFFCURVE",
"120.003 101.038 OFFCURVE",
"120.003 90 CURVE SMOOTH",
"120.003 78.962 OFFCURVE",
"111.041 70 OFFCURVE",
"100.003 70 CURVE SMOOTH",
"88.964 70 OFFCURVE",
"80.003 78.962 OFFCURVE",
"80.003 90 CURVE SMOOTH"
);
},
{
closed = 1;
nodes = (
"-0.02 30 OFFCURVE",
"44.789 0 OFFCURVE",
"99.981 0 CURVE SMOOTH",
"165 0 OFFCURVE",
"199.981 30 OFFCURVE",
"199.981 90 CURVE SMOOTH",
"199.981 139.672 OFFCURVE",
"155.172 180 OFFCURVE",
"99.981 180 CURVE SMOOTH",
"44.789 180 OFFCURVE",
"-0.02 140 OFFCURVE",
"-0.02 90 CURVE SMOOTH"
);
},
{
closed = 1;
nodes = (
"200.011 220.011 LINE",
"180.011 185.011 OFFCURVE",
"140 180.031 OFFCURVE",
"100 180.031 CURVE",
"200.011 90 LINE"
);
},
{
closed = 1;
nodes = (
"200 110 LINE",
"200 330 LINE",
"120 310 LINE",
"120 110 LINE"
);
},
{
closed = 1;
nodes = (
"200 10 LINE",
"200 150 LINE",
"120 150 LINE",
"120 10 LINE"
);
}
);
width = 240;
}
);
},
{
glyphname = "heh-ar.fina.2";
layers = (
{
anchors = (
{
name = top;
position = "{50, 318}";
}
);
hints = (
{
place = "{0, 80}";
type = Stem;
},
{
place = "{120, 80}";
type = Stem;
},
{
horizontal = 1;
place = "{0, 70}";
type = Stem;
},
{
horizontal = 1;
place = "{110, 70}";
type = Stem;
}
);
layerId = "56eb07b5-49f2-447c-9e4d-0a9cf23655fc";
paths = (
{
closed = 1;
nodes = (
"240 70 LINE",
"100 70 LINE",
"100 0 LINE",
"240 0 LINE"
);
},
{
closed = 1;
nodes = (
"200 10 LINE",
"200 150 LINE",
"120 150 LINE",
"120 10 LINE"
);
},
{
closed = 1;
nodes = (
"80.003 101.038 OFFCURVE",
"88.964 110 OFFCURVE",
"100.003 110 CURVE SMOOTH",
"111.041 110 OFFCURVE",
"120.003 101.038 OFFCURVE",
"120.003 90 CURVE SMOOTH",
"120.003 78.962 OFFCURVE",
"111.041 70 OFFCURVE",
"100.003 70 CURVE SMOOTH",
"88.964 70 OFFCURVE",
"80.003 78.962 OFFCURVE",
"80.003 90 CURVE SMOOTH"
);
},
{
closed = 1;
nodes = (
"-0.02 30 OFFCURVE",
"44.789 0 OFFCURVE",
"99.981 0 CURVE SMOOTH",
"165 0 OFFCURVE",
"199.981 30 OFFCURVE",
"199.981 90 CURVE SMOOTH",
"199.981 139.672 OFFCURVE",
"155.172 180 OFFCURVE",
"99.981 180 CURVE SMOOTH",
"44.789 180 OFFCURVE",
"-0.02 140 OFFCURVE",
"-0.02 90 CURVE SMOOTH"
);
},
{
closed = 1;
nodes = (
"200.011 220.011 LINE",
"180.011 185.011 OFFCURVE",
"140 180.031 OFFCURVE",
"100 180.031 CURVE",
"200.011 90 LINE"
);
},
{
closed = 1;
nodes = (
"200 110 LINE",
"200 560 LINE",
"120 540 LINE",
"120 110 LINE"
);
}
);
width = 240;
}
);
},
{
glyphname = "heh-ar.init";
layers = (
{
hints = (
{
place = "{0, 80}";
type = Stem;
},
{
place = "{120, 80}";
type = Stem;
},
{
horizontal = 1;
place = "{0, 70}";
type = Stem;
},
{
horizontal = 1;
place = "{-110, 70}";
type = Stem;
},
{
horizontal = 1;
place = "{110, 70}";
type = Stem;
}
);
layerId = "56eb07b5-49f2-447c-9e4d-0a9cf23655fc";
paths = (
{
closed = 1;
nodes = (
"80.003 101.038 OFFCURVE",
"88.964 110 OFFCURVE",
"100.003 110 CURVE SMOOTH",
"111.041 110 OFFCURVE",
"120.003 101.038 OFFCURVE",
"120.003 90 CURVE SMOOTH",
"120.003 78.962 OFFCURVE",
"111.041 70 OFFCURVE",
"100.003 70 CURVE SMOOTH",
"88.964 70 OFFCURVE",
"80.003 78.962 OFFCURVE",
"80.003 90 CURVE SMOOTH"
);
},
{
closed = 1;
nodes = (
"-0.02 30 OFFCURVE",
"44.789 0 OFFCURVE",
"99.981 0 CURVE SMOOTH",
"165 0 OFFCURVE",
"199.981 30 OFFCURVE",
"199.981 90 CURVE SMOOTH",
"199.981 139.672 OFFCURVE",
"155.172 180 OFFCURVE",
"99.981 180 CURVE SMOOTH",
"44.789 180 OFFCURVE",
"-0.02 140 OFFCURVE",
"-0.02 90 CURVE SMOOTH"
);
},
{
closed = 1;
nodes = (
"200.011 215 LINE",
"180.011 180 OFFCURVE",
"140 180.031 OFFCURVE",
"100 180.031 CURVE",
"200.011 -20 LINE"
);
},
{
closed = 1;
nodes = (
"140 70 LINE",
"-20 70 LINE",
"-20 0 LINE",
"140 0 LINE"
);
},
{
closed = 1;
nodes = (
"80.003 -8.962 OFFCURVE",
"88.964 0 OFFCURVE",
"100.003 0 CURVE SMOOTH",
"111.041 0 OFFCURVE",
"120.003 -8.962 OFFCURVE",
"120.003 -20 CURVE SMOOTH",
"120.003 -31.038 OFFCURVE",
"111.041 -40 OFFCURVE",
"100.003 -40 CURVE SMOOTH",
"88.964 -40 OFFCURVE",
"80.003 -31.038 OFFCURVE",
"80.003 -20 CURVE SMOOTH"
);
},
{
closed = 1;
nodes = (
"-0.02 -80 OFFCURVE",
"44.789 -110 OFFCURVE",
"99.981 -110 CURVE SMOOTH",
"165 -110 OFFCURVE",
"199.981 -80 OFFCURVE",
"199.981 -20 CURVE SMOOTH",
"199.981 29.672 OFFCURVE",
"155.172 70 OFFCURVE",
"99.981 70 CURVE SMOOTH",
"44.789 70 OFFCURVE",
"-0.02 30 OFFCURVE",
"-0.02 -20 CURVE SMOOTH"
);
}
);
width = 240;
},
{
associatedMasterId = "56eb07b5-49f2-447c-9e4d-0a9cf23655fc";
layerId = "03a3df06-bc9c-4df5-8d4c-53a5dfe084e0";
name = Body;
width = 0;
}
);
},
{
glyphname = "heh-ar.init.1";
layers = (
{
hints = (
{
horizontal = 1;
place = "{0, 70}";
type = Stem;
},
{
horizontal = 1;
place = "{-110, 70}";
type = Stem;
},
{
horizontal = 1;
place = "{110, 70}";
type = Stem;
},
{
place = "{0, 80}";
type = Stem;
},
{
place = "{120, 80}";
type = Stem;
}
);
layerId = "56eb07b5-49f2-447c-9e4d-0a9cf23655fc";
paths = (
{
closed = 1;
nodes = (
"120 231 LINE",
"120 160 LINE",
"200 191 LINE",
"200 251 LINE"
);
},
{
closed = 1;
nodes = (
"80.003 101.038 OFFCURVE",
"88.964 110 OFFCURVE",
"100.003 110 CURVE SMOOTH",
"111.041 110 OFFCURVE",
"120.003 101.038 OFFCURVE",
"120.003 90 CURVE SMOOTH",
"120.003 78.962 OFFCURVE",
"111.041 70 OFFCURVE",
"100.003 70 CURVE SMOOTH",
"88.964 70 OFFCURVE",
"80.003 78.962 OFFCURVE",
"80.003 90 CURVE SMOOTH"
);
},
{
closed = 1;
nodes = (
"-0.02 30 OFFCURVE",
"44.789 0 OFFCURVE",
"99.981 0 CURVE SMOOTH",
"165 0 OFFCURVE",
"199.981 30 OFFCURVE",
"199.981 90 CURVE SMOOTH",
"199.981 139.672 OFFCURVE",
"155.172 180 OFFCURVE",
"99.981 180 CURVE SMOOTH",
"44.789 180 OFFCURVE",
"-0.02 140 OFFCURVE",
"-0.02 90 CURVE SMOOTH"
);
},
{
closed = 1;
nodes = (
"200.011 215 LINE",
"180.011 180 OFFCURVE",
"140 180.031 OFFCURVE",
"100 180.031 CURVE",
"200.011 -20 LINE"
);
},
{
closed = 1;
nodes = (
"140 70 LINE",
"-20 70 LINE",
"-20 0 LINE",
"140 0 LINE"
);
},
{
closed = 1;
nodes = (
"80.003 -8.962 OFFCURVE",
"88.964 0 OFFCURVE",
"100.003 0 CURVE SMOOTH",
"111.041 0 OFFCURVE",
"120.003 -8.962 OFFCURVE",
"120.003 -20 CURVE SMOOTH",
"120.003 -31.038 OFFCURVE",
"111.041 -40 OFFCURVE",
"100.003 -40 CURVE SMOOTH",
"88.964 -40 OFFCURVE",
"80.003 -31.038 OFFCURVE",
"80.003 -20 CURVE SMOOTH"
);
},
{
closed = 1;
nodes = (
"-0.02 -80 OFFCURVE",
"44.789 -110 OFFCURVE",
"99.981 -110 CURVE SMOOTH",
"165 -110 OFFCURVE",
"199.981 -80 OFFCURVE",
"199.981 -20 CURVE SMOOTH",
"199.981 29.672 OFFCURVE",
"155.172 70 OFFCURVE",
"99.981 70 CURVE SMOOTH",
"44.789 70 OFFCURVE",
"-0.02 30 OFFCURVE",
"-0.02 -20 CURVE SMOOTH"
);
}
);
width = 240;
}
);
},
{
glyphname = "heh-ar.init.2";
layers = (
{
hints = (
{
place = "{0, 80}";
type = Stem;
},
{
horizontal = 1;
place = "{0, 70}";
type = Stem;
},
{
horizontal = 1;
place = "{170, 70}";
type = Stem;
},
{
place = "{120, 80}";
type = Stem;
},
{
horizontal = 1;
place = "{110, 20}";
type = Stem;
}
);
layerId = "56eb07b5-49f2-447c-9e4d-0a9cf23655fc";
paths = (
{
closed = 1;
nodes = (
"80.003 161.038 OFFCURVE",
"88.964 170 OFFCURVE",
"100.003 170 CURVE SMOOTH",
"111.041 170 OFFCURVE",
"120.003 161.038 OFFCURVE",
"120.003 150 CURVE SMOOTH",
"120.003 138.962 OFFCURVE",
"111.041 130 OFFCURVE",
"100.003 130 CURVE SMOOTH",
"88.964 130 OFFCURVE",
"80.003 138.962 OFFCURVE",
"80.003 150 CURVE SMOOTH"
);
},
{
closed = 1;
nodes = (
"-0.02 124.829 OFFCURVE",
"11.487 102.057 OFFCURVE",
"30.02 85.717 CURVE SMOOTH",
"48.06 69.812 OFFCURVE",
"72.776 114.626 OFFCURVE",
"100 114.626 CURVE SMOOTH",
"129.876 114.626 OFFCURVE",
"153.391 66.334 OFFCURVE",
"170.103 79.002 CURVE SMOOTH",
"189.761 93.904 OFFCURVE",
"199.981 117.57 OFFCURVE",
"199.981 150 CURVE SMOOTH",
"199.981 199.672 OFFCURVE",
"155.172 240 OFFCURVE",
"99.981 240 CURVE SMOOTH",
"44.789 240 OFFCURVE",
"-0.02 199.672 OFFCURVE",
"-0.02 150 CURVE SMOOTH"
);
},
{
closed = 1;
nodes = (
"200.011 275 LINE",
"180.011 240 OFFCURVE",
"140 240.031 OFFCURVE",
"100 240.031 CURVE",
"200.011 40 LINE"
);
},
{
closed = 1;
nodes = (
"130 70 LINE",
"-20 70 LINE",
"-20 0 LINE",
"130 0 LINE"
);
},
{
closed = 1;
nodes = (
"80.003 101.038 OFFCURVE",
"88.964 110 OFFCURVE",
"100.003 110 CURVE SMOOTH",
"111.041 110 OFFCURVE",
"120.003 101.038 OFFCURVE",
"120.003 90 CURVE SMOOTH",
"120.003 78.962 OFFCURVE",
"111.041 70 OFFCURVE",
"100.003 70 CURVE SMOOTH",
"88.964 70 OFFCURVE",
"80.003 78.962 OFFCURVE",
"80.003 90 CURVE SMOOTH"
);
},
{
closed = 1;
nodes = (
"-0.02 40.328 OFFCURVE",
"44.789 0 OFFCURVE",
"99.981 0 CURVE SMOOTH",
"165 0 OFFCURVE",
"199.981 30 OFFCURVE",
"199.981 90 CURVE SMOOTH",
"199.981 115.098 OFFCURVE",
"188.541 137.81 OFFCURVE",
"170.103 154.14 CURVE SMOOTH",
"152.049 170.129 OFFCURVE",
"127.305 125 OFFCURVE",
"100 125 CURVE SMOOTH",
"72.695 125 OFFCURVE",
"47.911 170.129 OFFCURVE",
"29.858 154.14 CURVE SMOOTH",
"11.42 137.81 OFFCURVE",
"-0.019 115.098 OFFCURVE",
"-0.02 90 CURVE SMOOTH"
);
},
{
closed = 1;
nodes = (
"120 210 LINE",
"120 70 LINE",
"100 70 LINE",
"100 0 LINE",
"179 0 LINE",
"185 0 OFFCURVE",
"200 0 OFFCURVE",
"200 11 CURVE",
"200 230 LINE"
);
}
);
width = 240;
},
{
associatedMasterId = "56eb07b5-49f2-447c-9e4d-0a9cf23655fc";
layerId = "03a3df06-bc9c-4df5-8d4c-53a5dfe084e0";
name = Body;
width = 0;
}
);
},
{
glyphname = "heh-ar.init.3";
layers = (
{
hints = (
{
place = "{0, 80}";
type = Stem;
},
{
horizontal = 1;
place = "{0, 70}";
type = Stem;
},
{
horizontal = 1;
place = "{170, 70}";
type = Stem;
},
{
place = "{120, 80}";
type = Stem;
},
{
horizontal = 1;
place = "{110, 20}";
type = Stem;
}
);
layerId = "56eb07b5-49f2-447c-9e4d-0a9cf23655fc";
paths = (
{
closed = 1;
nodes = (
"120 290 LINE",
"120 220 LINE",
"200 251 LINE",
"200 310 LINE"
);
},
{
closed = 1;
nodes = (
"80.003 161.038 OFFCURVE",
"88.964 170 OFFCURVE",
"100.003 170 CURVE SMOOTH",
"111.041 170 OFFCURVE",
"120.003 161.038 OFFCURVE",
"120.003 150 CURVE SMOOTH",
"120.003 138.962 OFFCURVE",
"111.041 130 OFFCURVE",
"100.003 130 CURVE SMOOTH",
"88.964 130 OFFCURVE",
"80.003 138.962 OFFCURVE",
"80.003 150 CURVE SMOOTH"
);
},
{
closed = 1;
nodes = (
"-0.02 124.829 OFFCURVE",
"11.487 102.057 OFFCURVE",
"30.02 85.717 CURVE SMOOTH",
"48.06 69.812 OFFCURVE",
"72.776 114.626 OFFCURVE",
"100 114.626 CURVE SMOOTH",
"129.876 114.626 OFFCURVE",
"153.391 66.334 OFFCURVE",
"170.103 79.002 CURVE SMOOTH",
"189.761 93.904 OFFCURVE",
"199.981 117.57 OFFCURVE",
"199.981 150 CURVE SMOOTH",
"199.981 199.672 OFFCURVE",
"155.172 240 OFFCURVE",
"99.981 240 CURVE SMOOTH",
"44.789 240 OFFCURVE",
"-0.02 199.672 OFFCURVE",
"-0.02 150 CURVE SMOOTH"
);
},
{
closed = 1;
nodes = (
"200.011 275 LINE",
"180.011 240 OFFCURVE",
"140 240.031 OFFCURVE",
"100 240.031 CURVE",
"200.011 40 LINE"
);
},
{
closed = 1;
nodes = (
"130 70 LINE",
"-20 70 LINE",
"-20 0 LINE",
"130 0 LINE"
);
},
{
closed = 1;
nodes = (
"80.003 101.038 OFFCURVE",
"88.964 110 OFFCURVE",
"100.003 110 CURVE SMOOTH",
"111.041 110 OFFCURVE",
"120.003 101.038 OFFCURVE",
"120.003 90 CURVE SMOOTH",
"120.003 78.962 OFFCURVE",
"111.041 70 OFFCURVE",
"100.003 70 CURVE SMOOTH",
"88.964 70 OFFCURVE",
"80.003 78.962 OFFCURVE",
"80.003 90 CURVE SMOOTH"
);
},
{
closed = 1;
nodes = (
"-0.02 40.328 OFFCURVE",
"44.789 0 OFFCURVE",
"99.981 0 CURVE SMOOTH",
"165 0 OFFCURVE",
"199.981 30 OFFCURVE",
"199.981 90 CURVE SMOOTH",
"199.981 115.098 OFFCURVE",
"188.541 137.81 OFFCURVE",
"170.103 154.14 CURVE SMOOTH",
"152.049 170.129 OFFCURVE",
"127.305 125 OFFCURVE",
"100 125 CURVE SMOOTH",
"72.695 125 OFFCURVE",
"47.911 170.129 OFFCURVE",
"29.858 154.14 CURVE SMOOTH",
"11.42 137.81 OFFCURVE",
"-0.019 115.098 OFFCURVE",
"-0.02 90 CURVE SMOOTH"
);
},
{
closed = 1;
nodes = (
"120 210 LINE",
"120 70 LINE",
"100 70 LINE",
"100 0 LINE",
"179 0 LINE",
"185 0 OFFCURVE",
"200 0 OFFCURVE",
"200 11 CURVE",
"200 230 LINE"
);
}
);
width = 240;
}
);
},
{
glyphname = "heh-ar.init.4";
layers = (
{
hints = (
{
place = "{0, 80}";
type = Stem;
},
{
horizontal = 1;
place = "{0, 70}";
type = Stem;
},
{
horizontal = 1;
place = "{106, 8}";
type = Stem;
},
{
place = "{120, 80}";
type = Stem;
},
{
horizontal = 1;
place = "{150, 70}";
type = Stem;
}
);
layerId = "56eb07b5-49f2-447c-9e4d-0a9cf23655fc";
paths = (
{
closed = 1;
nodes = (
"-2.055 83.147 OFFCURVE",
"10.288 59.268 OFFCURVE",
"24 50 CURVE",
"167 50 LINE",
"186.166 64.529 OFFCURVE",
"199.981 96.871 OFFCURVE",
"199.981 125.215 CURVE SMOOTH",
"199.981 172.974 OFFCURVE",
"160.759 220 OFFCURVE",
"120 220 CURVE SMOOTH",
"54.928 220 OFFCURVE",
"-2.055 187.575 OFFCURVE",
"-2.055 116.161 CURVE SMOOTH"
);
},
{
closed = 1;
nodes = (
"200.011 255 LINE",
"180.011 220 OFFCURVE",
"160 220.031 OFFCURVE",
"120 220.031 CURVE",
"200.011 20 LINE"
);
},
{
closed = 1;
nodes = (
"130 70 LINE",
"-20 70 LINE",
"-20 0 LINE",
"130 0 LINE"
);
},
{
closed = 1;
nodes = (
"120 200 LINE",
"120 70 LINE",
"100 70 LINE",
"100 0 LINE",
"179 0 LINE",
"185 0 OFFCURVE",
"200 0 OFFCURVE",
"200 11 CURVE",
"200 220 LINE"
);
},
{
closed = 1;
nodes = (
"100.637 106 OFFCURVE",
"117.601 90.138 OFFCURVE",
"119.604 70 CURVE",
"98.967 70 OFFCURVE",
"82.003 85.862 OFFCURVE",
"80 106 CURVE"
);
},
{
closed = 1;
nodes = (
"82.003 134.138 OFFCURVE",
"98.967 150 OFFCURVE",
"119.604 150 CURVE",
"117.601 129.862 OFFCURVE",
"100.637 114 OFFCURVE",
"80 114 CURVE"
);
}
);
width = 240;
},
{
associatedMasterId = "56eb07b5-49f2-447c-9e4d-0a9cf23655fc";
layerId = "03a3df06-bc9c-4df5-8d4c-53a5dfe084e0";
name = Body;
width = 0;
}
);
},
{
glyphname = "heh-ar.init.5";
layers = (
{
hints = (
{
place = "{0, 80}";
type = Stem;
},
{
horizontal = 1;
place = "{0, 70}";
type = Stem;
},
{
horizontal = 1;
place = "{150, 70}";
type = Stem;
},
{
place = "{120, 80}";
type = Stem;
},
{
horizontal = 1;
place = "{106, 8}";
type = Stem;
}
);
layerId = "56eb07b5-49f2-447c-9e4d-0a9cf23655fc";
paths = (
{
closed = 1;
nodes = (
"120 270 LINE",
"120 200 LINE",
"200 231 LINE",
"200 290 LINE"
);
},
{
closed = 1;
nodes = (
"-2.055 83.147 OFFCURVE",
"10.288 59.268 OFFCURVE",
"24 50 CURVE",
"167 50 LINE",
"186.166 64.529 OFFCURVE",
"199.981 96.871 OFFCURVE",
"199.981 125.215 CURVE SMOOTH",
"199.981 172.974 OFFCURVE",
"160.759 220 OFFCURVE",
"120 220 CURVE SMOOTH",
"54.928 220 OFFCURVE",
"-2.055 187.575 OFFCURVE",
"-2.055 116.161 CURVE SMOOTH"
);
},
{
closed = 1;
nodes = (
"200.011 255 LINE",
"180.011 220 OFFCURVE",
"160 220.031 OFFCURVE",
"120 220.031 CURVE",
"200.011 20 LINE"
);
},
{
closed = 1;
nodes = (
"130 70 LINE",
"-20 70 LINE",
"-20 0 LINE",
"130 0 LINE"
);
},
{
closed = 1;
nodes = (
"120 200 LINE",
"120 70 LINE",
"100 70 LINE",
"100 0 LINE",
"179 0 LINE",
"185 0 OFFCURVE",
"200 0 OFFCURVE",
"200 11 CURVE",
"200 220 LINE"
);
},
{
closed = 1;
nodes = (
"100.637 106 OFFCURVE",
"117.601 90.138 OFFCURVE",
"119.604 70 CURVE",
"98.967 70 OFFCURVE",
"82.003 85.862 OFFCURVE",
"80 106 CURVE"
);
},
{
closed = 1;
nodes = (
"82.003 134.138 OFFCURVE",
"98.967 150 OFFCURVE",
"119.604 150 CURVE",
"117.601 129.862 OFFCURVE",
"100.637 114 OFFCURVE",
"80 114 CURVE"
);
}
);
width = 240;
}
);
},
{
glyphname = "heh-ar.init.6";
layers = (
{
hints = (
{
place = "{0, 80}";
type = Stem;
},
{
horizontal = 1;
place = "{0, 70}";
type = Stem;
},
{
horizontal = 1;
place = "{150, 70}";
type = Stem;
},
{
place = "{120, 80}";
type = Stem;
},
{
horizontal = 1;
place = "{106, 8}";
type = Stem;
}
);
layerId = "56eb07b5-49f2-447c-9e4d-0a9cf23655fc";
paths = (
{
closed = 1;
nodes = (
"-2 85 OFFCURVE",
"9.762 59.623 OFFCURVE",
"24 50 CURVE",
"167 50 LINE",
"186.166 64.529 OFFCURVE",
"199.981 96.871 OFFCURVE",
"199.981 125.215 CURVE SMOOTH",
"199.981 172.974 OFFCURVE",
"160.759 220 OFFCURVE",
"120 220 CURVE SMOOTH",
"45.762 220 OFFCURVE",
"-2 180.487 OFFCURVE",
"-2 116.67 CURVE SMOOTH"
);
},
{
closed = 1;
nodes = (
"200.011 255 LINE",
"180.011 220 OFFCURVE",
"160 220.031 OFFCURVE",
"120 220.031 CURVE",
"200.011 20 LINE"
);
},
{
closed = 1;
nodes = (
"130 70 LINE",
"-20 70 LINE",
"-20 0 LINE",
"130 0 LINE"
);
},
{
closed = 1;
nodes = (
"100 0 LINE",
"179 0 LINE",
"185 0 OFFCURVE",
"200 0 OFFCURVE",
"200 11 CURVE"
);
},
{
closed = 1;
nodes = (
"89.504 160 LINE",
"120.003 126 LINE",
"80.003 116 LINE"
);
},
{
closed = 1;
nodes = (
"110.501 70 LINE",
"80.003 104 LINE",
"120.003 114 LINE"
);
},
{
closed = 1;
nodes = (
"120 180 LINE",
"120 70 LINE",
"100 70 LINE",
"100 0 LINE",
"179 0 LINE",
"185 0 OFFCURVE",
"200 0 OFFCURVE",
"200 11 CURVE",
"200 200 LINE"
);
}
);
width = 240;
},
{
associatedMasterId = "56eb07b5-49f2-447c-9e4d-0a9cf23655fc";
layerId = "03a3df06-bc9c-4df5-8d4c-53a5dfe084e0";
name = Body;
width = 0;
}
);
},
{
glyphname = "heh-ar.init.7";
layers = (
{
hints = (
{
place = "{0, 80}";
type = Stem;
},
{
horizontal = 1;
place = "{0, 70}";
type = Stem;
},
{
horizontal = 1;
place = "{106, 8}";
type = Stem;
},
{
place = "{120, 80}";
type = Stem;
},
{
horizontal = 1;
place = "{150, 70}";
type = Stem;
}
);
layerId = "56eb07b5-49f2-447c-9e4d-0a9cf23655fc";
paths = (
{
closed = 1;
nodes = (
"120 270 LINE",
"120 200 LINE",
"200 231 LINE",
"200 290 LINE"
);
},
{
closed = 1;
nodes = (
"-2 85 OFFCURVE",
"9.762 59.623 OFFCURVE",
"24 50 CURVE",
"167 50 LINE",
"186.166 64.529 OFFCURVE",
"199.981 96.871 OFFCURVE",
"199.981 125.215 CURVE SMOOTH",
"199.981 172.974 OFFCURVE",
"160.759 220 OFFCURVE",
"120 220 CURVE SMOOTH",
"45.762 220 OFFCURVE",
"-2 180.487 OFFCURVE",
"-2 116.67 CURVE SMOOTH"
);
},
{
closed = 1;
nodes = (
"200.011 255 LINE",
"180.011 220 OFFCURVE",
"160 220.031 OFFCURVE",
"120 220.031 CURVE",
"200.011 20 LINE"
);
},
{
closed = 1;
nodes = (
"130 70 LINE",
"-20 70 LINE",
"-20 0 LINE",
"130 0 LINE"
);
},
{
closed = 1;
nodes = (
"100 0 LINE",
"179 0 LINE",
"185 0 OFFCURVE",
"200 0 OFFCURVE",
"200 11 CURVE"
);
},
{
closed = 1;
nodes = (
"89.504 160 LINE",
"120.003 126 LINE",
"80.003 116 LINE"
);
},
{
closed = 1;
nodes = (
"110.501 70 LINE",
"80.003 104 LINE",
"120.003 114 LINE"
);
},
{
closed = 1;
nodes = (
"120 180 LINE",
"120 70 LINE",
"100 70 LINE",
"100 0 LINE",
"179 0 LINE",
"185 0 OFFCURVE",
"200 0 OFFCURVE",
"200 11 CURVE",
"200 200 LINE"
);
}
);
width = 240;
}
);
},
{
glyphname = "heh-ar.medi";
layers = (
{
hints = (
{
place = "{0, 80}";
type = Stem;
},
{
place = "{120, 80}";
type = Stem;
},
{
horizontal = 1;
place = "{0, 70}";
type = Stem;
},
{
horizontal = 1;
place = "{-110, 70}";
type = Stem;
},
{
horizontal = 1;
place = "{110, 70}";
type = Stem;
}
);
layerId = "56eb07b5-49f2-447c-9e4d-0a9cf23655fc";
paths = (
{
closed = 1;
nodes = (
"80.003 101.038 OFFCURVE",
"88.964 110 OFFCURVE",
"100.003 110 CURVE SMOOTH",
"111.041 110 OFFCURVE",
"120.003 101.038 OFFCURVE",
"120.003 90 CURVE SMOOTH",
"120.003 78.962 OFFCURVE",
"111.041 70 OFFCURVE",
"100.003 70 CURVE SMOOTH",
"88.964 70 OFFCURVE",
"80.003 78.962 OFFCURVE",
"80.003 90 CURVE SMOOTH"
);
},
{
closed = 1;
nodes = (
"-0.02 30 OFFCURVE",
"44.789 0 OFFCURVE",
"99.981 0 CURVE SMOOTH",
"165 0 OFFCURVE",
"199.981 30 OFFCURVE",
"199.981 90 CURVE SMOOTH",
"199.981 139.672 OFFCURVE",
"155.172 180 OFFCURVE",
"99.981 180 CURVE SMOOTH",
"44.789 180 OFFCURVE",
"-0.02 140 OFFCURVE",
"-0.02 90 CURVE SMOOTH"
);
},
{
closed = 1;
nodes = (
"200.011 215 LINE",
"180.011 180 OFFCURVE",
"140 180.031 OFFCURVE",
"100 180.031 CURVE",
"200.011 -20 LINE"
);
},
{
closed = 1;
nodes = (
"140 70 LINE",
"-20 70 LINE",
"-20 0 LINE",
"140 0 LINE"
);
},
{
closed = 1;
nodes = (
"80.003 -8.962 OFFCURVE",
"88.964 0 OFFCURVE",
"100.003 0 CURVE SMOOTH",
"111.041 0 OFFCURVE",
"120.003 -8.962 OFFCURVE",
"120.003 -20 CURVE SMOOTH",
"120.003 -31.038 OFFCURVE",
"111.041 -40 OFFCURVE",
"100.003 -40 CURVE SMOOTH",
"88.964 -40 OFFCURVE",
"80.003 -31.038 OFFCURVE",
"80.003 -20 CURVE SMOOTH"
);
},
{
closed = 1;
nodes = (
"-0.02 -80 OFFCURVE",
"44.789 -110 OFFCURVE",
"99.981 -110 CURVE SMOOTH",
"165 -110 OFFCURVE",
"199.981 -80 OFFCURVE",
"199.981 -20 CURVE SMOOTH",
"199.981 29.672 OFFCURVE",
"155.172 70 OFFCURVE",
"99.981 70 CURVE SMOOTH",
"44.789 70 OFFCURVE",
"-0.02 30 OFFCURVE",
"-0.02 -20 CURVE SMOOTH"
);
},
{
closed = 1;
nodes = (
"240 70 LINE",
"80 70 LINE",
"80 0 LINE",
"240 0 LINE"
);
}
);
width = 240;
}
);
},
{
glyphname = "heh-ar.medi.1";
layers = (
{
hints = (
{
horizontal = 1;
place = "{0, 70}";
type = Stem;
},
{
horizontal = 1;
place = "{-110, 70}";
type = Stem;
},
{
horizontal = 1;
place = "{110, 70}";
type = Stem;
},
{
place = "{0, 80}";
type = Stem;
},
{
place = "{120, 80}";
type = Stem;
}
);
layerId = "56eb07b5-49f2-447c-9e4d-0a9cf23655fc";
paths = (
{
closed = 1;
nodes = (
"240 70 LINE",
"80 70 LINE",
"80 0 LINE",
"240 0 LINE"
);
},
{
closed = 1;
nodes = (
"120 231 LINE",
"120 160 LINE",
"200 191 LINE",
"200 251 LINE"
);
},
{
closed = 1;
nodes = (
"80.003 101.038 OFFCURVE",
"88.964 110 OFFCURVE",
"100.003 110 CURVE SMOOTH",
"111.041 110 OFFCURVE",
"120.003 101.038 OFFCURVE",
"120.003 90 CURVE SMOOTH",
"120.003 78.962 OFFCURVE",
"111.041 70 OFFCURVE",
"100.003 70 CURVE SMOOTH",
"88.964 70 OFFCURVE",
"80.003 78.962 OFFCURVE",
"80.003 90 CURVE SMOOTH"
);
},
{
closed = 1;
nodes = (
"-0.02 30 OFFCURVE",
"44.789 0 OFFCURVE",
"99.981 0 CURVE SMOOTH",
"165 0 OFFCURVE",
"199.981 30 OFFCURVE",
"199.981 90 CURVE SMOOTH",
"199.981 139.672 OFFCURVE",
"155.172 180 OFFCURVE",
"99.981 180 CURVE SMOOTH",
"44.789 180 OFFCURVE",
"-0.02 140 OFFCURVE",
"-0.02 90 CURVE SMOOTH"
);
},
{
closed = 1;
nodes = (
"200.011 215 LINE",
"180.011 180 OFFCURVE",
"140 180.031 OFFCURVE",
"100 180.031 CURVE",
"200.011 -20 LINE"
);
},
{
closed = 1;
nodes = (
"140 70 LINE",
"-20 70 LINE",
"-20 0 LINE",
"140 0 LINE"
);
},
{
closed = 1;
nodes = (
"80.003 -8.962 OFFCURVE",
"88.964 0 OFFCURVE",
"100.003 0 CURVE SMOOTH",
"111.041 0 OFFCURVE",
"120.003 -8.962 OFFCURVE",
"120.003 -20 CURVE SMOOTH",
"120.003 -31.038 OFFCURVE",
"111.041 -40 OFFCURVE",
"100.003 -40 CURVE SMOOTH",
"88.964 -40 OFFCURVE",
"80.003 -31.038 OFFCURVE",
"80.003 -20 CURVE SMOOTH"
);
},
{
closed = 1;
nodes = (
"-0.02 -80 OFFCURVE",
"44.789 -110 OFFCURVE",
"99.981 -110 CURVE SMOOTH",
"165 -110 OFFCURVE",
"199.981 -80 OFFCURVE",
"199.981 -20 CURVE SMOOTH",
"199.981 29.672 OFFCURVE",
"155.172 70 OFFCURVE",
"99.981 70 CURVE SMOOTH",
"44.789 70 OFFCURVE",
"-0.02 30 OFFCURVE",
"-0.02 -20 CURVE SMOOTH"
);
}
);
width = 240;
}
);
},
{
glyphname = "heh-ar.medi.2";
layers = (
{
hints = (
{
place = "{0, 80}";
type = Stem;
},
{
horizontal = 1;
place = "{0, 70}";
type = Stem;
},
{
horizontal = 1;
place = "{170, 70}";
type = Stem;
},
{
place = "{120, 80}";
type = Stem;
},
{
horizontal = 1;
place = "{110, 20}";
type = Stem;
}
);
layerId = "56eb07b5-49f2-447c-9e4d-0a9cf23655fc";
paths = (
{
closed = 1;
nodes = (
"240 70 LINE",
"80 70 LINE",
"80 0 LINE",
"240 0 LINE"
);
},
{
closed = 1;
nodes = (
"80.003 161.038 OFFCURVE",
"88.964 170 OFFCURVE",
"100.003 170 CURVE SMOOTH",
"111.041 170 OFFCURVE",
"120.003 161.038 OFFCURVE",
"120.003 150 CURVE SMOOTH",
"120.003 138.962 OFFCURVE",
"111.041 130 OFFCURVE",
"100.003 130 CURVE SMOOTH",
"88.964 130 OFFCURVE",
"80.003 138.962 OFFCURVE",
"80.003 150 CURVE SMOOTH"
);
},
{
closed = 1;
nodes = (
"-0.02 124.829 OFFCURVE",
"11.487 102.057 OFFCURVE",
"30.02 85.717 CURVE SMOOTH",
"48.06 69.812 OFFCURVE",
"72.776 114.626 OFFCURVE",
"100 114.626 CURVE SMOOTH",
"129.876 114.626 OFFCURVE",
"153.391 66.334 OFFCURVE",
"170.103 79.002 CURVE SMOOTH",
"189.761 93.904 OFFCURVE",
"199.981 117.57 OFFCURVE",
"199.981 150 CURVE SMOOTH",
"199.981 199.672 OFFCURVE",
"155.172 240 OFFCURVE",
"99.981 240 CURVE SMOOTH",
"44.789 240 OFFCURVE",
"-0.02 199.672 OFFCURVE",
"-0.02 150 CURVE SMOOTH"
);
},
{
closed = 1;
nodes = (
"200.011 275 LINE",
"180.011 240 OFFCURVE",
"140 240.031 OFFCURVE",
"100 240.031 CURVE",
"200.011 40 LINE"
);
},
{
closed = 1;
nodes = (
"130 70 LINE",
"-20 70 LINE",
"-20 0 LINE",
"130 0 LINE"
);
},
{
closed = 1;
nodes = (
"80.003 101.038 OFFCURVE",
"88.964 110 OFFCURVE",
"100.003 110 CURVE SMOOTH",
"111.041 110 OFFCURVE",
"120.003 101.038 OFFCURVE",
"120.003 90 CURVE SMOOTH",
"120.003 78.962 OFFCURVE",
"111.041 70 OFFCURVE",
"100.003 70 CURVE SMOOTH",
"88.964 70 OFFCURVE",
"80.003 78.962 OFFCURVE",
"80.003 90 CURVE SMOOTH"
);
},
{
closed = 1;
nodes = (
"-0.02 40.328 OFFCURVE",
"44.789 0 OFFCURVE",
"99.981 0 CURVE SMOOTH",
"165 0 OFFCURVE",
"199.981 30 OFFCURVE",
"199.981 90 CURVE SMOOTH",
"199.981 115.098 OFFCURVE",
"188.541 137.81 OFFCURVE",
"170.103 154.14 CURVE SMOOTH",
"152.049 170.129 OFFCURVE",
"127.305 125 OFFCURVE",
"100 125 CURVE SMOOTH",
"72.695 125 OFFCURVE",
"47.911 170.129 OFFCURVE",
"29.858 154.14 CURVE SMOOTH",
"11.42 137.81 OFFCURVE",
"-0.019 115.098 OFFCURVE",
"-0.02 90 CURVE SMOOTH"
);
},
{
closed = 1;
nodes = (
"120 210 LINE",
"120 70 LINE",
"100 70 LINE",
"100 0 LINE",
"179 0 LINE",
"185 0 OFFCURVE",
"200 0 OFFCURVE",
"200 11 CURVE",
"200 230 LINE"
);
}
);
width = 240;
}
);
},
{
glyphname = "heh-ar.medi.3";
layers = (
{
hints = (
{
place = "{0, 80}";
type = Stem;
},
{
horizontal = 1;
place = "{0, 70}";
type = Stem;
},
{
horizontal = 1;
place = "{170, 70}";
type = Stem;
},
{
place = "{120, 80}";
type = Stem;
},
{
horizontal = 1;
place = "{110, 20}";
type = Stem;
}
);
layerId = "56eb07b5-49f2-447c-9e4d-0a9cf23655fc";
paths = (
{
closed = 1;
nodes = (
"240 70 LINE",
"80 70 LINE",
"80 0 LINE",
"240 0 LINE"
);
},
{
closed = 1;
nodes = (
"120 290 LINE",
"120 220 LINE",
"200 251 LINE",
"200 310 LINE"
);
},
{
closed = 1;
nodes = (
"80.003 161.038 OFFCURVE",
"88.964 170 OFFCURVE",
"100.003 170 CURVE SMOOTH",
"111.041 170 OFFCURVE",
"120.003 161.038 OFFCURVE",
"120.003 150 CURVE SMOOTH",
"120.003 138.962 OFFCURVE",
"111.041 130 OFFCURVE",
"100.003 130 CURVE SMOOTH",
"88.964 130 OFFCURVE",
"80.003 138.962 OFFCURVE",
"80.003 150 CURVE SMOOTH"
);
},
{
closed = 1;
nodes = (
"-0.02 124.829 OFFCURVE",
"11.487 102.057 OFFCURVE",
"30.02 85.717 CURVE SMOOTH",
"48.06 69.812 OFFCURVE",
"72.776 114.626 OFFCURVE",
"100 114.626 CURVE SMOOTH",
"129.876 114.626 OFFCURVE",
"153.391 66.334 OFFCURVE",
"170.103 79.002 CURVE SMOOTH",
"189.761 93.904 OFFCURVE",
"199.981 117.57 OFFCURVE",
"199.981 150 CURVE SMOOTH",
"199.981 199.672 OFFCURVE",
"155.172 240 OFFCURVE",
"99.981 240 CURVE SMOOTH",
"44.789 240 OFFCURVE",
"-0.02 199.672 OFFCURVE",
"-0.02 150 CURVE SMOOTH"
);
},
{
closed = 1;
nodes = (
"200.011 275 LINE",
"180.011 240 OFFCURVE",
"140 240.031 OFFCURVE",
"100 240.031 CURVE",
"200.011 40 LINE"
);
},
{
closed = 1;
nodes = (
"130 70 LINE",
"-20 70 LINE",
"-20 0 LINE",
"130 0 LINE"
);
},
{
closed = 1;
nodes = (
"80.003 101.038 OFFCURVE",
"88.964 110 OFFCURVE",
"100.003 110 CURVE SMOOTH",
"111.041 110 OFFCURVE",
"120.003 101.038 OFFCURVE",
"120.003 90 CURVE SMOOTH",
"120.003 78.962 OFFCURVE",
"111.041 70 OFFCURVE",
"100.003 70 CURVE SMOOTH",
"88.964 70 OFFCURVE",
"80.003 78.962 OFFCURVE",
"80.003 90 CURVE SMOOTH"
);
},
{
closed = 1;
nodes = (
"-0.02 40.328 OFFCURVE",
"44.789 0 OFFCURVE",
"99.981 0 CURVE SMOOTH",
"165 0 OFFCURVE",
"199.981 30 OFFCURVE",
"199.981 90 CURVE SMOOTH",
"199.981 115.098 OFFCURVE",
"188.541 137.81 OFFCURVE",
"170.103 154.14 CURVE SMOOTH",
"152.049 170.129 OFFCURVE",
"127.305 125 OFFCURVE",
"100 125 CURVE SMOOTH",
"72.695 125 OFFCURVE",
"47.911 170.129 OFFCURVE",
"29.858 154.14 CURVE SMOOTH",
"11.42 137.81 OFFCURVE",
"-0.019 115.098 OFFCURVE",
"-0.02 90 CURVE SMOOTH"
);
},
{
closed = 1;
nodes = (
"120 210 LINE",
"120 70 LINE",
"100 70 LINE",
"100 0 LINE",
"179 0 LINE",
"185 0 OFFCURVE",
"200 0 OFFCURVE",
"200 11 CURVE",
"200 230 LINE"
);
}
);
width = 240;
}
);
},
{
glyphname = "heh-ar.medi.4";
layers = (
{
hints = (
{
place = "{0, 80}";
type = Stem;
},
{
horizontal = 1;
place = "{0, 70}";
type = Stem;
},
{
horizontal = 1;
place = "{106, 8}";
type = Stem;
},
{
place = "{120, 80}";
type = Stem;
},
{
horizontal = 1;
place = "{150, 70}";
type = Stem;
}
);
layerId = "56eb07b5-49f2-447c-9e4d-0a9cf23655fc";
paths = (
{
closed = 1;
nodes = (
"-2.055 83.147 OFFCURVE",
"10.288 59.268 OFFCURVE",
"24 50 CURVE",
"167 50 LINE",
"186.166 64.529 OFFCURVE",
"199.981 96.871 OFFCURVE",
"199.981 125.215 CURVE SMOOTH",
"199.981 172.974 OFFCURVE",
"160.759 220 OFFCURVE",
"120 220 CURVE SMOOTH",
"54.928 220 OFFCURVE",
"-2.055 187.575 OFFCURVE",
"-2.055 116.161 CURVE SMOOTH"
);
},
{
closed = 1;
nodes = (
"200.011 255 LINE",
"180.011 220 OFFCURVE",
"160 220.031 OFFCURVE",
"120 220.031 CURVE",
"200.011 20 LINE"
);
},
{
closed = 1;
nodes = (
"130 70 LINE",
"-20 70 LINE",
"-20 0 LINE",
"130 0 LINE"
);
},
{
closed = 1;
nodes = (
"120 200 LINE",
"120 70 LINE",
"100 70 LINE",
"100 0 LINE",
"179 0 LINE",
"185 0 OFFCURVE",
"200 0 OFFCURVE",
"200 11 CURVE",
"200 220 LINE"
);
},
{
closed = 1;
nodes = (
"100.637 106 OFFCURVE",
"117.601 90.138 OFFCURVE",
"119.604 70 CURVE",
"98.967 70 OFFCURVE",
"82.003 85.862 OFFCURVE",
"80 106 CURVE"
);
},
{
closed = 1;
nodes = (
"82.003 134.138 OFFCURVE",
"98.967 150 OFFCURVE",
"119.604 150 CURVE",
"117.601 129.862 OFFCURVE",
"100.637 114 OFFCURVE",
"80 114 CURVE"
);
},
{
closed = 1;
nodes = (
"240 70 LINE",
"80 70 LINE",
"80 0 LINE",
"240 0 LINE"
);
}
);
width = 240;
}
);
},
{
glyphname = "heh-ar.medi.5";
layers = (
{
hints = (
{
place = "{0, 80}";
type = Stem;
},
{
horizontal = 1;
place = "{0, 70}";
type = Stem;
},
{
horizontal = 1;
place = "{106, 8}";
type = Stem;
},
{
place = "{120, 80}";
type = Stem;
},
{
horizontal = 1;
place = "{150, 70}";
type = Stem;
}
);
layerId = "56eb07b5-49f2-447c-9e4d-0a9cf23655fc";
paths = (
{
closed = 1;
nodes = (
"240 70 LINE",
"80 70 LINE",
"80 0 LINE",
"240 0 LINE"
);
},
{
closed = 1;
nodes = (
"120 270 LINE",
"120 200 LINE",
"200 231 LINE",
"200 290 LINE"
);
},
{
closed = 1;
nodes = (
"-2 85 OFFCURVE",
"9.762 59.623 OFFCURVE",
"24 50 CURVE",
"167 50 LINE",
"186.166 64.529 OFFCURVE",
"199.981 96.871 OFFCURVE",
"199.981 125.215 CURVE SMOOTH",
"199.981 172.974 OFFCURVE",
"160.759 220 OFFCURVE",
"120 220 CURVE SMOOTH",
"45.762 220 OFFCURVE",
"-2 180.487 OFFCURVE",
"-2 116.67 CURVE SMOOTH"
);
},
{
closed = 1;
nodes = (
"200.011 255 LINE",
"180.011 220 OFFCURVE",
"160 220.031 OFFCURVE",
"120 220.031 CURVE",
"200.011 20 LINE"
);
},
{
closed = 1;
nodes = (
"130 70 LINE",
"-20 70 LINE",
"-20 0 LINE",
"130 0 LINE"
);
},
{
closed = 1;
nodes = (
"100 0 LINE",
"179 0 LINE",
"185 0 OFFCURVE",
"200 0 OFFCURVE",
"200 11 CURVE"
);
},
{
closed = 1;
nodes = (
"89.504 160 LINE",
"120.003 126 LINE",
"80.003 116 LINE"
);
},
{
closed = 1;
nodes = (
"110.501 70 LINE",
"80.003 104 LINE",
"120.003 114 LINE"
);
},
{
closed = 1;
nodes = (
"120 180 LINE",
"120 70 LINE",
"100 70 LINE",
"100 0 LINE",
"179 0 LINE",
"185 0 OFFCURVE",
"200 0 OFFCURVE",
"200 11 CURVE",
"200 200 LINE"
);
}
);
width = 240;
}
);
},
{
glyphname = "heh-ar.medi.6";
layers = (
{
hints = (
{
place = "{0, 80}";
type = Stem;
},
{
horizontal = 1;
place = "{0, 70}";
type = Stem;
},
{
horizontal = 1;
place = "{150, 70}";
type = Stem;
},
{
place = "{120, 80}";
type = Stem;
},
{
horizontal = 1;
place = "{106, 8}";
type = Stem;
}
);
layerId = "56eb07b5-49f2-447c-9e4d-0a9cf23655fc";
paths = (
{
closed = 1;
nodes = (
"240 70 LINE",
"80 70 LINE",
"80 0 LINE",
"240 0 LINE"
);
},
{
closed = 1;
nodes = (
"-2 85 OFFCURVE",
"9.762 59.623 OFFCURVE",
"24 50 CURVE",
"167 50 LINE",
"186.166 64.529 OFFCURVE",
"199.981 96.871 OFFCURVE",
"199.981 125.215 CURVE SMOOTH",
"199.981 172.974 OFFCURVE",
"160.759 220 OFFCURVE",
"120 220 CURVE SMOOTH",
"45.762 220 OFFCURVE",
"-2 180.487 OFFCURVE",
"-2 116.67 CURVE SMOOTH"
);
},
{
closed = 1;
nodes = (
"200.011 255 LINE",
"180.011 220 OFFCURVE",
"160 220.031 OFFCURVE",
"120 220.031 CURVE",
"200.011 20 LINE"
);
},
{
closed = 1;
nodes = (
"130 70 LINE",
"-20 70 LINE",
"-20 0 LINE",
"130 0 LINE"
);
},
{
closed = 1;
nodes = (
"100 0 LINE",
"179 0 LINE",
"185 0 OFFCURVE",
"200 0 OFFCURVE",
"200 11 CURVE"
);
},
{
closed = 1;
nodes = (
"89.504 160 LINE",
"120.003 126 LINE",
"80.003 116 LINE"
);
},
{
closed = 1;
nodes = (
"110.501 70 LINE",
"80.003 104 LINE",
"120.003 114 LINE"
);
},
{
closed = 1;
nodes = (
"120 180 LINE",
"120 70 LINE",
"100 70 LINE",
"100 0 LINE",
"179 0 LINE",
"185 0 OFFCURVE",
"200 0 OFFCURVE",
"200 11 CURVE",
"200 200 LINE"
);
}
);
width = 240;
}
);
},
{
glyphname = "heh-ar.medi.7";
layers = (
{
hints = (
{
place = "{0, 80}";
type = Stem;
},
{
horizontal = 1;
place = "{0, 70}";
type = Stem;
},
{
horizontal = 1;
place = "{106, 8}";
type = Stem;
},
{
place = "{120, 80}";
type = Stem;
},
{
horizontal = 1;
place = "{150, 70}";
type = Stem;
}
);
layerId = "56eb07b5-49f2-447c-9e4d-0a9cf23655fc";
paths = (
{
closed = 1;
nodes = (
"240 70 LINE",
"80 70 LINE",
"80 0 LINE",
"240 0 LINE"
);
},
{
closed = 1;
nodes = (
"120 270 LINE",
"120 200 LINE",
"200 231 LINE",
"200 290 LINE"
);
},
{
closed = 1;
nodes = (
"-2 85 OFFCURVE",
"9.762 59.623 OFFCURVE",
"24 50 CURVE",
"167 50 LINE",
"186.166 64.529 OFFCURVE",
"199.981 96.871 OFFCURVE",
"199.981 125.215 CURVE SMOOTH",
"199.981 172.974 OFFCURVE",
"160.759 220 OFFCURVE",
"120 220 CURVE SMOOTH",
"45.762 220 OFFCURVE",
"-2 180.487 OFFCURVE",
"-2 116.67 CURVE SMOOTH"
);
},
{
closed = 1;
nodes = (
"200.011 255 LINE",
"180.011 220 OFFCURVE",
"160 220.031 OFFCURVE",
"120 220.031 CURVE",
"200.011 20 LINE"
);
},
{
closed = 1;
nodes = (
"130 70 LINE",
"-20 70 LINE",
"-20 0 LINE",
"130 0 LINE"
);
},
{
closed = 1;
nodes = (
"100 0 LINE",
"179 0 LINE",
"185 0 OFFCURVE",
"200 0 OFFCURVE",
"200 11 CURVE"
);
},
{
closed = 1;
nodes = (
"89.504 160 LINE",
"120.003 126 LINE",
"80.003 116 LINE"
);
},
{
closed = 1;
nodes = (
"110.501 70 LINE",
"80.003 104 LINE",
"120.003 114 LINE"
);
},
{
closed = 1;
nodes = (
"120 180 LINE",
"120 70 LINE",
"100 70 LINE",
"100 0 LINE",
"179 0 LINE",
"185 0 OFFCURVE",
"200 0 OFFCURVE",
"200 11 CURVE",
"200 200 LINE"
);
}
);
width = 240;
}
);
},
{
glyphname = "waw-ar";
layers = (
{
hints = (
{
horizontal = 1;
place = "{-110, 70}";
type = Stem;
},
{
horizontal = 1;
place = "{0, 70}";
type = Stem;
},
{
horizontal = 1;
place = "{110, 70}";
type = Stem;
},
{
place = "{80, 80}";
type = Stem;
},
{
place = "{212, 81}";
type = Stem;
}
);
layerId = "56eb07b5-49f2-447c-9e4d-0a9cf23655fc";
paths = (
{
closed = 1;
nodes = (
"10 -40 LINE",
"160 -40 LINE",
"161.544 -32.786 OFFCURVE",
"162.265 -25.496 OFFCURVE",
"162.265 -18.199 CURVE SMOOTH",
"162.265 -10.726 OFFCURVE",
"161.509 -3.247 OFFCURVE",
"160.105 4.162 CURVE",
"150.391 1.4 OFFCURVE",
"140.259 0 OFFCURVE",
"129.976 0 CURVE SMOOTH",
"74.789 0 OFFCURVE",
"29.981 40.328 OFFCURVE",
"29.981 90 CURVE SMOOTH",
"29.981 139.672 OFFCURVE",
"74.789 180 OFFCURVE",
"130.158 180 CURVE SMOOTH",
"180.091 180 OFFCURVE",
"217.713 147.202 OFFCURVE",
"232.697 90.676 CURVE SMOOTH",
"239.37 65.502 OFFCURVE",
"243.289 29.071 OFFCURVE",
"243.289 -6.631 CURVE SMOOTH",
"243.289 -33.175 OFFCURVE",
"242 -55.045 OFFCURVE",
"238.317 -71.724 CURVE SMOOTH",
"232.876 -96.366 OFFCURVE",
"223.562 -110 OFFCURVE",
"193 -110 CURVE SMOOTH",
"10 -110 LINE"
);
},
{
closed = 1;
nodes = (
"110.003 78.962 OFFCURVE",
"118.964 70 OFFCURVE",
"130.003 70 CURVE SMOOTH",
"141.041 70 OFFCURVE",
"150.003 78.962 OFFCURVE",
"150.003 90 CURVE SMOOTH",
"150.003 101.038 OFFCURVE",
"141.041 110 OFFCURVE",
"130.003 110 CURVE SMOOTH",
"118.964 110 OFFCURVE",
"110.003 101.038 OFFCURVE",
"110.003 90 CURVE SMOOTH"
);
},
{
closed = 1;
nodes = (
"2 -20 LINE",
"12.149 -33.182 OFFCURVE",
"27.559 -40 OFFCURVE",
"50 -40 CURVE SMOOTH",
"130 -40 LINE",
"130 -110 LINE",
"-50 -110 LINE"
);
}
);
width = 270;
},
{
associatedMasterId = "56eb07b5-49f2-447c-9e4d-0a9cf23655fc";
layerId = "03a3df06-bc9c-4df5-8d4c-53a5dfe084e0";
name = Body;
width = 0;
}
);
unicode = 0648;
},
{
glyphname = "waw-ar.1";
layers = (
{
hints = (
{
place = "{200, 80}";
type = Stem;
},
{
horizontal = 1;
place = "{-110, 70}";
type = Stem;
},
{
horizontal = 1;
place = "{0, 70}";
type = Stem;
},
{
horizontal = 1;
place = "{110, 70}";
type = Stem;
},
{
place = "{80, 80}";
type = Stem;
}
);
layerId = "56eb07b5-49f2-447c-9e4d-0a9cf23655fc";
paths = (
{
closed = 1;
nodes = (
"2 -20 LINE",
"12.149 -33.182 OFFCURVE",
"27.559 -40 OFFCURVE",
"50 -40 CURVE",
"130 -40 LINE",
"130 -110 LINE",
"-50 -110 LINE"
);
},
{
closed = 1;
nodes = (
"110.003 78.962 OFFCURVE",
"118.964 70 OFFCURVE",
"130.003 70 CURVE SMOOTH",
"141.041 70 OFFCURVE",
"150.003 78.962 OFFCURVE",
"150.003 90 CURVE SMOOTH",
"150.003 101.038 OFFCURVE",
"141.041 110 OFFCURVE",
"130.003 110 CURVE SMOOTH",
"118.964 110 OFFCURVE",
"110.003 101.038 OFFCURVE",
"110.003 90 CURVE SMOOTH"
);
},
{
closed = 1;
nodes = (
"29.98 139.672 OFFCURVE",
"74.789 180 OFFCURVE",
"129.981 180 CURVE SMOOTH",
"185.172 180 OFFCURVE",
"229.981 139.672 OFFCURVE",
"229.981 90 CURVE SMOOTH",
"229.981 40.328 OFFCURVE",
"185.172 0 OFFCURVE",
"129.981 0 CURVE SMOOTH",
"74.789 0 OFFCURVE",
"29.98 40.328 OFFCURVE",
"29.98 90 CURVE SMOOTH"
);
},
{
closed = 1;
nodes = (
"10 -110 LINE",
"10 -40 LINE",
"150 -40 LINE",
"150 100 LINE",
"230 90 LINE",
"230 -70 LINE SMOOTH",
"230 -95 OFFCURVE",
"215 -110 OFFCURVE",
"192 -110 CURVE SMOOTH"
);
}
);
width = 270;
},
{
associatedMasterId = "56eb07b5-49f2-447c-9e4d-0a9cf23655fc";
layerId = "03a3df06-bc9c-4df5-8d4c-53a5dfe084e0";
name = Body;
width = 0;
}
);
},
{
glyphname = "waw-ar.fina";
layers = (
{
hints = (
{
horizontal = 1;
place = "{-110, 70}";
type = Stem;
},
{
horizontal = 1;
place = "{0, 70}";
type = Stem;
},
{
horizontal = 1;
place = "{110, 70}";
type = Stem;
},
{
place = "{80, 80}";
type = Stem;
},
{
place = "{212, 81}";
type = Stem;
}
);
layerId = "56eb07b5-49f2-447c-9e4d-0a9cf23655fc";
paths = (
{
closed = 1;
nodes = (
"280 70 LINE",
"180 70 LINE",
"180 0 LINE",
"280 0 LINE"
);
},
{
closed = 1;
nodes = (
"10 -110 LINE",
"193 -110 LINE SMOOTH",
"223.562 -110 OFFCURVE",
"232.876 -96.366 OFFCURVE",
"238.317 -71.724 CURVE SMOOTH",
"242 -55.045 OFFCURVE",
"243.289 -33.175 OFFCURVE",
"243.289 -6.631 CURVE SMOOTH",
"243.289 29.071 OFFCURVE",
"239.37 65.502 OFFCURVE",
"232.697 90.676 CURVE SMOOTH",
"217.713 147.202 OFFCURVE",
"180.091 180 OFFCURVE",
"130.158 180 CURVE SMOOTH",
"74.789 180 OFFCURVE",
"29.981 139.672 OFFCURVE",
"29.981 90 CURVE SMOOTH",
"29.981 40.328 OFFCURVE",
"74.789 0 OFFCURVE",
"129.976 0 CURVE SMOOTH",
"140.259 0 OFFCURVE",
"150.391 1.4 OFFCURVE",
"160.105 4.162 CURVE",
"161.509 -3.247 OFFCURVE",
"162.265 -10.726 OFFCURVE",
"162.265 -18.199 CURVE SMOOTH",
"162.265 -25.496 OFFCURVE",
"161.544 -32.786 OFFCURVE",
"160 -40 CURVE",
"10 -40 LINE"
);
},
{
closed = 1;
nodes = (
"110.003 101.038 OFFCURVE",
"118.964 110 OFFCURVE",
"130.003 110 CURVE SMOOTH",
"141.041 110 OFFCURVE",
"150.003 101.038 OFFCURVE",
"150.003 90 CURVE SMOOTH",
"150.003 78.962 OFFCURVE",
"141.041 70 OFFCURVE",
"130.003 70 CURVE SMOOTH",
"118.964 70 OFFCURVE",
"110.003 78.962 OFFCURVE",
"110.003 90 CURVE SMOOTH"
);
},
{
closed = 1;
nodes = (
"-50 -110 LINE",
"130 -110 LINE",
"130 -40 LINE",
"50 -40 LINE SMOOTH",
"27.559 -40 OFFCURVE",
"12.149 -33.182 OFFCURVE",
"2 -20 CURVE"
);
}
);
width = 280;
}
);
},
{
glyphname = "waw-ar.fina.1";
layers = (
{
hints = (
{
place = "{200, 80}";
type = Stem;
},
{
horizontal = 1;
place = "{-110, 70}";
type = Stem;
},
{
horizontal = 1;
place = "{0, 70}";
type = Stem;
},
{
horizontal = 1;
place = "{110, 70}";
type = Stem;
},
{
place = "{80, 80}";
type = Stem;
}
);
layerId = "56eb07b5-49f2-447c-9e4d-0a9cf23655fc";
paths = (
{
closed = 1;
nodes = (
"270 70 LINE",
"170 70 LINE",
"170 0 LINE",
"270 0 LINE"
);
},
{
closed = 1;
nodes = (
"-50 -110 LINE",
"130 -110 LINE",
"130 -40 LINE",
"50 -40 LINE",
"27.559 -40 OFFCURVE",
"12.149 -33.182 OFFCURVE",
"2 -20 CURVE"
);
},
{
closed = 1;
nodes = (
"110.003 101.038 OFFCURVE",
"118.964 110 OFFCURVE",
"130.003 110 CURVE SMOOTH",
"141.041 110 OFFCURVE",
"150.003 101.038 OFFCURVE",
"150.003 90 CURVE SMOOTH",
"150.003 78.962 OFFCURVE",
"141.041 70 OFFCURVE",
"130.003 70 CURVE SMOOTH",
"118.964 70 OFFCURVE",
"110.003 78.962 OFFCURVE",
"110.003 90 CURVE SMOOTH"
);
},
{
closed = 1;
nodes = (
"29.98 40.328 OFFCURVE",
"74.789 0 OFFCURVE",
"129.981 0 CURVE SMOOTH",
"185.172 0 OFFCURVE",
"229.981 40.328 OFFCURVE",
"229.981 90 CURVE SMOOTH",
"229.981 139.672 OFFCURVE",
"185.172 180 OFFCURVE",
"129.981 180 CURVE SMOOTH",
"74.789 180 OFFCURVE",
"29.98 139.672 OFFCURVE",
"29.98 90 CURVE SMOOTH"
);
},
{
closed = 1;
nodes = (
"192 -110 LINE SMOOTH",
"215 -110 OFFCURVE",
"230 -95 OFFCURVE",
"230 -70 CURVE SMOOTH",
"230 90 LINE",
"150 100 LINE",
"150 -40 LINE",
"10 -40 LINE",
"10 -110 LINE"
);
}
);
width = 270;
}
);
},
{
glyphname = "alefMaksura-ar";
layers = (
{
anchors = (
{
name = bottom;
position = "{120, -295}";
},
{
name = top;
position = "{120, 228}";
}
);
guideLines = (
{
position = "{0, 155}";
},
{
position = "{0, -110}";
},
{
position = "{0, 70}";
}
);
hints = (
{
place = "{160, 80}";
type = Stem;
},
{
horizontal = 1;
place = "{-220, 70}";
type = Stem;
},
{
horizontal = 1;
place = "{0, 70}";
type = Stem;
}
);
layerId = "56eb07b5-49f2-447c-9e4d-0a9cf23655fc";
paths = (
{
closed = 1;
nodes = (
"160 -104 LINE",
"160 -150 LINE",
"100 -150 LINE SMOOTH",
"80 -150 OFFCURVE",
"63 -145 OFFCURVE",
"52 -130 CURVE",
"0 -220 LINE",
"202 -220 LINE SMOOTH",
"225 -220 OFFCURVE",
"240 -205 OFFCURVE",
"240 -180 CURVE SMOOTH",
"240 -84 LINE SMOOTH",
"240 -59 OFFCURVE",
"227 -43 OFFCURVE",
"192 -43 CURVE"
);
},
{
closed = 1;
nodes = (
"33 -92 OFFCURVE",
"93 -110 OFFCURVE",
"170 -110 CURVE",
"192 -43 LINE",
"160 -43 OFFCURVE",
"138 -37 OFFCURVE",
"115 -14 CURVE SMOOTH",
"84 17 LINE SMOOTH",
"67 34 OFFCURVE",
"76 81 OFFCURVE",
"90 67 CURVE SMOOTH",
"142 15 LINE SMOOTH",
"152 5 OFFCURVE",
"161 0 OFFCURVE",
"173 0 CURVE SMOOTH",
"189 0 OFFCURVE",
"225 10 OFFCURVE",
"235 90 CURVE",
"232 75 OFFCURVE",
"218 70 OFFCURVE",
"209 70 CURVE SMOOTH",
"200 70 OFFCURVE",
"195 75 OFFCURVE",
"191 79 CURVE SMOOTH",
"127 143 LINE SMOOTH",
"77 193 OFFCURVE",
"33 44 OFFCURVE",
"33 -5 CURVE SMOOTH"
);
}
);
width = 280;
}
);
unicode = 0649;
},
{
glyphname = "alefMaksura-ar.1";
layers = (
{
anchors = (
{
name = bottom;
position = "{120, -325}";
},
{
name = top;
position = "{120, 228}";
}
);
guideLines = (
{
position = "{0, 155}";
},
{
position = "{0, -110}";
},
{
position = "{0, 70}";
}
);
hints = (
{
place = "{160, 80}";
type = Stem;
},
{
horizontal = 1;
place = "{-250, 70}";
type = Stem;
},
{
horizontal = 1;
place = "{0, 70}";
type = Stem;
}
);
layerId = "56eb07b5-49f2-447c-9e4d-0a9cf23655fc";
paths = (
{
closed = 1;
nodes = (
"160 -104 LINE",
"160 -180 LINE",
"100 -180 LINE SMOOTH",
"80 -180 OFFCURVE",
"63 -175 OFFCURVE",
"52 -160 CURVE",
"0 -250 LINE",
"202 -250 LINE SMOOTH",
"225 -250 OFFCURVE",
"240 -235 OFFCURVE",
"240 -210 CURVE SMOOTH",
"240 -84 LINE SMOOTH",
"240 -59 OFFCURVE",
"227 -43 OFFCURVE",
"192 -43 CURVE"
);
},
{
closed = 1;
nodes = (
"33 -92 OFFCURVE",
"93 -110 OFFCURVE",
"170 -110 CURVE",
"192 -43 LINE",
"160 -43 OFFCURVE",
"138 -37 OFFCURVE",
"115 -14 CURVE SMOOTH",
"84 17 LINE SMOOTH",
"67 34 OFFCURVE",
"76 81 OFFCURVE",
"90 67 CURVE SMOOTH",
"142 15 LINE SMOOTH",
"152 5 OFFCURVE",
"161 0 OFFCURVE",
"173 0 CURVE SMOOTH",
"189 0 OFFCURVE",
"225 10 OFFCURVE",
"235 90 CURVE",
"232 75 OFFCURVE",
"218 70 OFFCURVE",
"209 70 CURVE SMOOTH",
"200 70 OFFCURVE",
"195 75 OFFCURVE",
"191 79 CURVE SMOOTH",
"127 143 LINE SMOOTH",
"77 193 OFFCURVE",
"33 44 OFFCURVE",
"33 -5 CURVE SMOOTH"
);
}
);
width = 280;
},
{
associatedMasterId = "56eb07b5-49f2-447c-9e4d-0a9cf23655fc";
layerId = "03a3df06-bc9c-4df5-8d4c-53a5dfe084e0";
name = Body;
width = 0;
}
);
},
{
glyphname = "alefMaksura-ar.2";
layers = (
{
associatedMasterId = "56eb07b5-49f2-447c-9e4d-0a9cf23655fc";
layerId = "6f69b832-046f-47e1-8f55-a5fe3435a4fc";
name = "New Layer";
paths = (
{
closed = 1;
nodes = (
"108 -120 LINE",
"-2 -10 LINE",
"61 40 LINE",
"156 -55 LINE"
);
},
{
closed = 1;
nodes = (
"158 -1 LINE",
"119 38 LINE",
"63 38 LINE",
"123 -22 LINE"
);
},
{
closed = 1;
nodes = (
"76 49 LINE",
"87 88 LINE",
"47 88 LINE",
"36 49 LINE"
);
},
{
closed = 1;
nodes = (
"248 79 LINE",
"209 118 LINE",
"153 118 LINE",
"213 58 LINE"
);
}
);
width = 280;
},
{
anchors = (
{
name = bottom;
position = "{322, -185}";
},
{
name = top;
position = "{101, 228}";
}
);
guideLines = (
{
position = "{0, 155}";
},
{
position = "{0, -110}";
},
{
position = "{0, 70}";
}
);
hints = (
{
horizontal = 1;
place = "{-110, 70}";
type = Stem;
},
{
horizontal = 1;
place = "{0, 70}";
type = Stem;
}
);
layerId = "56eb07b5-49f2-447c-9e4d-0a9cf23655fc";
paths = (
{
closed = 1;
nodes = (
"33 -92 OFFCURVE",
"93 -110 OFFCURVE",
"170 -110 CURVE",
"182 -40 LINE",
"150 -40 OFFCURVE",
"138 -37 OFFCURVE",
"115 -14 CURVE SMOOTH",
"84 17 LINE SMOOTH",
"67 34 OFFCURVE",
"76 81 OFFCURVE",
"90 67 CURVE SMOOTH",
"142 15 LINE SMOOTH",
"152 5 OFFCURVE",
"161 0 OFFCURVE",
"173 0 CURVE SMOOTH",
"189 0 OFFCURVE",
"225 10 OFFCURVE",
"235 90 CURVE",
"232 75 OFFCURVE",
"218 70 OFFCURVE",
"209 70 CURVE SMOOTH",
"200 70 OFFCURVE",
"195 75 OFFCURVE",
"191 79 CURVE SMOOTH",
"127 143 LINE SMOOTH",
"77 193 OFFCURVE",
"33 44 OFFCURVE",
"33 -5 CURVE SMOOTH"
);
},
{
closed = 1;
nodes = (
"164 -110 LINE",
"569 -110 LINE",
"610 -40 LINE",
"174 -40 LINE"
);
}
);
width = 610;
},
{
associatedMasterId = "56eb07b5-49f2-447c-9e4d-0a9cf23655fc";
layerId = "03a3df06-bc9c-4df5-8d4c-53a5dfe084e0";
name = Body;
width = 0;
}
);
},
{
glyphname = "alefMaksura-ar.fina";
layers = (
{
anchors = (
{
name = bottom;
position = "{120, -295}";
},
{
name = top;
position = "{120, 228}";
}
);
guideLines = (
{
position = "{0, 155}";
},
{
position = "{0, -110}";
},
{
position = "{0, 70}";
}
);
hints = (
{
place = "{160, 80}";
type = Stem;
},
{
horizontal = 1;
place = "{-220, 70}";
type = Stem;
},
{
horizontal = 1;
place = "{0, 70}";
type = Stem;
}
);
layerId = "56eb07b5-49f2-447c-9e4d-0a9cf23655fc";
paths = (
{
closed = 1;
nodes = (
"160 -104 LINE",
"160 -150 LINE",
"100 -150 LINE SMOOTH",
"80 -150 OFFCURVE",
"63 -145 OFFCURVE",
"52 -130 CURVE",
"0 -220 LINE",
"202 -220 LINE SMOOTH",
"225 -220 OFFCURVE",
"240 -205 OFFCURVE",
"240 -180 CURVE SMOOTH",
"240 -84 LINE SMOOTH",
"240 -59 OFFCURVE",
"227 -43 OFFCURVE",
"192 -43 CURVE"
);
},
{
closed = 1;
nodes = (
"33 -92 OFFCURVE",
"93 -110 OFFCURVE",
"170 -110 CURVE",
"192 -43 LINE",
"160 -43 OFFCURVE",
"138 -37 OFFCURVE",
"115 -14 CURVE SMOOTH",
"84 17 LINE SMOOTH",
"67 34 OFFCURVE",
"76 81 OFFCURVE",
"90 67 CURVE SMOOTH",
"142 15 LINE SMOOTH",
"152 5 OFFCURVE",
"161 0 OFFCURVE",
"173 0 CURVE SMOOTH",
"240 0 LINE",
"240 70 LINE",
"209 70 LINE",
"200 70 OFFCURVE",
"195 75 OFFCURVE",
"191 79 CURVE SMOOTH",
"127 143 LINE SMOOTH",
"77 193 OFFCURVE",
"33 44 OFFCURVE",
"33 -5 CURVE SMOOTH"
);
}
);
width = 240;
}
);
},
{
glyphname = "alefMaksura-ar.fina.1";
layers = (
{
anchors = (
{
name = bottom;
position = "{120, -325}";
},
{
name = top;
position = "{120, 228}";
}
);
guideLines = (
{
position = "{0, 155}";
},
{
position = "{0, -110}";
},
{
position = "{0, 70}";
}
);
hints = (
{
horizontal = 1;
place = "{0, 70}";
type = Stem;
},
{
place = "{160, 80}";
type = Stem;
},
{
horizontal = 1;
place = "{-250, 70}";
type = Stem;
}
);
layerId = "56eb07b5-49f2-447c-9e4d-0a9cf23655fc";
paths = (
{
closed = 1;
nodes = (
"160 -104 LINE",
"160 -180 LINE",
"100 -180 LINE SMOOTH",
"80 -180 OFFCURVE",
"63 -175 OFFCURVE",
"52 -160 CURVE",
"0 -250 LINE",
"202 -250 LINE SMOOTH",
"225 -250 OFFCURVE",
"240 -235 OFFCURVE",
"240 -210 CURVE SMOOTH",
"240 -84 LINE SMOOTH",
"240 -59 OFFCURVE",
"227 -43 OFFCURVE",
"192 -43 CURVE"
);
},
{
closed = 1;
nodes = (
"33 -92 OFFCURVE",
"93 -110 OFFCURVE",
"170 -110 CURVE",
"192 -43 LINE",
"160 -43 OFFCURVE",
"138 -37 OFFCURVE",
"115 -14 CURVE SMOOTH",
"84 17 LINE SMOOTH",
"67 34 OFFCURVE",
"76 81 OFFCURVE",
"90 67 CURVE SMOOTH",
"142 15 LINE SMOOTH",
"152 5 OFFCURVE",
"161 0 OFFCURVE",
"173 0 CURVE SMOOTH",
"240 0 LINE",
"240 70 LINE",
"209 70 LINE",
"200 70 OFFCURVE",
"195 75 OFFCURVE",
"191 79 CURVE SMOOTH",
"127 143 LINE SMOOTH",
"77 193 OFFCURVE",
"33 44 OFFCURVE",
"33 -5 CURVE SMOOTH"
);
}
);
width = 240;
},
{
associatedMasterId = "56eb07b5-49f2-447c-9e4d-0a9cf23655fc";
layerId = "03a3df06-bc9c-4df5-8d4c-53a5dfe084e0";
name = Body;
width = 0;
}
);
},
{
glyphname = "alefMaksura-ar.fina.2";
layers = (
{
associatedMasterId = "56eb07b5-49f2-447c-9e4d-0a9cf23655fc";
layerId = "6f69b832-046f-47e1-8f55-a5fe3435a4fc";
name = "New Layer";
paths = (
{
closed = 1;
nodes = (
"108 -120 LINE",
"-2 -10 LINE",
"61 40 LINE",
"156 -55 LINE"
);
},
{
closed = 1;
nodes = (
"158 -1 LINE",
"119 38 LINE",
"63 38 LINE",
"123 -22 LINE"
);
},
{
closed = 1;
nodes = (
"76 49 LINE",
"87 88 LINE",
"47 88 LINE",
"36 49 LINE"
);
},
{
closed = 1;
nodes = (
"248 79 LINE",
"209 118 LINE",
"153 118 LINE",
"213 58 LINE"
);
}
);
width = 280;
},
{
anchors = (
{
name = bottom;
position = "{322, -185}";
},
{
name = top;
position = "{101, 228}";
}
);
guideLines = (
{
position = "{0, 155}";
},
{
position = "{0, -110}";
},
{
position = "{0, 70}";
},
{
position = "{0, -110}";
}
);
hints = (
{
horizontal = 1;
place = "{0, 70}";
type = Stem;
},
{
horizontal = 1;
place = "{-110, 70}";
type = Stem;
}
);
layerId = "56eb07b5-49f2-447c-9e4d-0a9cf23655fc";
paths = (
{
closed = 1;
nodes = (
"164 -110 LINE",
"569 -110 LINE",
"610 -40 LINE",
"174 -40 LINE"
);
},
{
closed = 1;
nodes = (
"33 -92 OFFCURVE",
"93 -110 OFFCURVE",
"170 -110 CURVE",
"192 -40 LINE",
"160 -40 OFFCURVE",
"138 -37 OFFCURVE",
"115 -14 CURVE SMOOTH",
"84 17 LINE SMOOTH",
"67 34 OFFCURVE",
"76 81 OFFCURVE",
"90 67 CURVE SMOOTH",
"142 15 LINE SMOOTH",
"152 5 OFFCURVE",
"161 0 OFFCURVE",
"173 0 CURVE SMOOTH",
"240 0 LINE",
"240 70 LINE",
"209 70 LINE",
"200 70 OFFCURVE",
"195 75 OFFCURVE",
"191 79 CURVE SMOOTH",
"127 143 LINE SMOOTH",
"77 193 OFFCURVE",
"33 44 OFFCURVE",
"33 -5 CURVE SMOOTH"
);
}
);
width = 240;
},
{
associatedMasterId = "56eb07b5-49f2-447c-9e4d-0a9cf23655fc";
layerId = "03a3df06-bc9c-4df5-8d4c-53a5dfe084e0";
name = Body;
width = 0;
}
);
},
{
glyphname = "lam_alef-ar";
lastChange = "2020-03-08 19:50:09 +0000";
layers = (
{
associatedMasterId = "56eb07b5-49f2-447c-9e4d-0a9cf23655fc";
hints = (
{
place = "{150, 80}";
type = Stem;
},
{
horizontal = 1;
place = "{-250, 70}";
type = Stem;
},
{
place = "{55, 80}";
type = Stem;
},
{
horizontal = 1;
place = "{0, 43}";
type = Stem;
}
);
layerId = "92b51f3e-c29c-471e-8002-96c353e45c95";
widthMetricsKey = "=4*80+40";
name = Regular.1;
paths = (
{
closed = 1;
nodes = (
"0 0 LINE",
"320 0 LINE",
"260 70 LINE",
"0 70 LINE"
);
},
{
closed = 1;
nodes = (
"2 0 LINE",
"230 520 LINE",
"302 560 LINE",
"56 0 LINE"
);
},
{
closed = 1;
nodes = (
"320 0 LINE",
"20.071 520 LINE",
"-50 480 LINE",
"227 0 LINE"
);
},
{
closed = 1;
nodes = (
"2 0 LINE",
"230 520 LINE",
"322 560 LINE",
"76 0 LINE"
);
},
{
closed = 1;
nodes = (
"76 0 LINE",
"304 520 LINE",
"371 560 LINE",
"125 0 LINE"
);
}
);
width = 360;
},
{
hints = (
{
horizontal = 1;
place = "{0, 70}";
type = Stem;
}
);
layerId = "56eb07b5-49f2-447c-9e4d-0a9cf23655fc";
paths = (
{
closed = 1;
nodes = (
"0 0 LINE",
"320 0 LINE",
"260 70 LINE",
"70 70 LINE"
);
},
{
closed = 1;
nodes = (
"189.398 79.542 OFFCURVE",
"299.918 342.295 OFFCURVE",
"322 560 CURVE",
"230 520 LINE",
"222.518 315.326 OFFCURVE",
"161.473 181.973 OFFCURVE",
"0 0 CURVE"
);
},
{
closed = 1;
nodes = (
"320 0 LINE",
"20.071 520 LINE",
"-40.017 462.701 LINE",
"227 0 LINE"
);
}
);
width = 360;
},
{
associatedMasterId = "56eb07b5-49f2-447c-9e4d-0a9cf23655fc";
layerId = "03a3df06-bc9c-4df5-8d4c-53a5dfe084e0";
name = Body;
width = 0;
}
);
},
{
glyphname = "lam_alef-ar.1";
layers = (
{
associatedMasterId = "56eb07b5-49f2-447c-9e4d-0a9cf23655fc";
hints = (
{
place = "{150, 80}";
type = Stem;
},
{
horizontal = 1;
place = "{-250, 70}";
type = Stem;
},
{
place = "{55, 80}";
type = Stem;
},
{
horizontal = 1;
place = "{0, 43}";
type = Stem;
}
);
layerId = "92b51f3e-c29c-471e-8002-96c353e45c95";
widthMetricsKey = "=4*80+40";
name = Regular.1;
paths = (
{
closed = 1;
nodes = (
"100 0 LINE",
"215 0 LINE",
"215 70 LINE",
"70 70 LINE"
);
},
{
closed = 1;
nodes = (
"80 560 LINE",
"0 540 LINE",
"0 0 LINE",
"135 0 LINE",
"135 70 LINE",
"80 70 LINE"
);
},
{
closed = 1;
nodes = (
"-212.842 460.029 LINE",
"-242.414 382.699 LINE",
"224.161 45.577 LINE",
"271.014 110.422 LINE"
);
}
);
width = 360;
},
{
guideLines = (
{
position = "{0, 150}";
showMeasurement = 1;
},
{
position = "{0, 110}";
},
{
angle = 90;
position = "{215, 0}";
},
{
angle = 90;
position = "{135, 0}";
},
{
position = "{0, 460}";
}
);
hints = (
{
place = "{0, 80}";
type = Stem;
},
{
horizontal = 1;
place = "{0, 70}";
type = Stem;
}
);
layerId = "56eb07b5-49f2-447c-9e4d-0a9cf23655fc";
paths = (
{
closed = 1;
nodes = (
"80 560 LINE",
"0 540 LINE",
"0 0 LINE",
"175 0 LINE",
"175 70 LINE",
"80 70 LINE"
);
},
{
closed = 1;
nodes = (
"-212.842 460.029 LINE",
"-242.414 382.699 LINE",
"125.733 116.696 LINE SMOOTH",
"130.375 113.342 OFFCURVE",
"135 107.547 OFFCURVE",
"135 100.151 CURVE SMOOTH",
"135 0 LINE",
"215 0 LINE",
"215 100.334 LINE SMOOTH",
"215 129 OFFCURVE",
"201.818 160.419 OFFCURVE",
"172.44 181.646 CURVE SMOOTH"
);
}
);
width = 255;
},
{
associatedMasterId = "56eb07b5-49f2-447c-9e4d-0a9cf23655fc";
layerId = "03a3df06-bc9c-4df5-8d4c-53a5dfe084e0";
name = Body;
width = 0;
}
);
},
{
glyphname = "lam_alef-ar.fina";
lastChange = "2020-03-08 19:51:21 +0000";
layers = (
{
associatedMasterId = "56eb07b5-49f2-447c-9e4d-0a9cf23655fc";
hints = (
{
place = "{150, 80}";
type = Stem;
},
{
horizontal = 1;
place = "{-250, 70}";
type = Stem;
},
{
place = "{55, 80}";
type = Stem;
},
{
horizontal = 1;
place = "{0, 43}";
type = Stem;
}
);
layerId = "92b51f3e-c29c-471e-8002-96c353e45c95";
name = Regular.1;
paths = (
{
closed = 1;
nodes = (
"0 0 LINE",
"320 0 LINE",
"260 70 LINE",
"0 70 LINE"
);
},
{
closed = 1;
nodes = (
"2 0 LINE",
"230 520 LINE",
"302 560 LINE",
"56 0 LINE"
);
},
{
closed = 1;
nodes = (
"320 0 LINE",
"20.071 520 LINE",
"-50 480 LINE",
"227 0 LINE"
);
},
{
closed = 1;
nodes = (
"2 0 LINE",
"230 520 LINE",
"322 560 LINE",
"76 0 LINE"
);
},
{
closed = 1;
nodes = (
"76 0 LINE",
"304 520 LINE",
"371 560 LINE",
"125 0 LINE"
);
},
{
closed = 1;
nodes = (
"0 0 LINE",
"320 0 LINE",
"260 70 LINE",
"0 70 LINE"
);
},
{
closed = 1;
nodes = (
"2 0 LINE",
"230 520 LINE",
"302 560 LINE",
"56 0 LINE"
);
},
{
closed = 1;
nodes = (
"320 0 LINE",
"20.071 520 LINE",
"-50 480 LINE",
"227 0 LINE"
);
},
{
closed = 1;
nodes = (
"2 0 LINE",
"230 520 LINE",
"322 560 LINE",
"76 0 LINE"
);
},
{
closed = 1;
nodes = (
"76 0 LINE",
"304 520 LINE",
"371 560 LINE",
"125 0 LINE"
);
}
);
width = 360;
},
{
components = (
{
name = "lam_alef-ar";
}
);
hints = (
{
horizontal = 1;
place = "{0, 70}";
type = Stem;
}
);
layerId = "56eb07b5-49f2-447c-9e4d-0a9cf23655fc";
paths = (
{
closed = 1;
nodes = (
"360 70 LINE",
"260 70 LINE",
"260 0 LINE",
"360 0 LINE"
);
}
);
width = 360;
}
);
},
{
glyphname = "lam_alef-ar.fina.1";
lastChange = "2020-03-08 19:52:08 +0000";
layers = (
{
associatedMasterId = "56eb07b5-49f2-447c-9e4d-0a9cf23655fc";
hints = (
{
place = "{150, 80}";
type = Stem;
},
{
horizontal = 1;
place = "{-250, 70}";
type = Stem;
},
{
place = "{55, 80}";
type = Stem;
},
{
horizontal = 1;
place = "{0, 43}";
type = Stem;
}
);
layerId = "92b51f3e-c29c-471e-8002-96c353e45c95";
widthMetricsKey = "=4*80+40";
name = Regular.1;
paths = (
{
closed = 1;
nodes = (
"0 0 LINE",
"320 0 LINE",
"260 70 LINE",
"0 70 LINE"
);
},
{
closed = 1;
nodes = (
"2 0 LINE",
"230 520 LINE",
"302 560 LINE",
"56 0 LINE"
);
},
{
closed = 1;
nodes = (
"320 0 LINE",
"20.071 520 LINE",
"-50 480 LINE",
"227 0 LINE"
);
},
{
closed = 1;
nodes = (
"2 0 LINE",
"230 520 LINE",
"322 560 LINE",
"76 0 LINE"
);
},
{
closed = 1;
nodes = (
"76 0 LINE",
"304 520 LINE",
"371 560 LINE",
"125 0 LINE"
);
},
{
closed = 1;
nodes = (
"0 0 LINE",
"320 0 LINE",
"260 70 LINE",
"0 70 LINE"
);
},
{
closed = 1;
nodes = (
"2 0 LINE",
"230 520 LINE",
"302 560 LINE",
"56 0 LINE"
);
},
{
closed = 1;
nodes = (
"320 0 LINE",
"20.071 520 LINE",
"-50 480 LINE",
"227 0 LINE"
);
},
{
closed = 1;
nodes = (
"2 0 LINE",
"230 520 LINE",
"322 560 LINE",
"76 0 LINE"
);
},
{
closed = 1;
nodes = (
"76 0 LINE",
"304 520 LINE",
"371 560 LINE",
"125 0 LINE"
);
},
{
closed = 1;
nodes = (
"70 70 LINE",
"215 70 LINE",
"215 0 LINE",
"100 0 LINE"
);
},
{
closed = 1;
nodes = (
"80 70 LINE",
"135 70 LINE",
"135 0 LINE",
"0 0 LINE",
"0 540 LINE",
"80 560 LINE"
);
},
{
closed = 1;
nodes = (
"271.014 110.422 LINE",
"224.161 45.577 LINE",
"-242.414 382.699 LINE",
"-212.842 460.029 LINE"
);
}
);
width = 360;
},
{
components = (
{
name = "lam_alef-ar.1";
}
);
hints = (
{
place = "{0, 80}";
type = Stem;
},
{
horizontal = 1;
place = "{0, 70}";
type = Stem;
},
{
horizontal = 1;
place = "{0, 70}";
type = Stem;
}
);
layerId = "56eb07b5-49f2-447c-9e4d-0a9cf23655fc";
paths = (
{
closed = 1;
nodes = (
"255 70 LINE",
"155 70 LINE",
"155 0 LINE",
"255 0 LINE"
);
}
);
width = 255;
}
);
},
{
color = (154,153,255,255);
glyphname = dotabove;
layers = (
{
anchors = (
{
name = _top;
position = "{40, -40}";
}
);
layerId = "56eb07b5-49f2-447c-9e4d-0a9cf23655fc";
paths = (
{
closed = 1;
nodes = (
"0 -25.213 LINE",
"65.612 40.399 LINE",
"79.754 26.257 LINE",
"14.142 -39.355 LINE"
);
}
);
width = 80;
}
);
},
{
color = (154,153,255,255);
glyphname = threedotsabove;
layers = (
{
anchors = (
{
name = _top;
position = "{40, -40}";
}
);
layerId = "56eb07b5-49f2-447c-9e4d-0a9cf23655fc";
paths = (
{
closed = 1;
nodes = (
"0.123 -25.213 LINE",
"65.735 40.399 LINE",
"79.877 26.257 LINE",
"14.265 -39.355 LINE"
);
},
{
closed = 1;
nodes = (
"60.123 -25.213 LINE",
"125.735 40.399 LINE",
"139.877 26.257 LINE",
"74.265 -39.355 LINE"
);
},
{
closed = 1;
nodes = (
"120.123 -25.213 LINE",
"185.735 40.399 LINE",
"199.877 26.257 LINE",
"134.265 -39.355 LINE"
);
}
);
width = 200;
}
);
},
